G04 #@! TF.FileFunction,Soldermask,Bot*
%FSLAX46Y46*%
G04 Gerber Fmt 4.6, Leading zero omitted, Abs format (unit mm)*
G04 Created by KiCad (PCBNEW 4.0.7) date 11/30/17 15:22:44*
%MOMM*%
%LPD*%
G01*
G04 APERTURE LIST*
%ADD10C,0.100000*%
%ADD11C,1.200000*%
%ADD12C,2.400000*%
%ADD13R,2.400000X3.000000*%
%ADD14O,2.400000X3.000000*%
%ADD15R,1.924000X1.924000*%
%ADD16C,1.924000*%
%ADD17C,3.600000*%
%ADD18C,2.900000*%
G04 APERTURE END LIST*
D10*
D11*
X174142400Y-67843400D03*
X176784000Y-83032600D03*
X196215000Y-83032600D03*
X216408000Y-83032600D03*
X205950441Y-68125571D03*
D12*
X223600000Y-45820000D03*
X223600000Y-50220000D03*
D13*
X210541000Y-93192600D03*
D14*
X213081000Y-93192600D03*
X215621000Y-93192600D03*
X218161000Y-93192600D03*
X220701000Y-93192600D03*
D15*
X193040000Y-52070000D03*
D16*
X195580000Y-52070000D03*
X198120000Y-52070000D03*
X198120000Y-49530000D03*
X195580000Y-49530000D03*
X193040000Y-49530000D03*
D13*
X171425000Y-93167200D03*
D14*
X173965000Y-93167200D03*
X176505000Y-93167200D03*
X179045000Y-93167200D03*
X181585000Y-93167200D03*
D13*
X190729000Y-93192600D03*
D14*
X193269000Y-93192600D03*
X195809000Y-93192600D03*
X198349000Y-93192600D03*
X200889000Y-93192600D03*
D17*
X233680000Y-45720000D03*
X233680000Y-95250000D03*
X165100000Y-95250000D03*
X165100000Y-45720000D03*
D18*
X234772200Y-61626600D03*
X234772200Y-71926600D03*
X234755800Y-76434800D03*
X234755800Y-86734800D03*
D11*
X204185141Y-68112871D03*
X183388000Y-81991200D03*
X178384200Y-64675800D03*
X178741914Y-71165859D03*
X171579852Y-72504331D03*
X169494200Y-66242958D03*
X200050400Y-56591200D03*
X200050400Y-54559200D03*
X171244588Y-62337301D03*
X172800860Y-62260060D03*
X171941979Y-63219663D03*
X169242165Y-63663880D03*
X224726500Y-71196200D03*
X182664100Y-67398900D03*
X186829700Y-86728300D03*
X222224600Y-81584800D03*
X167025977Y-73509301D03*
X222290743Y-78602138D03*
X184327800Y-85961009D03*
X168134126Y-74572733D03*
X174295945Y-77931169D03*
X169138600Y-64744600D03*
X216115900Y-78625700D03*
X173666065Y-73494499D03*
X200533000Y-84913310D03*
X218733301Y-77862508D03*
X179193543Y-79050663D03*
X174944782Y-75959810D03*
X220853000Y-75565000D03*
X176928643Y-63575708D03*
X201155300Y-84124800D03*
X218008291Y-78689200D03*
X176437779Y-74941224D03*
X180340000Y-77749400D03*
X175514000Y-76932541D03*
X175212941Y-78832564D03*
X176903721Y-77781421D03*
X169979783Y-74753163D03*
X217371722Y-77866910D03*
X177252171Y-74360888D03*
X197231000Y-78333600D03*
X181737000Y-78613000D03*
X225590100Y-72009000D03*
X180136800Y-69189600D03*
X206242541Y-63457371D03*
X224713800Y-68224400D03*
X204807437Y-61978771D03*
X209709639Y-65268071D03*
X181889400Y-63582821D03*
X183819800Y-63582821D03*
X199898000Y-49657000D03*
X196291200Y-56921400D03*
X182448200Y-52578000D03*
X176428400Y-52730400D03*
X208838800Y-71285100D03*
X198932800Y-65595500D03*
X189445900Y-62547500D03*
X201904600Y-81407000D03*
X173029864Y-72520472D03*
X181178200Y-84810600D03*
X168475988Y-73632971D03*
X219927522Y-76321997D03*
X178838945Y-66685806D03*
X181939326Y-68834902D03*
X179908200Y-66192400D03*
X168275000Y-57048400D03*
X170561000Y-73939400D03*
X173981960Y-61078960D03*
X186613800Y-55473600D03*
M02*
