M48
;DRILL file {KiCad 4.0.7} date 11/30/17 15:22:47
;FORMAT={-:-/ absolute / inch / decimal}
FMAT,2
INCH,TZ
T1C0.016
T2C0.024
T3C0.032
T4C0.047
T5C0.079
T6C0.098
T7C0.126
%
G90
G05
M72
T1
X6.5758Y-2.8941
X6.6195Y-2.9359
X6.625Y-2.246
X6.6329Y-2.8989
X6.659Y-2.549
X6.6631Y-2.5065
X6.673Y-2.608
X6.6921Y-2.943
X6.715Y-2.911
X6.7419Y-2.4542
X6.7551Y-2.8545
X6.7694Y-2.489
X6.8032Y-2.4512
X6.8122Y-2.8551
X6.8372Y-2.8935
X6.8497Y-2.4047
X6.856Y-2.671
X6.862Y-3.0682
X6.8876Y-2.9905
X6.8981Y-3.1036
X6.91Y-3.0288
X6.946Y-2.076
X6.9464Y-2.9504
X6.96Y-3.269
X6.9647Y-3.0623
X6.9657Y-2.503
X6.9784Y-2.9276
X7.023Y-2.5463
X7.0371Y-2.8018
X7.0409Y-2.6254
X7.0549Y-3.1122
X7.083Y-2.606
X7.092Y-2.724
X7.1Y-3.061
X7.133Y-3.339
X7.155Y-3.095
X7.161Y-2.5033
X7.163Y-2.71
X7.183Y-2.07
X7.1915Y-2.6535
X7.22Y-3.228
X7.237Y-2.5033
X7.257Y-3.3843
X7.347Y-2.184
X7.3555Y-3.4145
X7.4585Y-2.4625
X7.725Y-3.269
X7.728Y-2.241
X7.765Y-3.084
X7.832Y-2.5825
X7.87Y-1.955
X7.876Y-2.148
X7.876Y-2.228
X7.895Y-3.343
X7.9195Y-3.312
X7.949Y-3.205
X8.0388Y-2.6816
X8.0633Y-2.4401
X8.1083Y-2.6821
X8.222Y-2.8065
X8.2563Y-2.5696
X8.5085Y-3.0955
X8.52Y-3.269
X8.5579Y-3.0656
X8.583Y-3.098
X8.6115Y-3.0655
X8.6586Y-3.0048
X8.695Y-2.975
X8.749Y-3.212
X8.7516Y-3.0946
X8.8475Y-2.803
X8.8815Y-2.835
T2
X8.1198Y-2.4983
X8.847Y-2.686
T3
X7.6Y-1.95
X7.6Y-2.05
X7.7Y-1.95
X7.7Y-2.05
X7.8Y-1.95
X7.8Y-2.05
T4
X6.749Y-3.668
X6.849Y-3.668
X6.949Y-3.668
X7.049Y-3.668
X7.149Y-3.668
X7.509Y-3.669
X7.609Y-3.669
X7.709Y-3.669
X7.809Y-3.669
X7.909Y-3.669
X8.289Y-3.669
X8.389Y-3.669
X8.489Y-3.669
X8.589Y-3.669
X8.689Y-3.669
T5
X8.8031Y-1.8039
X8.8031Y-1.9772
T6
X9.2424Y-3.0092
X9.2424Y-3.4148
X9.243Y-2.4262
X9.243Y-2.8318
T7
X6.5Y-1.8
X6.5Y-3.75
X9.2Y-1.8
X9.2Y-3.75
T0
M30
