<?xml version="1.0" encoding="utf-8"?>
<!-- Generator: Adobe Illustrator 16.0.0, SVG Export Plug-In . SVG Version: 6.00 Build 0)  -->
<!DOCTYPE svg PUBLIC "-//W3C//DTD SVG 1.1//EN" "http://www.w3.org/Graphics/SVG/1.1/DTD/svg11.dtd">
<svg version="1.1" id="Layer_1" xmlns="http://www.w3.org/2000/svg" xmlns:xlink="http://www.w3.org/1999/xlink" x="0px" y="0px"
	 width="297.639px" height="212.598px" viewBox="0 0 297.639 212.598" enable-background="new 0 0 297.639 212.598"
	 xml:space="preserve">
<rect x="160.579" y="65" fill="none" stroke="#000000" stroke-width="0.2835" stroke-miterlimit="10" width="3.36" height="2.28"/>
<rect x="160.579" y="59.899" fill="none" stroke="#000000" stroke-width="0.2835" stroke-miterlimit="10" width="3.36" height="2.28"/>
<rect x="151.579" y="140.54" fill="none" stroke="#000000" stroke-width="0.2835" stroke-miterlimit="10" width="3.36" height="2.278"/>
<rect x="151.579" y="135.439" fill="none" stroke="#000000" stroke-width="0.2835" stroke-miterlimit="10" width="3.36" height="2.28"/>
<rect x="61.639" y="140.54" fill="none" stroke="#000000" stroke-width="0.2835" stroke-miterlimit="10" width="3.359" height="2.278"/>
<rect x="61.639" y="135.439" fill="none" stroke="#000000" stroke-width="0.2835" stroke-miterlimit="10" width="3.359" height="2.28"/>
<rect x="189.378" y="65" fill="none" stroke="#000000" stroke-width="0.2835" stroke-miterlimit="10" width="3.36" height="2.28"/>
<rect x="189.378" y="59.899" fill="none" stroke="#000000" stroke-width="0.2835" stroke-miterlimit="10" width="3.36" height="2.28"/>
<rect x="203.779" y="97.399" fill="none" stroke="#000000" stroke-width="0.2835" stroke-miterlimit="10" width="3.36" height="2.28"/>
<rect x="203.779" y="92.299" fill="none" stroke="#000000" stroke-width="0.2835" stroke-miterlimit="10" width="3.36" height="2.28"/>
<rect x="113.779" y="97.399" fill="none" stroke="#000000" stroke-width="0.2835" stroke-miterlimit="10" width="3.36" height="2.28"/>
<rect x="113.779" y="92.299" fill="none" stroke="#000000" stroke-width="0.2835" stroke-miterlimit="10" width="3.36" height="2.28"/>
<rect x="23.839" y="97.399" fill="none" stroke="#000000" stroke-width="0.2835" stroke-miterlimit="10" width="3.36" height="2.28"/>
<rect x="23.839" y="92.299" fill="none" stroke="#000000" stroke-width="0.2835" stroke-miterlimit="10" width="3.36" height="2.28"/>
<rect x="232.519" y="97.399" fill="none" stroke="#000000" stroke-width="0.2835" stroke-miterlimit="10" width="3.358" height="2.28"/>
<rect x="232.519" y="92.299" fill="none" stroke="#000000" stroke-width="0.2835" stroke-miterlimit="10" width="3.358" height="2.28"/>
<rect x="142.579" y="97.399" fill="none" stroke="#000000" stroke-width="0.2835" stroke-miterlimit="10" width="3.36" height="2.28"/>
<rect x="142.579" y="92.299" fill="none" stroke="#000000" stroke-width="0.2835" stroke-miterlimit="10" width="3.36" height="2.28"/>
<rect x="52.639" y="97.399" fill="none" stroke="#000000" stroke-width="0.2835" stroke-miterlimit="10" width="3.359" height="2.28"/>
<rect x="52.639" y="92.299" fill="none" stroke="#000000" stroke-width="0.2835" stroke-miterlimit="10" width="3.359" height="2.28"/>
<rect x="241.519" y="140.54" fill="none" stroke="#000000" stroke-width="0.2835" stroke-miterlimit="10" width="3.358" height="2.278"/>
<rect x="241.519" y="135.439" fill="none" stroke="#000000" stroke-width="0.2835" stroke-miterlimit="10" width="3.358" height="2.28"/>
<rect x="168.378" y="69.199" fill="none" stroke="#000000" stroke-width="0.2835" stroke-miterlimit="10" width="3.48" height="6.359"/>
<rect x="174.918" y="69.199" fill="none" stroke="#000000" stroke-width="0.2835" stroke-miterlimit="10" width="3.48" height="6.359"/>
<rect x="181.458" y="69.199" fill="none" stroke="#000000" stroke-width="0.2835" stroke-miterlimit="10" width="3.48" height="6.359"/>
<rect x="171.559" y="51.679" fill="none" stroke="#000000" stroke-width="0.2835" stroke-miterlimit="10" width="10.199" height="6.24"/>
<rect x="22.759" y="144.979" fill="none" stroke="#000000" stroke-width="0.2835" stroke-miterlimit="10" width="1.921" height="5.762"/>
<rect x="22.759" y="127.519" fill="none" stroke="#000000" stroke-width="0.2835" stroke-miterlimit="10" width="1.921" height="5.762"/>
<rect x="26.359" y="144.979" fill="none" stroke="#000000" stroke-width="0.2835" stroke-miterlimit="10" width="1.92" height="5.762"/>
<rect x="29.959" y="144.979" fill="none" stroke="#000000" stroke-width="0.2835" stroke-miterlimit="10" width="1.92" height="5.762"/>
<rect x="26.359" y="127.519" fill="none" stroke="#000000" stroke-width="0.2835" stroke-miterlimit="10" width="1.92" height="5.762"/>
<rect x="29.959" y="127.519" fill="none" stroke="#000000" stroke-width="0.2835" stroke-miterlimit="10" width="1.92" height="5.762"/>
<rect x="33.559" y="144.979" fill="none" stroke="#000000" stroke-width="0.2835" stroke-miterlimit="10" width="1.92" height="5.762"/>
<rect x="33.559" y="127.519" fill="none" stroke="#000000" stroke-width="0.2835" stroke-miterlimit="10" width="1.92" height="5.762"/>
<rect x="37.159" y="144.979" fill="none" stroke="#000000" stroke-width="0.2835" stroke-miterlimit="10" width="1.92" height="5.762"/>
<rect x="37.159" y="127.519" fill="none" stroke="#000000" stroke-width="0.2835" stroke-miterlimit="10" width="1.92" height="5.762"/>
<rect x="40.759" y="144.979" fill="none" stroke="#000000" stroke-width="0.2835" stroke-miterlimit="10" width="1.921" height="5.762"/>
<rect x="44.359" y="144.979" fill="none" stroke="#000000" stroke-width="0.2835" stroke-miterlimit="10" width="1.92" height="5.762"/>
<rect x="40.759" y="127.519" fill="none" stroke="#000000" stroke-width="0.2835" stroke-miterlimit="10" width="1.921" height="5.762"/>
<rect x="44.359" y="127.519" fill="none" stroke="#000000" stroke-width="0.2835" stroke-miterlimit="10" width="1.92" height="5.762"/>
<rect x="47.959" y="144.979" fill="none" stroke="#000000" stroke-width="0.2835" stroke-miterlimit="10" width="1.92" height="5.762"/>
<rect x="47.959" y="127.519" fill="none" stroke="#000000" stroke-width="0.2835" stroke-miterlimit="10" width="1.92" height="5.762"/>
<rect x="211.519" y="101.54" fill="none" stroke="#000000" stroke-width="0.2835" stroke-miterlimit="10" width="3.479" height="6.359"/>
<rect x="218.119" y="101.54" fill="none" stroke="#000000" stroke-width="0.2835" stroke-miterlimit="10" width="3.48" height="6.359"/>
<rect x="224.659" y="101.54" fill="none" stroke="#000000" stroke-width="0.2835" stroke-miterlimit="10" width="3.48" height="6.359"/>
<rect x="214.759" y="84.079" fill="none" stroke="#000000" stroke-width="0.2835" stroke-miterlimit="10" width="10.199" height="6.239"/>
<rect x="121.579" y="101.54" fill="none" stroke="#000000" stroke-width="0.2835" stroke-miterlimit="10" width="3.48" height="6.359"/>
<rect x="128.119" y="101.54" fill="none" stroke="#000000" stroke-width="0.2835" stroke-miterlimit="10" width="3.48" height="6.359"/>
<rect x="134.659" y="101.54" fill="none" stroke="#000000" stroke-width="0.2835" stroke-miterlimit="10" width="3.48" height="6.359"/>
<rect x="124.759" y="84.079" fill="none" stroke="#000000" stroke-width="0.2835" stroke-miterlimit="10" width="10.2" height="6.239"/>
<rect x="31.639" y="101.54" fill="none" stroke="#000000" stroke-width="0.2835" stroke-miterlimit="10" width="3.479" height="6.359"/>
<rect x="38.179" y="101.54" fill="none" stroke="#000000" stroke-width="0.2835" stroke-miterlimit="10" width="3.479" height="6.359"/>
<rect x="44.719" y="101.54" fill="none" stroke="#000000" stroke-width="0.2835" stroke-miterlimit="10" width="3.479" height="6.359"/>
<rect x="34.819" y="84.079" fill="none" stroke="#000000" stroke-width="0.2835" stroke-miterlimit="10" width="10.2" height="6.239"/>
<rect x="254.838" y="144.5" fill="none" stroke="#000000" stroke-width="0.2835" stroke-miterlimit="10" width="1.921" height="6.24"/>
<rect x="258.439" y="144.5" fill="none" stroke="#000000" stroke-width="0.2835" stroke-miterlimit="10" width="1.92" height="6.24"/>
<rect x="262.039" y="144.5" fill="none" stroke="#000000" stroke-width="0.2835" stroke-miterlimit="10" width="1.92" height="6.24"/>
<rect x="265.639" y="144.5" fill="none" stroke="#000000" stroke-width="0.2835" stroke-miterlimit="10" width="1.92" height="6.24"/>
<rect x="254.838" y="127.519" fill="none" stroke="#000000" stroke-width="0.2835" stroke-miterlimit="10" width="1.921" height="6.24"/>
<rect x="258.439" y="127.519" fill="none" stroke="#000000" stroke-width="0.2835" stroke-miterlimit="10" width="1.92" height="6.24"/>
<rect x="262.039" y="127.519" fill="none" stroke="#000000" stroke-width="0.2835" stroke-miterlimit="10" width="1.92" height="6.24"/>
<rect x="276.439" y="127.519" fill="none" stroke="#000000" stroke-width="0.2835" stroke-miterlimit="10" width="1.92" height="6.24"/>
<rect x="269.239" y="144.5" fill="none" stroke="#000000" stroke-width="0.2835" stroke-miterlimit="10" width="1.92" height="6.24"/>
<rect x="272.838" y="144.5" fill="none" stroke="#000000" stroke-width="0.2835" stroke-miterlimit="10" width="1.921" height="6.24"/>
<rect x="276.439" y="144.5" fill="none" stroke="#000000" stroke-width="0.2835" stroke-miterlimit="10" width="1.92" height="6.24"/>
<rect x="272.838" y="127.519" fill="none" stroke="#000000" stroke-width="0.2835" stroke-miterlimit="10" width="1.921" height="6.24"/>
<rect x="269.239" y="127.519" fill="none" stroke="#000000" stroke-width="0.2835" stroke-miterlimit="10" width="1.92" height="6.24"/>
<rect x="265.639" y="127.519" fill="none" stroke="#000000" stroke-width="0.2835" stroke-miterlimit="10" width="1.92" height="6.24"/>
<rect x="202.699" y="144.979" fill="none" stroke="#000000" stroke-width="0.2835" stroke-miterlimit="10" width="1.92" height="5.762"/>
<rect x="202.699" y="127.519" fill="none" stroke="#000000" stroke-width="0.2835" stroke-miterlimit="10" width="1.92" height="5.762"/>
<rect x="206.299" y="144.979" fill="none" stroke="#000000" stroke-width="0.2835" stroke-miterlimit="10" width="1.92" height="5.762"/>
<rect x="209.899" y="144.979" fill="none" stroke="#000000" stroke-width="0.2835" stroke-miterlimit="10" width="1.92" height="5.762"/>
<rect x="206.299" y="127.519" fill="none" stroke="#000000" stroke-width="0.2835" stroke-miterlimit="10" width="1.92" height="5.762"/>
<rect x="209.899" y="127.519" fill="none" stroke="#000000" stroke-width="0.2835" stroke-miterlimit="10" width="1.92" height="5.762"/>
<rect x="213.499" y="144.979" fill="none" stroke="#000000" stroke-width="0.2835" stroke-miterlimit="10" width="1.92" height="5.762"/>
<rect x="213.499" y="127.519" fill="none" stroke="#000000" stroke-width="0.2835" stroke-miterlimit="10" width="1.92" height="5.762"/>
<rect x="217.099" y="144.979" fill="none" stroke="#000000" stroke-width="0.2835" stroke-miterlimit="10" width="1.92" height="5.762"/>
<rect x="217.099" y="127.519" fill="none" stroke="#000000" stroke-width="0.2835" stroke-miterlimit="10" width="1.92" height="5.762"/>
<rect x="220.699" y="144.979" fill="none" stroke="#000000" stroke-width="0.2835" stroke-miterlimit="10" width="1.92" height="5.762"/>
<rect x="224.299" y="144.979" fill="none" stroke="#000000" stroke-width="0.2835" stroke-miterlimit="10" width="1.92" height="5.762"/>
<rect x="220.699" y="127.519" fill="none" stroke="#000000" stroke-width="0.2835" stroke-miterlimit="10" width="1.92" height="5.762"/>
<rect x="224.299" y="127.519" fill="none" stroke="#000000" stroke-width="0.2835" stroke-miterlimit="10" width="1.92" height="5.762"/>
<rect x="227.899" y="144.979" fill="none" stroke="#000000" stroke-width="0.2835" stroke-miterlimit="10" width="1.92" height="5.762"/>
<rect x="227.899" y="127.519" fill="none" stroke="#000000" stroke-width="0.2835" stroke-miterlimit="10" width="1.92" height="5.762"/>
<rect x="163.099" y="144.5" fill="none" stroke="#000000" stroke-width="0.2835" stroke-miterlimit="10" width="1.92" height="6.24"/>
<rect x="166.699" y="144.5" fill="none" stroke="#000000" stroke-width="0.2835" stroke-miterlimit="10" width="1.92" height="6.24"/>
<rect x="170.299" y="144.5" fill="none" stroke="#000000" stroke-width="0.2835" stroke-miterlimit="10" width="1.92" height="6.24"/>
<rect x="173.899" y="144.5" fill="none" stroke="#000000" stroke-width="0.2835" stroke-miterlimit="10" width="1.92" height="6.24"/>
<rect x="163.099" y="127.519" fill="none" stroke="#000000" stroke-width="0.2835" stroke-miterlimit="10" width="1.92" height="6.24"/>
<rect x="166.699" y="127.519" fill="none" stroke="#000000" stroke-width="0.2835" stroke-miterlimit="10" width="1.92" height="6.24"/>
<rect x="170.299" y="127.519" fill="none" stroke="#000000" stroke-width="0.2835" stroke-miterlimit="10" width="1.92" height="6.24"/>
<rect x="184.699" y="127.519" fill="none" stroke="#000000" stroke-width="0.2835" stroke-miterlimit="10" width="1.92" height="6.24"/>
<rect x="177.499" y="144.5" fill="none" stroke="#000000" stroke-width="0.2835" stroke-miterlimit="10" width="1.92" height="6.24"/>
<rect x="181.099" y="144.5" fill="none" stroke="#000000" stroke-width="0.2835" stroke-miterlimit="10" width="1.92" height="6.24"/>
<rect x="184.699" y="144.5" fill="none" stroke="#000000" stroke-width="0.2835" stroke-miterlimit="10" width="1.92" height="6.24"/>
<rect x="181.099" y="127.519" fill="none" stroke="#000000" stroke-width="0.2835" stroke-miterlimit="10" width="1.92" height="6.24"/>
<rect x="177.499" y="127.519" fill="none" stroke="#000000" stroke-width="0.2835" stroke-miterlimit="10" width="1.92" height="6.24"/>
<rect x="173.899" y="127.519" fill="none" stroke="#000000" stroke-width="0.2835" stroke-miterlimit="10" width="1.92" height="6.24"/>
<rect x="112.699" y="144.979" fill="none" stroke="#000000" stroke-width="0.2835" stroke-miterlimit="10" width="1.92" height="5.762"/>
<rect x="112.699" y="127.519" fill="none" stroke="#000000" stroke-width="0.2835" stroke-miterlimit="10" width="1.92" height="5.762"/>
<rect x="116.299" y="144.979" fill="none" stroke="#000000" stroke-width="0.2835" stroke-miterlimit="10" width="1.921" height="5.762"/>
<rect x="119.899" y="144.979" fill="none" stroke="#000000" stroke-width="0.2835" stroke-miterlimit="10" width="1.92" height="5.762"/>
<rect x="116.299" y="127.519" fill="none" stroke="#000000" stroke-width="0.2835" stroke-miterlimit="10" width="1.921" height="5.762"/>
<rect x="119.899" y="127.519" fill="none" stroke="#000000" stroke-width="0.2835" stroke-miterlimit="10" width="1.92" height="5.762"/>
<rect x="123.499" y="144.979" fill="none" stroke="#000000" stroke-width="0.2835" stroke-miterlimit="10" width="1.92" height="5.762"/>
<rect x="123.499" y="127.519" fill="none" stroke="#000000" stroke-width="0.2835" stroke-miterlimit="10" width="1.92" height="5.762"/>
<rect x="127.099" y="144.979" fill="none" stroke="#000000" stroke-width="0.2835" stroke-miterlimit="10" width="1.92" height="5.762"/>
<rect x="127.099" y="127.519" fill="none" stroke="#000000" stroke-width="0.2835" stroke-miterlimit="10" width="1.92" height="5.762"/>
<rect x="130.699" y="144.979" fill="none" stroke="#000000" stroke-width="0.2835" stroke-miterlimit="10" width="1.92" height="5.762"/>
<rect x="134.299" y="144.979" fill="none" stroke="#000000" stroke-width="0.2835" stroke-miterlimit="10" width="1.92" height="5.762"/>
<rect x="130.699" y="127.519" fill="none" stroke="#000000" stroke-width="0.2835" stroke-miterlimit="10" width="1.92" height="5.762"/>
<rect x="134.299" y="127.519" fill="none" stroke="#000000" stroke-width="0.2835" stroke-miterlimit="10" width="1.92" height="5.762"/>
<rect x="137.899" y="144.979" fill="none" stroke="#000000" stroke-width="0.2835" stroke-miterlimit="10" width="1.92" height="5.762"/>
<rect x="137.899" y="127.519" fill="none" stroke="#000000" stroke-width="0.2835" stroke-miterlimit="10" width="1.92" height="5.762"/>
<rect x="73.159" y="144.5" fill="none" stroke="#000000" stroke-width="0.2835" stroke-miterlimit="10" width="1.92" height="6.24"/>
<rect x="76.759" y="144.5" fill="none" stroke="#000000" stroke-width="0.2835" stroke-miterlimit="10" width="1.921" height="6.24"/>
<rect x="80.359" y="144.5" fill="none" stroke="#000000" stroke-width="0.2835" stroke-miterlimit="10" width="1.92" height="6.24"/>
<rect x="83.899" y="144.5" fill="none" stroke="#000000" stroke-width="0.2835" stroke-miterlimit="10" width="1.92" height="6.24"/>
<rect x="73.159" y="127.519" fill="none" stroke="#000000" stroke-width="0.2835" stroke-miterlimit="10" width="1.92" height="6.24"/>
<rect x="76.759" y="127.519" fill="none" stroke="#000000" stroke-width="0.2835" stroke-miterlimit="10" width="1.921" height="6.24"/>
<rect x="80.359" y="127.519" fill="none" stroke="#000000" stroke-width="0.2835" stroke-miterlimit="10" width="1.92" height="6.24"/>
<rect x="94.699" y="127.519" fill="none" stroke="#000000" stroke-width="0.2835" stroke-miterlimit="10" width="1.92" height="6.24"/>
<rect x="87.499" y="144.5" fill="none" stroke="#000000" stroke-width="0.2835" stroke-miterlimit="10" width="1.92" height="6.24"/>
<rect x="91.099" y="144.5" fill="none" stroke="#000000" stroke-width="0.2835" stroke-miterlimit="10" width="1.92" height="6.24"/>
<rect x="94.699" y="144.5" fill="none" stroke="#000000" stroke-width="0.2835" stroke-miterlimit="10" width="1.92" height="6.24"/>
<rect x="91.099" y="127.519" fill="none" stroke="#000000" stroke-width="0.2835" stroke-miterlimit="10" width="1.92" height="6.24"/>
<rect x="87.499" y="127.519" fill="none" stroke="#000000" stroke-width="0.2835" stroke-miterlimit="10" width="1.92" height="6.24"/>
<rect x="83.899" y="127.519" fill="none" stroke="#000000" stroke-width="0.2835" stroke-miterlimit="10" width="1.92" height="6.24"/>
<rect x="236.119" y="172.819" fill="none" stroke="#000000" stroke-width="0.2835" stroke-miterlimit="10" width="3.36" height="3.36"/>
<rect x="236.119" y="166.879" fill="none" stroke="#000000" stroke-width="0.2835" stroke-miterlimit="10" width="3.36" height="3.36"/>
<rect x="250.519" y="172.819" fill="none" stroke="#000000" stroke-width="0.2835" stroke-miterlimit="10" width="3.358" height="3.36"/>
<rect x="250.519" y="166.879" fill="none" stroke="#000000" stroke-width="0.2835" stroke-miterlimit="10" width="3.358" height="3.36"/>
<rect x="146.179" y="172.819" fill="none" stroke="#000000" stroke-width="0.2835" stroke-miterlimit="10" width="3.359" height="3.36"/>
<rect x="146.179" y="166.879" fill="none" stroke="#000000" stroke-width="0.2835" stroke-miterlimit="10" width="3.359" height="3.36"/>
<rect x="160.579" y="172.819" fill="none" stroke="#000000" stroke-width="0.2835" stroke-miterlimit="10" width="3.36" height="3.36"/>
<rect x="160.579" y="166.879" fill="none" stroke="#000000" stroke-width="0.2835" stroke-miterlimit="10" width="3.36" height="3.36"/>
<rect x="56.239" y="172.819" fill="none" stroke="#000000" stroke-width="0.2835" stroke-miterlimit="10" width="3.36" height="3.36"/>
<rect x="56.239" y="166.879" fill="none" stroke="#000000" stroke-width="0.2835" stroke-miterlimit="10" width="3.36" height="3.36"/>
<rect x="70.639" y="172.819" fill="none" stroke="#000000" stroke-width="0.2835" stroke-miterlimit="10" width="3.359" height="3.36"/>
<rect x="70.639" y="166.879" fill="none" stroke="#000000" stroke-width="0.2835" stroke-miterlimit="10" width="3.359" height="3.36"/>
<rect x="62.839" y="66.199" fill="none" stroke="#000000" stroke-width="0.2835" stroke-miterlimit="10" width="4.561" height="3.72"/>
<rect x="62.839" y="71.599" fill="none" stroke="#000000" stroke-width="0.2835" stroke-miterlimit="10" width="4.561" height="3.72"/>
<rect x="145.579" y="186.74" fill="none" stroke="#000000" stroke-width="0.2835" stroke-miterlimit="10" width="4.561" height="3.72"/>
<rect x="145.579" y="181.339" fill="none" stroke="#000000" stroke-width="0.2835" stroke-miterlimit="10" width="4.561" height="3.72"/>
<rect x="159.979" y="186.74" fill="none" stroke="#000000" stroke-width="0.2835" stroke-miterlimit="10" width="4.56" height="3.72"/>
<rect x="159.979" y="181.339" fill="none" stroke="#000000" stroke-width="0.2835" stroke-miterlimit="10" width="4.56" height="3.72"/>
<rect x="64.159" y="100.879" fill="none" stroke="#000000" stroke-width="0.2835" stroke-miterlimit="10" width="3.72" height="4.56"/>
<rect x="69.499" y="100.879" fill="none" stroke="#000000" stroke-width="0.2835" stroke-miterlimit="10" width="3.721" height="4.56"/>
<rect x="55.639" y="186.74" fill="none" stroke="#000000" stroke-width="0.2835" stroke-miterlimit="10" width="4.56" height="3.72"/>
<rect x="55.639" y="181.339" fill="none" stroke="#000000" stroke-width="0.2835" stroke-miterlimit="10" width="4.56" height="3.72"/>
<rect x="70.039" y="186.74" fill="none" stroke="#000000" stroke-width="0.2835" stroke-miterlimit="10" width="4.561" height="3.72"/>
<rect x="70.039" y="181.339" fill="none" stroke="#000000" stroke-width="0.2835" stroke-miterlimit="10" width="4.561" height="3.72"/>
<rect x="62.839" y="32.059" fill="none" stroke="#000000" stroke-width="0.2835" stroke-miterlimit="10" width="4.561" height="3.72"/>
<rect x="62.839" y="26.659" fill="none" stroke="#000000" stroke-width="0.2835" stroke-miterlimit="10" width="4.561" height="3.72"/>
<rect x="76.699" y="54.079" fill="none" stroke="#000000" stroke-width="0.2835" stroke-miterlimit="10" width="3.72" height="4.56"/>
<rect x="71.359" y="54.079" fill="none" stroke="#000000" stroke-width="0.2835" stroke-miterlimit="10" width="3.72" height="4.56"/>
<rect x="244.099" y="100.879" fill="none" stroke="#000000" stroke-width="0.2835" stroke-miterlimit="10" width="3.72" height="4.56"/>
<rect x="249.439" y="100.879" fill="none" stroke="#000000" stroke-width="0.2835" stroke-miterlimit="10" width="3.72" height="4.56"/>
<rect x="235.519" y="186.74" fill="none" stroke="#000000" stroke-width="0.2835" stroke-miterlimit="10" width="4.56" height="3.72"/>
<rect x="235.519" y="181.339" fill="none" stroke="#000000" stroke-width="0.2835" stroke-miterlimit="10" width="4.56" height="3.72"/>
<rect x="249.918" y="186.74" fill="none" stroke="#000000" stroke-width="0.2835" stroke-miterlimit="10" width="4.562" height="3.72"/>
<rect x="249.918" y="181.339" fill="none" stroke="#000000" stroke-width="0.2835" stroke-miterlimit="10" width="4.562" height="3.72"/>
<rect x="55.639" y="32.059" fill="none" stroke="#000000" stroke-width="0.2835" stroke-miterlimit="10" width="4.56" height="3.72"/>
<rect x="55.639" y="26.659" fill="none" stroke="#000000" stroke-width="0.2835" stroke-miterlimit="10" width="4.56" height="3.72"/>
<rect x="55.639" y="66.199" fill="none" stroke="#000000" stroke-width="0.2835" stroke-miterlimit="10" width="4.56" height="3.72"/>
<rect x="55.639" y="71.599" fill="none" stroke="#000000" stroke-width="0.2835" stroke-miterlimit="10" width="4.56" height="3.72"/>
<rect x="154.099" y="100.879" fill="none" stroke="#000000" stroke-width="0.2835" stroke-miterlimit="10" width="3.72" height="4.56"/>
<rect x="159.499" y="100.879" fill="none" stroke="#000000" stroke-width="0.2835" stroke-miterlimit="10" width="3.722" height="4.56"/>
<rect x="66.139" y="41.24" fill="none" stroke="#000000" stroke-width="0.2835" stroke-miterlimit="10" width="1.56" height="4.8"/>
<rect x="62.539" y="41.24" fill="none" stroke="#000000" stroke-width="0.2835" stroke-miterlimit="10" width="1.561" height="4.8"/>
<rect x="58.939" y="41.24" fill="none" stroke="#000000" stroke-width="0.2835" stroke-miterlimit="10" width="1.56" height="4.8"/>
<rect x="55.339" y="41.24" fill="none" stroke="#000000" stroke-width="0.2835" stroke-miterlimit="10" width="1.561" height="4.8"/>
<rect x="55.339" y="55.939" fill="none" stroke="#000000" stroke-width="0.2835" stroke-miterlimit="10" width="1.561" height="4.801"/>
<rect x="58.939" y="55.939" fill="none" stroke="#000000" stroke-width="0.2835" stroke-miterlimit="10" width="1.56" height="4.801"/>
<rect x="62.539" y="55.939" fill="none" stroke="#000000" stroke-width="0.2835" stroke-miterlimit="10" width="1.561" height="4.801"/>
<rect x="66.139" y="55.939" fill="none" stroke="#000000" stroke-width="0.2835" stroke-miterlimit="10" width="1.56" height="4.801"/>
<rect x="124.279" y="21.319" fill="none" stroke="#000000" stroke-width="0.2835" stroke-miterlimit="10" width="2.4" height="19.801"/>
<rect x="120.019" y="21.319" fill="none" stroke="#000000" stroke-width="0.2835" stroke-miterlimit="10" width="2.399" height="19.801"/>
<rect x="115.759" y="21.319" fill="none" stroke="#000000" stroke-width="0.2835" stroke-miterlimit="10" width="2.4" height="19.801"/>
<rect x="111.499" y="21.319" fill="none" stroke="#000000" stroke-width="0.2835" stroke-miterlimit="10" width="2.4" height="19.801"/>
<rect x="206.539" y="165.2" fill="none" stroke="#000000" stroke-width="0.2835" stroke-miterlimit="10" width="2.4" height="19.8"/>
<rect x="210.799" y="165.2" fill="none" stroke="#000000" stroke-width="0.2835" stroke-miterlimit="10" width="2.399" height="19.8"/>
<rect x="215.059" y="165.2" fill="none" stroke="#000000" stroke-width="0.2835" stroke-miterlimit="10" width="2.398" height="19.8"/>
<rect x="219.259" y="165.2" fill="none" stroke="#000000" stroke-width="0.2835" stroke-miterlimit="10" width="2.399" height="19.8"/>
<rect x="223.519" y="165.2" fill="none" stroke="#000000" stroke-width="0.2835" stroke-miterlimit="10" width="2.398" height="19.8"/>
<rect x="15.619" y="59.599" fill="none" stroke="#000000" stroke-width="0.2835" stroke-miterlimit="10" width="19.8" height="2.4"/>
<rect x="15.619" y="63.859" fill="none" stroke="#000000" stroke-width="0.2835" stroke-miterlimit="10" width="19.8" height="2.4"/>
<rect x="15.619" y="68.119" fill="none" stroke="#000000" stroke-width="0.2835" stroke-miterlimit="10" width="19.8" height="2.399"/>
<rect x="15.619" y="72.379" fill="none" stroke="#000000" stroke-width="0.2835" stroke-miterlimit="10" width="19.8" height="2.399"/>
<rect x="116.599" y="165.2" fill="none" stroke="#000000" stroke-width="0.2835" stroke-miterlimit="10" width="2.399" height="19.8"/>
<rect x="120.799" y="165.2" fill="none" stroke="#000000" stroke-width="0.2835" stroke-miterlimit="10" width="2.4" height="19.8"/>
<rect x="125.059" y="165.2" fill="none" stroke="#000000" stroke-width="0.2835" stroke-miterlimit="10" width="2.399" height="19.8"/>
<rect x="129.319" y="165.2" fill="none" stroke="#000000" stroke-width="0.2835" stroke-miterlimit="10" width="2.399" height="19.8"/>
<rect x="133.579" y="165.2" fill="none" stroke="#000000" stroke-width="0.2835" stroke-miterlimit="10" width="2.4" height="19.8"/>
<rect x="26.599" y="165.2" fill="none" stroke="#000000" stroke-width="0.2835" stroke-miterlimit="10" width="2.399" height="19.8"/>
<rect x="30.859" y="165.2" fill="none" stroke="#000000" stroke-width="0.2835" stroke-miterlimit="10" width="2.399" height="19.8"/>
<rect x="35.119" y="165.2" fill="none" stroke="#000000" stroke-width="0.2835" stroke-miterlimit="10" width="2.4" height="19.8"/>
<rect x="39.379" y="165.2" fill="none" stroke="#000000" stroke-width="0.2835" stroke-miterlimit="10" width="2.4" height="19.8"/>
<rect x="43.579" y="165.2" fill="none" stroke="#000000" stroke-width="0.2835" stroke-miterlimit="10" width="2.4" height="19.8"/>
<rect x="268.579" y="27.259" fill="none" stroke="#000000" stroke-width="0.2835" stroke-miterlimit="10" width="6.84" height="7.92"/>
<rect x="236.239" y="27.259" fill="none" stroke="#000000" stroke-width="0.2835" stroke-miterlimit="10" width="6.84" height="7.92"/>
<rect x="268.579" y="44.54" fill="none" stroke="#000000" stroke-width="0.2835" stroke-miterlimit="10" width="6.84" height="7.92"/>
<rect x="236.239" y="44.54" fill="none" stroke="#000000" stroke-width="0.2835" stroke-miterlimit="10" width="6.84" height="7.92"/>
<rect x="260.418" y="73.279" fill="none" stroke="#000000" stroke-width="0.2835" stroke-miterlimit="10" width="5.16" height="2.881"/>
<rect x="260.418" y="65.359" fill="none" stroke="#000000" stroke-width="0.2835" stroke-miterlimit="10" width="5.16" height="2.881"/>
<rect x="246.499" y="75.079" fill="none" stroke="#000000" stroke-width="0.2835" stroke-miterlimit="10" width="4.2" height="5.04"/>
<rect x="246.499" y="61.459" fill="none" stroke="#000000" stroke-width="0.2835" stroke-miterlimit="10" width="4.2" height="5.04"/>
<rect x="75.379" y="30.979" fill="none" stroke="#000000" stroke-width="0.2835" stroke-miterlimit="10" width="2.521" height="2.28"/>
<rect x="75.379" y="36.379" fill="none" stroke="#000000" stroke-width="0.2835" stroke-miterlimit="10" width="2.521" height="2.28"/>
<rect x="81.319" y="33.679" fill="none" stroke="#000000" stroke-width="0.2835" stroke-miterlimit="10" width="2.52" height="2.28"/>
<rect x="71.359" y="43.339" fill="none" stroke="#000000" stroke-width="0.2835" stroke-miterlimit="10" width="3.72" height="4.56"/>
<rect x="76.699" y="43.339" fill="none" stroke="#000000" stroke-width="0.2835" stroke-miterlimit="10" width="3.72" height="4.56"/>
<rect x="75.439" y="71.599" fill="none" stroke="#000000" stroke-width="0.2835" stroke-miterlimit="10" width="4.56" height="3.72"/>
<rect x="75.439" y="66.199" fill="none" stroke="#000000" stroke-width="0.2835" stroke-miterlimit="10" width="4.56" height="3.72"/>
<rect x="15.619" y="30.799" fill="none" stroke="#000000" stroke-width="0.2835" stroke-miterlimit="10" width="19.8" height="2.4"/>
<rect x="15.619" y="35.059" fill="none" stroke="#000000" stroke-width="0.2835" stroke-miterlimit="10" width="19.8" height="2.4"/>
<rect x="15.619" y="39.319" fill="none" stroke="#000000" stroke-width="0.2835" stroke-miterlimit="10" width="19.8" height="2.4"/>
<rect x="15.619" y="43.579" fill="none" stroke="#000000" stroke-width="0.2835" stroke-miterlimit="10" width="19.8" height="2.399"/>
<line fill="none" stroke="#000000" stroke-width="0.2835" stroke-miterlimit="10" x1="7.519" y1="200.299" x2="290.899" y2="200.299"/>
<line fill="none" stroke="#000000" stroke-width="0.2835" stroke-miterlimit="10" x1="290.899" y1="200.299" x2="290.899" y2="13.219"/>
<line fill="none" stroke="#000000" stroke-width="0.2835" stroke-miterlimit="10" x1="290.899" y1="13.219" x2="7.519" y2="13.219"/>
<line fill="none" stroke="#000000" stroke-width="0.2835" stroke-miterlimit="10" x1="7.519" y1="13.219" x2="7.519" y2="200.299"/>
</svg>
