M48
;DRILL file {KiCad 4.0.5} date 10/24/17 15:29:27
;FORMAT={-:-/ absolute / inch / decimal}
FMAT,2
INCH,TZ
T1C0.016
T2C0.032
T3C0.047
T4C0.122
%
G90
G05
M72
T1
X6.2Y-3.7463
X6.4Y-2.51
X6.42Y-2.84
X6.43Y-2.78
X6.4459Y-3.2211
X6.45Y-3.26
X6.4924Y-2.5676
X6.5Y-3.26
X6.54Y-2.74
X6.548Y-3.052
X6.5754Y-2.87
X6.58Y-2.75
X6.5827Y-2.9502
X6.5893Y-3.2579
X6.59Y-3.3
X6.591Y-2.603
X6.6188Y-2.6654
X6.62Y-3.434
X6.631Y-2.978
X6.6771Y-2.6054
X6.7086Y-2.6055
X6.739Y-2.6134
X6.7471Y-3.0638
X6.7834Y-3.0024
X6.7912Y-3.037
X6.8146Y-3.0118
X6.824Y-3.242
X6.827Y-3.974
X6.8945Y-2.6613
X6.918Y-2.114
X6.92Y-3.1654
X6.932Y-2.541
X6.95Y-3.03
X6.956Y-2.746
X6.977Y-2.93
X6.98Y-2.01
X6.98Y-3.19
X6.9806Y-2.8577
X6.9817Y-2.7957
X6.9868Y-2.8268
X7.02Y-3.06
X7.0568Y-2.729
X7.06Y-2.501
X7.07Y-2.93
X7.0978Y-2.5882
X7.12Y-2.92
X7.14Y-2.83
X7.14Y-2.98
X7.169Y-2.16
X7.21Y-3.22
X7.22Y-3.7151
X7.25Y-3.02
X7.3561Y-3.1714
X7.4Y-3.25
X7.5Y-3.26
X7.512Y-3.616
X7.54Y-3.268
X7.5638Y-3.2465
X7.59Y-3.21
X7.613Y-2.148
X7.626Y-2.119
X7.642Y-1.935
X7.651Y-2.96
X7.709Y-3.086
X7.71Y-2.45
X7.73Y-2.53
X7.78Y-3.3016
X7.782Y-1.931
X7.833Y-1.915
X7.836Y-1.74
X7.839Y-3.086
X7.866Y-2.834
X7.921Y-2.693
X7.925Y-3.981
X7.933Y-1.916
X7.966Y-2.068
X7.97Y-2.023
X7.973Y-2.187
X8.24Y-3.7663
X8.302Y-1.828
X8.321Y-2.834
X8.33Y-2.97
X8.42Y-2.78
X8.5Y-3.16
X8.506Y-2.724
X8.51Y-2.87
X8.51Y-2.96
X8.532Y-3.618
X8.535Y-3.277
X8.5691Y-3.2708
X8.6Y-2.78
X8.61Y-3.25
X8.619Y-1.818
X8.803Y-3.985
T2
X6.34Y-2.14
X6.34Y-2.24
X6.34Y-2.34
X6.44Y-2.14
X6.44Y-2.24
X6.44Y-2.34
T3
X6.2Y-4.16
X6.3Y-4.16
X6.4Y-4.16
X6.5Y-4.16
X6.6Y-4.16
X7.22Y-4.16
X7.32Y-4.16
X7.42Y-4.16
X7.52Y-4.16
X7.62Y-4.16
X8.24Y-4.16
X8.34Y-4.16
X8.44Y-4.16
X8.54Y-4.16
X8.64Y-4.16
T4
X6.2Y-1.8
X7.018Y-3.825
X8.25Y-2.3
X8.9Y-4.1
T0
M30
