G04 #@! TF.FileFunction,Copper,L1,Top,Signal*
%FSLAX46Y46*%
G04 Gerber Fmt 4.6, Leading zero omitted, Abs format (unit mm)*
G04 Created by KiCad (PCBNEW 4.0.5) date 10/24/17 15:29:36*
%MOMM*%
%LPD*%
G01*
G04 APERTURE LIST*
%ADD10C,0.100000*%
%ADD11C,4.000000*%
%ADD12R,2.300000X2.500000*%
%ADD13R,1.500000X2.400000*%
%ADD14R,0.500000X2.300000*%
%ADD15R,2.000000X2.500000*%
%ADD16R,1.250000X1.000000*%
%ADD17R,1.000000X1.250000*%
%ADD18R,1.524000X1.524000*%
%ADD19C,1.524000*%
%ADD20R,3.000000X2.000000*%
%ADD21R,2.000000X2.600000*%
%ADD22O,2.000000X2.600000*%
%ADD23R,1.300000X0.700000*%
%ADD24R,0.700000X1.300000*%
%ADD25R,0.900000X0.900000*%
%ADD26R,0.900000X0.500000*%
%ADD27R,0.250000X0.700000*%
%ADD28R,0.700000X0.250000*%
%ADD29R,1.287500X1.287500*%
%ADD30R,2.000000X3.800000*%
%ADD31R,2.000000X1.500000*%
%ADD32R,0.300000X1.600000*%
%ADD33R,5.000000X3.400000*%
%ADD34R,1.600000X0.500000*%
%ADD35R,2.540000X1.270000*%
%ADD36R,1.650000X3.430000*%
%ADD37R,1.700000X2.100000*%
%ADD38R,2.500000X1.800000*%
%ADD39R,1.700000X0.900000*%
%ADD40R,1.600000X0.300000*%
%ADD41R,3.400000X5.000000*%
%ADD42C,0.600000*%
%ADD43C,0.250000*%
%ADD44C,0.500000*%
%ADD45C,0.254000*%
G04 APERTURE END LIST*
D10*
D11*
X209550000Y-58420000D03*
X178257200Y-97155000D03*
X226060000Y-104140000D03*
D12*
X199390000Y-59690000D03*
X199390000Y-63990000D03*
D13*
X193250000Y-62992000D03*
X187750000Y-62992000D03*
D14*
X176352000Y-49028000D03*
X175552000Y-49028000D03*
X174752000Y-49028000D03*
X173952000Y-49028000D03*
X173152000Y-49028000D03*
D15*
X179202000Y-48928000D03*
X179202000Y-43428000D03*
X170302000Y-48928000D03*
X170302000Y-43428000D03*
D16*
X197104000Y-47466000D03*
X197104000Y-45466000D03*
D17*
X163052000Y-77724000D03*
X161052000Y-77724000D03*
X161052000Y-66548000D03*
X163052000Y-66548000D03*
X169958000Y-64770000D03*
X171958000Y-64770000D03*
X212836000Y-50292000D03*
X210836000Y-50292000D03*
D16*
X203708000Y-52816000D03*
X203708000Y-50816000D03*
D17*
X192548000Y-56896000D03*
X194548000Y-56896000D03*
X212836000Y-47752000D03*
X210836000Y-47752000D03*
D16*
X205740000Y-52816000D03*
X205740000Y-50816000D03*
D17*
X172212000Y-78994000D03*
X174212000Y-78994000D03*
D18*
X161036000Y-54356000D03*
D19*
X161036000Y-56896000D03*
X161036000Y-59436000D03*
X163576000Y-59436000D03*
X163576000Y-56896000D03*
X163576000Y-54356000D03*
D20*
X226488000Y-43608000D03*
X226488000Y-49608000D03*
X216488000Y-49608000D03*
X216488000Y-43608000D03*
D16*
X170180000Y-51832000D03*
X170180000Y-53832000D03*
D21*
X157480000Y-105664000D03*
D22*
X160020000Y-105664000D03*
X162560000Y-105664000D03*
X165100000Y-105664000D03*
X167640000Y-105664000D03*
D21*
X183388000Y-105664000D03*
D22*
X185928000Y-105664000D03*
X188468000Y-105664000D03*
X191008000Y-105664000D03*
X193548000Y-105664000D03*
D21*
X209296000Y-105664000D03*
D22*
X211836000Y-105664000D03*
X214376000Y-105664000D03*
X216916000Y-105664000D03*
X219456000Y-105664000D03*
D23*
X195072000Y-45466000D03*
X195072000Y-47366000D03*
X172720000Y-54930000D03*
X172720000Y-56830000D03*
X176276000Y-54930000D03*
X176276000Y-56830000D03*
D24*
X168082000Y-64262000D03*
X166182000Y-64262000D03*
D23*
X192024000Y-51242000D03*
X192024000Y-49342000D03*
X192024000Y-54798000D03*
X192024000Y-52898000D03*
X201168000Y-47366000D03*
X201168000Y-45466000D03*
X199136000Y-45466000D03*
X199136000Y-47366000D03*
D24*
X168402000Y-78994000D03*
X170302000Y-78994000D03*
D23*
X166116000Y-68702000D03*
X166116000Y-66802000D03*
X159004000Y-97602000D03*
X159004000Y-99502000D03*
X162052000Y-97602000D03*
X162052000Y-99502000D03*
X165100000Y-97602000D03*
X165100000Y-99502000D03*
X168148000Y-97602000D03*
X168148000Y-99502000D03*
X184912000Y-97602000D03*
X184912000Y-99502000D03*
X188468000Y-97602000D03*
X188468000Y-99502000D03*
X192024000Y-97602000D03*
X192024000Y-99502000D03*
X195580000Y-97602000D03*
X195580000Y-99502000D03*
X210820000Y-97602000D03*
X210820000Y-99502000D03*
X214376000Y-97602000D03*
X214376000Y-99502000D03*
X217932000Y-97602000D03*
X217932000Y-99502000D03*
X221488000Y-97602000D03*
X221488000Y-99502000D03*
X178816000Y-73594000D03*
X178816000Y-71694000D03*
D25*
X189000000Y-73692000D03*
X189000000Y-77692000D03*
X189000000Y-75032000D03*
X189000000Y-76352000D03*
X192000000Y-75032000D03*
X192000000Y-73692000D03*
X192000000Y-77692000D03*
X192000000Y-76352000D03*
D26*
X175768000Y-51066000D03*
X175768000Y-52566000D03*
D27*
X174712000Y-68228000D03*
X174212000Y-68228000D03*
X173712000Y-68228000D03*
X173212000Y-68228000D03*
X172712000Y-68228000D03*
X172212000Y-68228000D03*
X171712000Y-68228000D03*
X171212000Y-68228000D03*
X170712000Y-68228000D03*
X170212000Y-68228000D03*
X169712000Y-68228000D03*
D28*
X168812000Y-69128000D03*
X168812000Y-69628000D03*
X168812000Y-70128000D03*
X168812000Y-70628000D03*
X168812000Y-71128000D03*
X168812000Y-71628000D03*
X168812000Y-72128000D03*
X168812000Y-72628000D03*
X168812000Y-73128000D03*
X168812000Y-73628000D03*
X168812000Y-74128000D03*
D27*
X169712000Y-75028000D03*
X170212000Y-75028000D03*
X170712000Y-75028000D03*
X171212000Y-75028000D03*
X171712000Y-75028000D03*
X172212000Y-75028000D03*
X172712000Y-75028000D03*
X173212000Y-75028000D03*
X173712000Y-75028000D03*
X174212000Y-75028000D03*
X174712000Y-75028000D03*
D28*
X175612000Y-74128000D03*
X175612000Y-73628000D03*
X175612000Y-73128000D03*
X175612000Y-72628000D03*
X175612000Y-72128000D03*
X175612000Y-71628000D03*
X175612000Y-71128000D03*
X175612000Y-70628000D03*
X175612000Y-70128000D03*
X175612000Y-69628000D03*
X175612000Y-69128000D03*
D29*
X170280750Y-73559250D03*
X171568250Y-73559250D03*
X172855750Y-73559250D03*
X174143250Y-73559250D03*
X170280750Y-72271750D03*
X171568250Y-72271750D03*
X172855750Y-72271750D03*
X174143250Y-72271750D03*
X170280750Y-70984250D03*
X171568250Y-70984250D03*
X172855750Y-70984250D03*
X174143250Y-70984250D03*
X170280750Y-69696750D03*
X171568250Y-69696750D03*
X172855750Y-69696750D03*
X174143250Y-69696750D03*
D30*
X185724800Y-56286400D03*
D31*
X179424800Y-56286400D03*
X179424800Y-58586400D03*
X179424800Y-53986400D03*
D32*
X161809000Y-84576000D03*
X161809000Y-90176000D03*
X162459000Y-84576000D03*
X162459000Y-90176000D03*
X163109000Y-84576000D03*
X163109000Y-90176000D03*
X163759000Y-84576000D03*
X163759000Y-90176000D03*
X164409000Y-84576000D03*
X164409000Y-90176000D03*
X165059000Y-84576000D03*
X165059000Y-90176000D03*
X165709000Y-84576000D03*
X165709000Y-90176000D03*
X166359000Y-84576000D03*
X166359000Y-90176000D03*
D33*
X164084000Y-87376000D03*
D32*
X188225000Y-84576000D03*
X188225000Y-90176000D03*
X188875000Y-84576000D03*
X188875000Y-90176000D03*
X189525000Y-84576000D03*
X189525000Y-90176000D03*
X190175000Y-84576000D03*
X190175000Y-90176000D03*
X190825000Y-84576000D03*
X190825000Y-90176000D03*
X191475000Y-84576000D03*
X191475000Y-90176000D03*
X192125000Y-84576000D03*
X192125000Y-90176000D03*
X192775000Y-84576000D03*
X192775000Y-90176000D03*
D33*
X190500000Y-87376000D03*
D32*
X214133000Y-84576000D03*
X214133000Y-90176000D03*
X214783000Y-84576000D03*
X214783000Y-90176000D03*
X215433000Y-84576000D03*
X215433000Y-90176000D03*
X216083000Y-84576000D03*
X216083000Y-90176000D03*
X216733000Y-84576000D03*
X216733000Y-90176000D03*
X217383000Y-84576000D03*
X217383000Y-90176000D03*
X218033000Y-84576000D03*
X218033000Y-90176000D03*
X218683000Y-84576000D03*
X218683000Y-90176000D03*
D33*
X216408000Y-87376000D03*
D34*
X185879000Y-76592000D03*
X185879000Y-75692000D03*
X185879000Y-74792000D03*
X182929000Y-74792000D03*
X182929000Y-75692000D03*
X182929000Y-76592000D03*
D35*
X225426000Y-69136000D03*
X225426000Y-72136000D03*
X225426000Y-75136000D03*
X218566000Y-75136000D03*
X218566000Y-72136000D03*
X218566000Y-69136000D03*
D36*
X221996000Y-79021000D03*
X221996000Y-65251000D03*
D35*
X206882000Y-75136000D03*
X206882000Y-72136000D03*
X206882000Y-69136000D03*
X213742000Y-69136000D03*
X213742000Y-72136000D03*
X213742000Y-75136000D03*
D36*
X210312000Y-65251000D03*
X210312000Y-79021000D03*
D37*
X163402000Y-75086000D03*
X163402000Y-69186000D03*
X160702000Y-69186000D03*
X160702000Y-75086000D03*
D17*
X188960000Y-68072000D03*
X186960000Y-68072000D03*
D16*
X184912000Y-64024000D03*
X184912000Y-66024000D03*
D24*
X193990000Y-68072000D03*
X192090000Y-68072000D03*
D38*
X217456000Y-58420000D03*
X221456000Y-58420000D03*
D39*
X226060000Y-59870000D03*
X226060000Y-56970000D03*
D40*
X200920000Y-50557000D03*
X195320000Y-50557000D03*
X200920000Y-51207000D03*
X195320000Y-51207000D03*
X200920000Y-51857000D03*
X195320000Y-51857000D03*
X200920000Y-52507000D03*
X195320000Y-52507000D03*
X200920000Y-53157000D03*
X195320000Y-53157000D03*
X200920000Y-53807000D03*
X195320000Y-53807000D03*
X200920000Y-54457000D03*
X195320000Y-54457000D03*
X200920000Y-55107000D03*
X195320000Y-55107000D03*
D41*
X198120000Y-52832000D03*
D26*
X173736000Y-51066000D03*
X173736000Y-52566000D03*
D11*
X157480000Y-45720000D03*
D42*
X193370200Y-54559200D03*
X194106800Y-49149000D03*
X199034400Y-44196000D03*
X198958200Y-48641000D03*
X216712800Y-91897200D03*
X190804800Y-91846400D03*
X210870800Y-46431200D03*
X218922600Y-46177200D03*
X199796400Y-71983600D03*
X175717198Y-53695600D03*
X182092600Y-54864000D03*
X168148000Y-87223600D03*
X173329600Y-82346800D03*
X194335400Y-75184000D03*
X163322000Y-70612000D03*
X163068000Y-72136000D03*
X179578000Y-74422000D03*
X180848000Y-74168000D03*
X196342000Y-64262000D03*
X195834000Y-62230000D03*
X202438000Y-51384200D03*
X193700400Y-53822600D03*
X176682400Y-69748400D03*
X177215800Y-74422000D03*
X167411400Y-66116200D03*
X167201573Y-74936286D03*
X176072800Y-64541400D03*
X179324000Y-63525400D03*
X167132000Y-69850000D03*
X170397357Y-66178572D03*
X162560000Y-63754000D03*
X169597346Y-66177985D03*
X164906949Y-65217051D03*
X197612000Y-83860810D03*
X157480000Y-95155000D03*
X183388000Y-94363000D03*
X209296000Y-95663000D03*
X171171555Y-66380156D03*
X179242698Y-69316600D03*
X201193400Y-68402200D03*
X177292000Y-51054000D03*
X201498200Y-48666400D03*
X197662800Y-49047400D03*
X211353400Y-71983600D03*
X166319200Y-77520800D03*
X218440000Y-70612000D03*
X213868000Y-70612000D03*
X168427400Y-75641200D03*
X216052400Y-69189600D03*
X167014990Y-72898000D03*
X166116000Y-69596000D03*
X216154000Y-75184000D03*
X216154000Y-72898000D03*
X175121505Y-67598203D03*
X163830000Y-82804000D03*
X168118671Y-67700810D03*
X180283711Y-65739380D03*
X181356000Y-71882000D03*
X215900000Y-80264000D03*
X171376011Y-77819698D03*
X167368131Y-82750767D03*
X192786000Y-81534000D03*
X218694000Y-82550000D03*
X195808600Y-78384400D03*
X199110600Y-78384400D03*
X217655254Y-83079353D03*
X192119580Y-82462030D03*
X172496482Y-77138711D03*
X175768000Y-80400990D03*
X172299309Y-76259989D03*
X163725318Y-81815418D03*
X173090419Y-76498562D03*
X186845234Y-80553595D03*
X183134000Y-81788000D03*
X178308000Y-77724000D03*
X216789000Y-83235800D03*
X191516000Y-83007200D03*
X190500000Y-82804000D03*
X187960000Y-82550000D03*
X165100000Y-82804000D03*
X167386000Y-83820000D03*
X177292000Y-81026000D03*
X176530000Y-76962000D03*
X177307410Y-72585185D03*
X181356000Y-75692000D03*
X177465424Y-71800933D03*
X184150000Y-76708000D03*
X177336274Y-71011415D03*
X211582000Y-75438000D03*
X173405800Y-100939600D03*
X201295000Y-101117400D03*
X223596200Y-101219000D03*
X202336400Y-52527200D03*
X202514200Y-55549800D03*
D43*
X193370200Y-54559200D02*
X195217800Y-54559200D01*
X195217800Y-54559200D02*
X195320000Y-54457000D01*
X194335400Y-49377600D02*
X194106800Y-49149000D01*
X194194999Y-50250001D02*
X195067400Y-49377600D01*
X195067400Y-49377600D02*
X196979000Y-47466000D01*
X195067400Y-49377600D02*
X194335400Y-49377600D01*
X194194999Y-51131999D02*
X194194999Y-50250001D01*
X194270000Y-51207000D02*
X194194999Y-51131999D01*
X195320000Y-51207000D02*
X194270000Y-51207000D01*
X196979000Y-47466000D02*
X197104000Y-47466000D01*
X195320000Y-51207000D02*
X195173000Y-51207000D01*
X194270000Y-55507000D02*
X194670000Y-55107000D01*
X192324000Y-54798000D02*
X193033000Y-55507000D01*
X192024000Y-54798000D02*
X192324000Y-54798000D01*
X193033000Y-55507000D02*
X194270000Y-55507000D01*
X199034400Y-44196000D02*
X199458664Y-44196000D01*
X199458664Y-44196000D02*
X200053663Y-44790999D01*
X200053663Y-44790999D02*
X200111001Y-44790999D01*
X198120000Y-52832000D02*
X198120000Y-49479200D01*
X198120000Y-49479200D02*
X198958200Y-48641000D01*
X195320000Y-55107000D02*
X194998010Y-55107000D01*
X194998010Y-55107000D02*
X194998010Y-55042600D01*
X200920000Y-51207000D02*
X199745000Y-51207000D01*
X199745000Y-51207000D02*
X198120000Y-52832000D01*
X195320000Y-55107000D02*
X196370000Y-55107000D01*
X196370000Y-55107000D02*
X198120000Y-53357000D01*
X198120000Y-53357000D02*
X198120000Y-52832000D01*
X172712000Y-68228000D02*
X172712000Y-65524000D01*
X172712000Y-65524000D02*
X171958000Y-64770000D01*
X216712800Y-91897200D02*
X216712800Y-90196200D01*
X216712800Y-90196200D02*
X216733000Y-90176000D01*
X190825000Y-90176000D02*
X190825000Y-91826200D01*
X190825000Y-91826200D02*
X190804800Y-91846400D01*
X210870800Y-46431200D02*
X210870800Y-47717200D01*
X210870800Y-47717200D02*
X210836000Y-47752000D01*
X226488000Y-49608000D02*
X225988000Y-49608000D01*
X225988000Y-49608000D02*
X222557200Y-46177200D01*
X222557200Y-46177200D02*
X218922600Y-46177200D01*
X226488000Y-43608000D02*
X226488000Y-49608000D01*
X228904800Y-61614800D02*
X228904800Y-69292200D01*
X228904800Y-69292200D02*
X226061000Y-72136000D01*
X226061000Y-72136000D02*
X225426000Y-72136000D01*
X226060000Y-59870000D02*
X227160000Y-59870000D01*
X227160000Y-59870000D02*
X228904800Y-61614800D01*
X176244198Y-73660198D02*
X176212000Y-73628000D01*
X177916000Y-73594000D02*
X177849802Y-73660198D01*
X177849802Y-73660198D02*
X176244198Y-73660198D01*
X176212000Y-73628000D02*
X175612000Y-73628000D01*
X178816000Y-73594000D02*
X177916000Y-73594000D01*
X199644000Y-69494000D02*
X199796400Y-69646400D01*
X199796400Y-69646400D02*
X199796400Y-71983600D01*
X175768000Y-52566000D02*
X175768000Y-53644798D01*
X175768000Y-53644798D02*
X175717198Y-53695600D01*
X179424800Y-56286400D02*
X179674800Y-56286400D01*
X179674800Y-56286400D02*
X181097200Y-54864000D01*
X181097200Y-54864000D02*
X182092600Y-54864000D01*
X185724800Y-56286400D02*
X179424800Y-56286400D01*
X168148000Y-87223600D02*
X164236400Y-87223600D01*
X164236400Y-87223600D02*
X164084000Y-87376000D01*
X174212000Y-78994000D02*
X174212000Y-81464400D01*
X174212000Y-81464400D02*
X173329600Y-82346800D01*
X164409000Y-84576000D02*
X164409000Y-87051000D01*
X164409000Y-87051000D02*
X164084000Y-87376000D01*
X192000000Y-73692000D02*
X192000000Y-72992000D01*
X192000000Y-72992000D02*
X187080000Y-68072000D01*
X187080000Y-68072000D02*
X186960000Y-68072000D01*
X192000000Y-75032000D02*
X192000000Y-76352000D01*
X192000000Y-73692000D02*
X192000000Y-75032000D01*
X192000000Y-77692000D02*
X192000000Y-76352000D01*
X194335400Y-75184000D02*
X192152000Y-75184000D01*
X192152000Y-75184000D02*
X192000000Y-75032000D01*
X226488000Y-49608000D02*
X226988000Y-49608000D01*
X226988000Y-49608000D02*
X227235001Y-49855001D01*
X227235001Y-49855001D02*
X227235001Y-57994999D01*
X227235001Y-57994999D02*
X226060000Y-59170000D01*
X226060000Y-59170000D02*
X226060000Y-59870000D01*
X170180000Y-53832000D02*
X170180000Y-62992000D01*
X170180000Y-62992000D02*
X171083000Y-63895000D01*
X171083000Y-63895000D02*
X171208000Y-63895000D01*
X171208000Y-63895000D02*
X171958000Y-64645000D01*
X171958000Y-64645000D02*
X171958000Y-64770000D01*
X173736000Y-52566000D02*
X173736000Y-55499002D01*
X173736000Y-55499002D02*
X173630001Y-55605001D01*
X171203001Y-55605001D02*
X170180000Y-54582000D01*
X173630001Y-55605001D02*
X171203001Y-55605001D01*
X170180000Y-54582000D02*
X170180000Y-53832000D01*
X173736000Y-52566000D02*
X175768000Y-52566000D01*
X163322000Y-70612000D02*
X163322000Y-69266000D01*
X163322000Y-69266000D02*
X163402000Y-69186000D01*
X160702000Y-75086000D02*
X160702000Y-74886000D01*
X160702000Y-74886000D02*
X163068000Y-72520000D01*
X163068000Y-72520000D02*
X163068000Y-72136000D01*
X179578000Y-74422000D02*
X179578000Y-74356000D01*
X179578000Y-74356000D02*
X178816000Y-73594000D01*
X184912000Y-66024000D02*
X184912000Y-70104000D01*
X184912000Y-70104000D02*
X180848000Y-74168000D01*
X174143250Y-73559250D02*
X174212000Y-73628000D01*
X174212000Y-73628000D02*
X175612000Y-73628000D01*
X170280750Y-73559250D02*
X169712000Y-74128000D01*
X169712000Y-74128000D02*
X169712000Y-75028000D01*
X170280750Y-70984250D02*
X169924500Y-70628000D01*
X169924500Y-70628000D02*
X168812000Y-70628000D01*
X171568250Y-72271750D02*
X170280750Y-72271750D01*
X170280750Y-70984250D02*
X171568250Y-70984250D01*
X170280750Y-69696750D02*
X170280750Y-70984250D01*
X171568250Y-69696750D02*
X170280750Y-69696750D01*
X172855750Y-69696750D02*
X171568250Y-69696750D01*
X172855750Y-69696750D02*
X172712000Y-69553000D01*
X172712000Y-69553000D02*
X172712000Y-68228000D01*
X175137750Y-69596000D02*
X175580000Y-69596000D01*
X175580000Y-69596000D02*
X175612000Y-69628000D01*
X174143250Y-69696750D02*
X175037000Y-69696750D01*
X175037000Y-69696750D02*
X175137750Y-69596000D01*
X174143250Y-69696750D02*
X172855750Y-69696750D01*
X174143250Y-70984250D02*
X174143250Y-69696750D01*
X172855750Y-70984250D02*
X174143250Y-70984250D01*
X172855750Y-72271750D02*
X172855750Y-70984250D01*
X174143250Y-73559250D02*
X174143250Y-72271750D01*
X172855750Y-73559250D02*
X174143250Y-73559250D01*
X172855750Y-73559250D02*
X172855750Y-72271750D01*
X171568250Y-73559250D02*
X171568250Y-72271750D01*
X171568250Y-73559250D02*
X172855750Y-73559250D01*
X170280750Y-73559250D02*
X171568250Y-73559250D01*
X196342000Y-64262000D02*
X199118000Y-64262000D01*
X199118000Y-64262000D02*
X199390000Y-63990000D01*
X192024000Y-54798000D02*
X191724000Y-54798000D01*
X191724000Y-54798000D02*
X191124000Y-55398000D01*
X191124000Y-55398000D02*
X191124000Y-57520000D01*
X191124000Y-57520000D02*
X195834000Y-62230000D01*
X199136000Y-45466000D02*
X199436000Y-45466000D01*
X199436000Y-45466000D02*
X200111001Y-44790999D01*
X200111001Y-44790999D02*
X207124999Y-44790999D01*
X207124999Y-44790999D02*
X210086000Y-47752000D01*
X210086000Y-47752000D02*
X210836000Y-47752000D01*
X164409000Y-83526000D02*
X164409000Y-84576000D01*
X164455001Y-83479999D02*
X164409000Y-83526000D01*
X161052000Y-77724000D02*
X161052000Y-77849000D01*
X161052000Y-77849000D02*
X164455001Y-81252001D01*
X164455001Y-81252001D02*
X164455001Y-83479999D01*
X163576000Y-54356000D02*
X169656000Y-54356000D01*
X169656000Y-54356000D02*
X170180000Y-53832000D01*
X168812000Y-70628000D02*
X164644000Y-70628000D01*
X164644000Y-70628000D02*
X163402000Y-69386000D01*
X163402000Y-69386000D02*
X163402000Y-69186000D01*
X225426000Y-75136000D02*
X225426000Y-72136000D01*
X206882000Y-69136000D02*
X206882000Y-72136000D01*
X199644000Y-69494000D02*
X206524000Y-69494000D01*
X206524000Y-69494000D02*
X206882000Y-69136000D01*
X199390000Y-63990000D02*
X199390000Y-69240000D01*
X199390000Y-69240000D02*
X199644000Y-69494000D01*
X199136000Y-45466000D02*
X197104000Y-45466000D01*
X199136000Y-45466000D02*
X195072000Y-45466000D01*
X184912000Y-66024000D02*
X185037000Y-66024000D01*
X185037000Y-66024000D02*
X186960000Y-67947000D01*
X186960000Y-67947000D02*
X186960000Y-68072000D01*
X210836000Y-50292000D02*
X210836000Y-50417000D01*
X210836000Y-47752000D02*
X210836000Y-50292000D01*
X225426000Y-75136000D02*
X225426000Y-81108000D01*
X225426000Y-81108000D02*
X219158000Y-87376000D01*
X219158000Y-87376000D02*
X216408000Y-87376000D01*
X163052000Y-66548000D02*
X163052000Y-68836000D01*
X163052000Y-68836000D02*
X163402000Y-69186000D01*
X161052000Y-77724000D02*
X161052000Y-75436000D01*
X161052000Y-75436000D02*
X160702000Y-75086000D01*
X164409000Y-90176000D02*
X164409000Y-87701000D01*
X164409000Y-87701000D02*
X164084000Y-87376000D01*
X190825000Y-90176000D02*
X190825000Y-87701000D01*
X190825000Y-87701000D02*
X190500000Y-87376000D01*
X190825000Y-84576000D02*
X190825000Y-87051000D01*
X190825000Y-87051000D02*
X190500000Y-87376000D01*
X216733000Y-84576000D02*
X216733000Y-87051000D01*
X216733000Y-87051000D02*
X216408000Y-87376000D01*
X216733000Y-90176000D02*
X216733000Y-89126000D01*
X216733000Y-89126000D02*
X216408000Y-88801000D01*
X216408000Y-88801000D02*
X216408000Y-87376000D01*
X194670000Y-55107000D02*
X195320000Y-55107000D01*
X163402000Y-75086000D02*
X163402000Y-73786000D01*
X163402000Y-73786000D02*
X165560000Y-71628000D01*
X165560000Y-71628000D02*
X168812000Y-71628000D01*
X163402000Y-75086000D02*
X163402000Y-77374000D01*
X163402000Y-77374000D02*
X163052000Y-77724000D01*
X163731002Y-71128000D02*
X168812000Y-71128000D01*
X163622001Y-71237001D02*
X163731002Y-71128000D01*
X162553001Y-71237001D02*
X163622001Y-71237001D01*
X160702000Y-69386000D02*
X162553001Y-71237001D01*
X160702000Y-69186000D02*
X160702000Y-69386000D01*
X160702000Y-69186000D02*
X160702000Y-66898000D01*
X160702000Y-66898000D02*
X161052000Y-66548000D01*
X172212000Y-68228000D02*
X172212000Y-66424010D01*
X170908001Y-65720001D02*
X169958000Y-64770000D01*
X172212000Y-66424010D02*
X171507991Y-65720001D01*
X171507991Y-65720001D02*
X170908001Y-65720001D01*
X202438000Y-51384200D02*
X202438000Y-51546000D01*
X202438000Y-51546000D02*
X203708000Y-52816000D01*
X195320000Y-53807000D02*
X193716000Y-53807000D01*
X193716000Y-53807000D02*
X193700400Y-53822600D01*
X203708000Y-52816000D02*
X205740000Y-52816000D01*
X202833000Y-50816000D02*
X203708000Y-50816000D01*
X201308401Y-49291401D02*
X202833000Y-50816000D01*
X201061401Y-49291401D02*
X201308401Y-49291401D01*
X200036000Y-48266000D02*
X201061401Y-49291401D01*
X200036000Y-47966000D02*
X200036000Y-48266000D01*
X199436000Y-47366000D02*
X200036000Y-47966000D01*
X199136000Y-47366000D02*
X199436000Y-47366000D01*
X203708000Y-50816000D02*
X205740000Y-50816000D01*
X194548000Y-56896000D02*
X199531000Y-56896000D01*
X199531000Y-56896000D02*
X200920000Y-55507000D01*
X200920000Y-55507000D02*
X200920000Y-55107000D01*
X176682400Y-69748400D02*
X176682400Y-69324136D01*
X176682400Y-69324136D02*
X176212000Y-68853736D01*
X176212000Y-68853736D02*
X176212000Y-66966600D01*
X175612000Y-74128000D02*
X176921800Y-74128000D01*
X176921800Y-74128000D02*
X177215800Y-74422000D01*
X167411400Y-66116200D02*
X166801800Y-66116200D01*
X166801800Y-66116200D02*
X166116000Y-66802000D01*
X167091001Y-69103415D02*
X167091001Y-68213126D01*
X175246706Y-66548000D02*
X175793400Y-66548000D01*
X174212000Y-67582706D02*
X175246706Y-66548000D01*
X167091001Y-68213126D02*
X166116000Y-67238125D01*
X174212000Y-68228000D02*
X174212000Y-67582706D01*
X168115587Y-70128000D02*
X167091001Y-69103415D01*
X168812000Y-70128000D02*
X168115587Y-70128000D01*
X166116000Y-67238125D02*
X166116000Y-66802000D01*
X161036000Y-56896000D02*
X162123001Y-57983001D01*
X163731763Y-57983001D02*
X166182000Y-60433238D01*
X166182000Y-60433238D02*
X166182000Y-64262000D01*
X162123001Y-57983001D02*
X163731763Y-57983001D01*
X167201573Y-75593573D02*
X167201573Y-74936286D01*
X169702000Y-78094000D02*
X167201573Y-75593573D01*
X176072800Y-64541400D02*
X175772801Y-64841399D01*
X175772801Y-64841399D02*
X175772801Y-66527401D01*
X175772801Y-66527401D02*
X175793400Y-66548000D01*
X179424800Y-58586400D02*
X179424800Y-63424600D01*
X179424800Y-63424600D02*
X179324000Y-63525400D01*
X176212000Y-66966600D02*
X176212000Y-68153000D01*
X175793400Y-66548000D02*
X176212000Y-66966600D01*
X176212000Y-68153000D02*
X175612000Y-68753000D01*
X175612000Y-68753000D02*
X175612000Y-69128000D01*
X169702000Y-78094000D02*
X170302000Y-78694000D01*
X170302000Y-78694000D02*
X170302000Y-78994000D01*
X168812000Y-70128000D02*
X167410000Y-70128000D01*
X167410000Y-70128000D02*
X167132000Y-69850000D01*
X170212000Y-75028000D02*
X170261990Y-75028000D01*
X170212000Y-75028000D02*
X170204361Y-75035639D01*
X169702000Y-76605275D02*
X169702000Y-78094000D01*
X170204361Y-76102914D02*
X169702000Y-76605275D01*
X170204361Y-75035639D02*
X170204361Y-76102914D01*
X166182000Y-64262000D02*
X166182000Y-66736000D01*
X166182000Y-66736000D02*
X166116000Y-66802000D01*
X170302000Y-78994000D02*
X172212000Y-78994000D01*
X168770000Y-70170000D02*
X168812000Y-70128000D01*
X169264710Y-67180710D02*
X169712000Y-67628000D01*
X168939710Y-65872688D02*
X168939710Y-66404247D01*
X168939710Y-66404247D02*
X169264710Y-66729247D01*
X164097761Y-55808999D02*
X169132999Y-60844237D01*
X161036000Y-54356000D02*
X161036000Y-55368000D01*
X161036000Y-55368000D02*
X161476999Y-55808999D01*
X169132999Y-60844237D02*
X169132999Y-65679399D01*
X169264710Y-66729247D02*
X169264710Y-67180710D01*
X169132999Y-65679399D02*
X168939710Y-65872688D01*
X169712000Y-67628000D02*
X169712000Y-68228000D01*
X161476999Y-55808999D02*
X164097761Y-55808999D01*
X170397357Y-66633255D02*
X170397357Y-66178572D01*
X170712000Y-68228000D02*
X170712000Y-66947898D01*
X170712000Y-66947898D02*
X170397357Y-66633255D01*
X161036000Y-59436000D02*
X161036000Y-62230000D01*
X161036000Y-62230000D02*
X162560000Y-63754000D01*
X170212000Y-67109411D02*
X169714721Y-66612132D01*
X169714721Y-66295360D02*
X169597346Y-66177985D01*
X169714721Y-66612132D02*
X169714721Y-66295360D01*
X170212000Y-68228000D02*
X170212000Y-67109411D01*
X163576000Y-63886102D02*
X164906949Y-65217051D01*
X163576000Y-59436000D02*
X163576000Y-63886102D01*
X167541012Y-68917015D02*
X168251997Y-69628000D01*
X167493669Y-66984333D02*
X167493669Y-68000812D01*
X168082000Y-66396002D02*
X167493669Y-66984333D01*
X167493669Y-68000812D02*
X167541012Y-68048155D01*
X168251997Y-69628000D02*
X168812000Y-69628000D01*
X168082000Y-64262000D02*
X168082000Y-66396002D01*
X167541012Y-68048155D02*
X167541012Y-68917015D01*
X168082000Y-60429648D02*
X168082000Y-64262000D01*
X164548352Y-56896000D02*
X168082000Y-60429648D01*
X163576000Y-56896000D02*
X164548352Y-56896000D01*
D44*
X200920000Y-53807000D02*
X200920000Y-53157000D01*
X200920000Y-54457000D02*
X200920000Y-53807000D01*
X212836000Y-50292000D02*
X212836000Y-50417000D01*
X212836000Y-50417000D02*
X208796000Y-54457000D01*
X208796000Y-54457000D02*
X200920000Y-54457000D01*
X225426000Y-69136000D02*
X224791000Y-69136000D01*
X208652000Y-75136000D02*
X206882000Y-75136000D01*
X224791000Y-69136000D02*
X219876001Y-74050999D01*
X219876001Y-74050999D02*
X209737001Y-74050999D01*
X209737001Y-74050999D02*
X208652000Y-75136000D01*
X217456000Y-58420000D02*
X218515002Y-58420000D01*
X225426000Y-65330998D02*
X225426000Y-69136000D01*
X218515002Y-58420000D02*
X225426000Y-65330998D01*
X200914000Y-53813000D02*
X200920000Y-53807000D01*
X212836000Y-47752000D02*
X212836000Y-50292000D01*
X216488000Y-49608000D02*
X213520000Y-49608000D01*
X213520000Y-49608000D02*
X212836000Y-50292000D01*
X216488000Y-43608000D02*
X215988000Y-43608000D01*
X215988000Y-43608000D02*
X212836000Y-46760000D01*
X212836000Y-46760000D02*
X212836000Y-47752000D01*
X216488000Y-49608000D02*
X216488000Y-57452000D01*
X216488000Y-57452000D02*
X217456000Y-58420000D01*
D43*
X212852000Y-50308000D02*
X212836000Y-50292000D01*
X173152000Y-49028000D02*
X173152000Y-47628000D01*
X173152000Y-47628000D02*
X173352000Y-47428000D01*
X177952000Y-47428000D02*
X179202000Y-48678000D01*
X173352000Y-47428000D02*
X177952000Y-47428000D01*
X179202000Y-48678000D02*
X179202000Y-48928000D01*
X179202000Y-48928000D02*
X179202000Y-43428000D01*
X170302000Y-48928000D02*
X173052000Y-48928000D01*
X173052000Y-48928000D02*
X173152000Y-49028000D01*
X170302000Y-43428000D02*
X170302000Y-48928000D01*
X170302000Y-48928000D02*
X170302000Y-51710000D01*
X170302000Y-51710000D02*
X170180000Y-51832000D01*
D44*
X194020000Y-52507000D02*
X195320000Y-52507000D01*
X193132578Y-51619578D02*
X194020000Y-52507000D01*
X193132578Y-50450578D02*
X193132578Y-51619578D01*
X192024000Y-49342000D02*
X193132578Y-50450578D01*
X193189999Y-70139999D02*
X197612000Y-74562000D01*
X193189999Y-67181999D02*
X193189999Y-70139999D01*
X197612000Y-74562000D02*
X197612000Y-83860810D01*
X187750000Y-62992000D02*
X189000000Y-62992000D01*
X189000000Y-62992000D02*
X193189999Y-67181999D01*
X179424800Y-53986400D02*
X180924800Y-53986400D01*
X180924800Y-53986400D02*
X182445200Y-52466000D01*
X182445200Y-52466000D02*
X187750000Y-52466000D01*
X214133000Y-90176000D02*
X214133000Y-90826000D01*
X209296000Y-95663000D02*
X209296000Y-105664000D01*
X214133000Y-90826000D02*
X209296000Y-95663000D01*
X188225000Y-90176000D02*
X187575000Y-90176000D01*
X187575000Y-90176000D02*
X183388000Y-94363000D01*
X183388000Y-94363000D02*
X183388000Y-105664000D01*
X161809000Y-90176000D02*
X161809000Y-90826000D01*
X157480000Y-95155000D02*
X157480000Y-105664000D01*
X161809000Y-90826000D02*
X157480000Y-95155000D01*
X187750000Y-62992000D02*
X185944000Y-62992000D01*
X185944000Y-62992000D02*
X184912000Y-64024000D01*
X192024000Y-49342000D02*
X190874000Y-49342000D01*
X190874000Y-49342000D02*
X187750000Y-52466000D01*
X187750000Y-52466000D02*
X187750000Y-62992000D01*
X192024000Y-49342000D02*
X192024000Y-48492000D01*
X192024000Y-48492000D02*
X194099999Y-46416001D01*
X194099999Y-46416001D02*
X199917999Y-46416001D01*
X199917999Y-46416001D02*
X200868000Y-45466000D01*
X200868000Y-45466000D02*
X201168000Y-45466000D01*
D43*
X192232000Y-49342000D02*
X192532000Y-49342000D01*
X214133000Y-90176000D02*
X214783000Y-90176000D01*
X188225000Y-90176000D02*
X188875000Y-90176000D01*
X161809000Y-90176000D02*
X162459000Y-90176000D01*
X160020000Y-105664000D02*
X160020000Y-100218000D01*
X160020000Y-100218000D02*
X159304000Y-99502000D01*
X159304000Y-99502000D02*
X159004000Y-99502000D01*
X162560000Y-105664000D02*
X162560000Y-100010000D01*
X162560000Y-100010000D02*
X162052000Y-99502000D01*
X165100000Y-105664000D02*
X165100000Y-99502000D01*
X167640000Y-105664000D02*
X167640000Y-100010000D01*
X167640000Y-100010000D02*
X168148000Y-99502000D01*
X185928000Y-105664000D02*
X185928000Y-100218000D01*
X185928000Y-100218000D02*
X185212000Y-99502000D01*
X185212000Y-99502000D02*
X184912000Y-99502000D01*
X188468000Y-105664000D02*
X188468000Y-99502000D01*
X191008000Y-105664000D02*
X191008000Y-100218000D01*
X191008000Y-100218000D02*
X191724000Y-99502000D01*
X191724000Y-99502000D02*
X192024000Y-99502000D01*
X193548000Y-105664000D02*
X193548000Y-101234000D01*
X193548000Y-101234000D02*
X195280000Y-99502000D01*
X195280000Y-99502000D02*
X195580000Y-99502000D01*
X210820000Y-99502000D02*
X210820000Y-104648000D01*
X210820000Y-104648000D02*
X211836000Y-105664000D01*
X214376000Y-105664000D02*
X214376000Y-99502000D01*
X217932000Y-99502000D02*
X217932000Y-104648000D01*
X217932000Y-104648000D02*
X216916000Y-105664000D01*
X221488000Y-99502000D02*
X221488000Y-104882000D01*
X221488000Y-104882000D02*
X220706000Y-105664000D01*
X220706000Y-105664000D02*
X219456000Y-105664000D01*
X176050173Y-71128000D02*
X175612000Y-71128000D01*
X177546000Y-70240998D02*
X177413597Y-70373401D01*
X177413597Y-70373401D02*
X176804772Y-70373401D01*
X176804772Y-70373401D02*
X176050173Y-71128000D01*
X171712000Y-66920601D02*
X171171555Y-66380156D01*
X171712000Y-68228000D02*
X171712000Y-66920601D01*
X177292000Y-67365902D02*
X179242698Y-69316600D01*
X177546000Y-70240998D02*
X178318300Y-70240998D01*
X177292000Y-51054000D02*
X177292000Y-67365902D01*
X178318300Y-70240998D02*
X179242698Y-69316600D01*
X201493399Y-68102201D02*
X201193400Y-68402200D01*
X216012201Y-68102201D02*
X201493399Y-68102201D01*
X217046000Y-69136000D02*
X216012201Y-68102201D01*
X218566000Y-69136000D02*
X217046000Y-69136000D01*
X177292000Y-51054000D02*
X177292000Y-49468000D01*
X177292000Y-49468000D02*
X176852000Y-49028000D01*
X176852000Y-49028000D02*
X176352000Y-49028000D01*
X177962998Y-70240998D02*
X177546000Y-70240998D01*
X178816000Y-71094000D02*
X177962998Y-70240998D01*
X178816000Y-71694000D02*
X178816000Y-71094000D01*
X176545402Y-51643402D02*
X176545402Y-54060598D01*
X175968000Y-51066000D02*
X176545402Y-51643402D01*
X175768000Y-51066000D02*
X175968000Y-51066000D01*
X176545402Y-54060598D02*
X176276000Y-54330000D01*
X176276000Y-54330000D02*
X176276000Y-54930000D01*
X175768000Y-51066000D02*
X175768000Y-49244000D01*
X175768000Y-49244000D02*
X175552000Y-49028000D01*
X173736000Y-51066000D02*
X173536000Y-51066000D01*
X173536000Y-51066000D02*
X172720000Y-51882000D01*
X172720000Y-51882000D02*
X172720000Y-54930000D01*
X173736000Y-51066000D02*
X174114000Y-51066000D01*
X174114000Y-51066000D02*
X174752000Y-50428000D01*
X174752000Y-50428000D02*
X174752000Y-49028000D01*
X194772000Y-47366000D02*
X195072000Y-47366000D01*
X193278598Y-49245802D02*
X193278598Y-48859402D01*
X193707589Y-49674793D02*
X193278598Y-49245802D01*
X194270000Y-51857000D02*
X193707589Y-51294589D01*
X193278598Y-48859402D02*
X194772000Y-47366000D01*
X193707589Y-51294589D02*
X193707589Y-49674793D01*
X195320000Y-51857000D02*
X194270000Y-51857000D01*
X173229024Y-68210976D02*
X173212000Y-68228000D01*
X173212001Y-66366175D02*
X173229024Y-66383198D01*
X172720000Y-56830000D02*
X172720000Y-57430000D01*
X173212000Y-57922000D02*
X173212001Y-66366175D01*
X173229024Y-66383198D02*
X173229024Y-68210976D01*
X172720000Y-57430000D02*
X173212000Y-57922000D01*
X176276000Y-56830000D02*
X176276000Y-57430000D01*
X176276000Y-57430000D02*
X173712000Y-59994000D01*
X173712000Y-59994000D02*
X173712000Y-68228000D01*
X192024000Y-52898000D02*
X192924000Y-52898000D01*
X192924000Y-52898000D02*
X193183000Y-53157000D01*
X193183000Y-53157000D02*
X195320000Y-53157000D01*
X192024000Y-51242000D02*
X192024000Y-52898000D01*
X201498200Y-48666400D02*
X201498200Y-47696200D01*
X201498200Y-47696200D02*
X201168000Y-47366000D01*
X195320000Y-50557000D02*
X195320000Y-50157000D01*
X195320000Y-50157000D02*
X196429600Y-49047400D01*
X196429600Y-49047400D02*
X197662800Y-49047400D01*
X195320000Y-50557000D02*
X195320000Y-50413000D01*
X201168000Y-47366000D02*
X201544000Y-47366000D01*
X211353400Y-71983600D02*
X213589600Y-71983600D01*
X213589600Y-71983600D02*
X213742000Y-72136000D01*
X168402000Y-78994000D02*
X168402000Y-78694000D01*
X168402000Y-78694000D02*
X167228800Y-77520800D01*
X167228800Y-77520800D02*
X166319200Y-77520800D01*
X168812000Y-72128000D02*
X166859988Y-72128000D01*
X166859988Y-72128000D02*
X166389989Y-72597999D01*
X166389989Y-72597999D02*
X166389989Y-76081989D01*
X166389989Y-76081989D02*
X168402000Y-78094000D01*
X168402000Y-78094000D02*
X168402000Y-78994000D01*
X218440000Y-70612000D02*
X218440000Y-72010000D01*
X218440000Y-72010000D02*
X218566000Y-72136000D01*
X213742000Y-72136000D02*
X213742000Y-70738000D01*
X213742000Y-70738000D02*
X213868000Y-70612000D01*
X167826583Y-75040383D02*
X168127401Y-75341201D01*
X168127401Y-75341201D02*
X168427400Y-75641200D01*
X167826583Y-73013417D02*
X167826583Y-75040383D01*
X168212000Y-72628000D02*
X167826583Y-73013417D01*
X168812000Y-72628000D02*
X168212000Y-72628000D01*
X216052400Y-69189600D02*
X213795600Y-69189600D01*
X213795600Y-69189600D02*
X213742000Y-69136000D01*
X167284990Y-72628000D02*
X167014990Y-72898000D01*
X168812000Y-72628000D02*
X167284990Y-72628000D01*
X166116000Y-68702000D02*
X166116000Y-69596000D01*
X216154000Y-75184000D02*
X218518000Y-75184000D01*
X218518000Y-75184000D02*
X218566000Y-75136000D01*
X213742000Y-69136000D02*
X214377000Y-69136000D01*
X214377000Y-69136000D02*
X216154000Y-70913000D01*
X216154000Y-70913000D02*
X216154000Y-72898000D01*
X163109000Y-90176000D02*
X163109000Y-93797000D01*
X163109000Y-93797000D02*
X159304000Y-97602000D01*
X159304000Y-97602000D02*
X159004000Y-97602000D01*
X162052000Y-97602000D02*
X162052000Y-97002000D01*
X162052000Y-97002000D02*
X163759000Y-95295000D01*
X163759000Y-95295000D02*
X163759000Y-90176000D01*
X165059000Y-90176000D02*
X165059000Y-97561000D01*
X165059000Y-97561000D02*
X165100000Y-97602000D01*
D44*
X165100000Y-90217000D02*
X165059000Y-90176000D01*
D43*
X168148000Y-97602000D02*
X168148000Y-97002000D01*
X168148000Y-97002000D02*
X165709000Y-94563000D01*
X165709000Y-94563000D02*
X165709000Y-90176000D01*
X189525000Y-92389000D02*
X189525000Y-90176000D01*
X184912000Y-97602000D02*
X184912000Y-97002000D01*
X184912000Y-97002000D02*
X189525000Y-92389000D01*
X188468000Y-97602000D02*
X188468000Y-97002000D01*
X188468000Y-97002000D02*
X190175000Y-95295000D01*
X190175000Y-95295000D02*
X190175000Y-90176000D01*
X192024000Y-97602000D02*
X192024000Y-97002000D01*
X192024000Y-97002000D02*
X191475000Y-96453000D01*
X191475000Y-96453000D02*
X191475000Y-90176000D01*
X195580000Y-97602000D02*
X195580000Y-97002000D01*
X195580000Y-97002000D02*
X192125000Y-93547000D01*
X192125000Y-93547000D02*
X192125000Y-90176000D01*
X210820000Y-97602000D02*
X210820000Y-97002000D01*
X210820000Y-97002000D02*
X215433000Y-92389000D01*
X215433000Y-92389000D02*
X215433000Y-90176000D01*
X214376000Y-97602000D02*
X214376000Y-97002000D01*
X214376000Y-97002000D02*
X216083000Y-95295000D01*
X216083000Y-95295000D02*
X216083000Y-90176000D01*
X217932000Y-97602000D02*
X217932000Y-97002000D01*
X217932000Y-97002000D02*
X217383000Y-96453000D01*
X217383000Y-96453000D02*
X217383000Y-90176000D01*
X221488000Y-97602000D02*
X221488000Y-97002000D01*
X221488000Y-97002000D02*
X218033000Y-93547000D01*
X218033000Y-93547000D02*
X218033000Y-90176000D01*
X185879000Y-74792000D02*
X186429000Y-74792000D01*
X186429000Y-74792000D02*
X187529000Y-73692000D01*
X187529000Y-73692000D02*
X189000000Y-73692000D01*
X185879000Y-75692000D02*
X186929000Y-75692000D01*
X186929000Y-75692000D02*
X187589000Y-75032000D01*
X187589000Y-75032000D02*
X189000000Y-75032000D01*
X185879000Y-76592000D02*
X188760000Y-76592000D01*
X188760000Y-76592000D02*
X189000000Y-76352000D01*
X175116797Y-67598203D02*
X175121505Y-67598203D01*
X174712000Y-68003000D02*
X175116797Y-67598203D01*
X174712000Y-68228000D02*
X174712000Y-68003000D01*
X163830000Y-82804000D02*
X163830000Y-84505000D01*
X163830000Y-84505000D02*
X163759000Y-84576000D01*
X168812000Y-68394139D02*
X168118671Y-67700810D01*
X168812000Y-69128000D02*
X168812000Y-68394139D01*
X181356000Y-66811669D02*
X180283711Y-65739380D01*
X181356000Y-71882000D02*
X181356000Y-66811669D01*
X216083000Y-84576000D02*
X216083000Y-80447000D01*
X216083000Y-80447000D02*
X215900000Y-80264000D01*
X170654372Y-77098059D02*
X171376011Y-77819698D01*
X170654372Y-75454217D02*
X170654372Y-77098059D01*
X170712000Y-75396589D02*
X170654372Y-75454217D01*
X170712000Y-75028000D02*
X170712000Y-75396589D01*
X166359000Y-84576000D02*
X166359000Y-83926000D01*
X167368131Y-82916869D02*
X167368131Y-82750767D01*
X166359000Y-83926000D02*
X167368131Y-82916869D01*
X192775000Y-84576000D02*
X192775000Y-81545000D01*
X192775000Y-81545000D02*
X192786000Y-81534000D01*
X218694000Y-82550000D02*
X218694000Y-84565000D01*
X218694000Y-84565000D02*
X218683000Y-84576000D01*
X195808600Y-78384400D02*
X195384336Y-78384400D01*
X176436984Y-78684399D02*
X175576562Y-77823977D01*
X195384336Y-78384400D02*
X195084337Y-78684399D01*
X195084337Y-78684399D02*
X176436984Y-78684399D01*
X215433000Y-83526000D02*
X215357999Y-83450999D01*
X215357999Y-83450999D02*
X204177199Y-83450999D01*
X204177199Y-83450999D02*
X199110600Y-78384400D01*
X171104383Y-76626476D02*
X172001013Y-77523106D01*
X171212000Y-75533000D02*
X171104383Y-75640617D01*
X172001013Y-77823977D02*
X175576562Y-77823977D01*
X172001013Y-77523106D02*
X172001013Y-77823977D01*
X171104383Y-75640617D02*
X171104383Y-76626476D01*
X171212000Y-75028000D02*
X171212000Y-75533000D01*
X215433000Y-83526000D02*
X215433000Y-84576000D01*
X218033000Y-83457099D02*
X217655254Y-83079353D01*
X218033000Y-84576000D02*
X218033000Y-83457099D01*
X192119580Y-82685776D02*
X192119580Y-82462030D01*
X192125000Y-83526000D02*
X192141002Y-83509998D01*
X192141002Y-82707198D02*
X192119580Y-82685776D01*
X192141002Y-83509998D02*
X192141002Y-82707198D01*
X187145236Y-79928593D02*
X176240397Y-79928593D01*
X192125000Y-84576000D02*
X192125000Y-83526000D01*
X192141002Y-83509998D02*
X192141002Y-82681798D01*
X192141002Y-82681798D02*
X189860194Y-80400990D01*
X189860194Y-80400990D02*
X187617633Y-80400990D01*
X187617633Y-80400990D02*
X187145236Y-79928593D01*
X176240397Y-79928593D02*
X175768000Y-80400990D01*
X171656286Y-76541968D02*
X172253029Y-77138711D01*
X172253029Y-77138711D02*
X172496482Y-77138711D01*
X171712000Y-75028000D02*
X171712000Y-75669411D01*
X171712000Y-75669411D02*
X171656286Y-75725125D01*
X171656286Y-75725125D02*
X171656286Y-76541968D01*
X165709000Y-84576000D02*
X165709000Y-83526000D01*
X165709000Y-83526000D02*
X167193000Y-82042000D01*
X167193000Y-82042000D02*
X171463385Y-82042000D01*
X171463385Y-82042000D02*
X172843198Y-83421813D01*
X172843198Y-83421813D02*
X173816002Y-83421813D01*
X173816002Y-83421813D02*
X175768000Y-81469815D01*
X175768000Y-81469815D02*
X175768000Y-80400990D01*
X172212000Y-76172680D02*
X172299309Y-76259989D01*
X172212000Y-75028000D02*
X172212000Y-76172680D01*
X163109000Y-82431736D02*
X163725318Y-81815418D01*
X163109000Y-84576000D02*
X163109000Y-82431736D01*
X173090419Y-76126097D02*
X173090419Y-76498562D01*
X172712000Y-75747678D02*
X173090419Y-76126097D01*
X172712000Y-75028000D02*
X172712000Y-75747678D01*
X187166155Y-80874516D02*
X186845234Y-80553595D01*
X187523516Y-80874516D02*
X187166155Y-80874516D01*
X190175000Y-83526000D02*
X187523516Y-80874516D01*
X190175000Y-84576000D02*
X190175000Y-83526000D01*
X174862735Y-77262002D02*
X175650998Y-77262002D01*
X176112996Y-77724000D02*
X178308000Y-77724000D01*
X175650998Y-77262002D02*
X176112996Y-77724000D01*
X173212000Y-75611267D02*
X174862735Y-77262002D01*
X173212000Y-75028000D02*
X173212000Y-75611267D01*
X183134000Y-81788000D02*
X184775002Y-83429002D01*
X184775002Y-83429002D02*
X189428002Y-83429002D01*
X189428002Y-83429002D02*
X189525000Y-83526000D01*
X189525000Y-83526000D02*
X189525000Y-84576000D01*
X216927802Y-83235800D02*
X217383000Y-83690998D01*
X217383000Y-83690998D02*
X217383000Y-84576000D01*
X216789000Y-83235800D02*
X216927802Y-83235800D01*
X191475000Y-83048200D02*
X191516000Y-83007200D01*
X191475000Y-84576000D02*
X191475000Y-83048200D01*
X173712000Y-75474856D02*
X174899145Y-76662001D01*
X173712000Y-75028000D02*
X173712000Y-75474856D01*
X176230001Y-76662001D02*
X176530000Y-76962000D01*
X174899145Y-76662001D02*
X176230001Y-76662001D01*
X172604974Y-83820000D02*
X167386000Y-83820000D01*
X172656798Y-83871824D02*
X172604974Y-83820000D01*
X174446176Y-83871824D02*
X172656798Y-83871824D01*
X177292000Y-81026000D02*
X174446176Y-83871824D01*
X190500000Y-82804000D02*
X191475000Y-83779000D01*
X191475000Y-83779000D02*
X191475000Y-84576000D01*
X177292000Y-81026000D02*
X186436000Y-81026000D01*
X186436000Y-81026000D02*
X187960000Y-82550000D01*
X165100000Y-82804000D02*
X165100000Y-84535000D01*
X165100000Y-84535000D02*
X165059000Y-84576000D01*
X176502221Y-73128000D02*
X175612000Y-73128000D01*
X180505999Y-73584997D02*
X180505999Y-72918999D01*
X182929000Y-74792000D02*
X182927998Y-74793002D01*
X177582012Y-73210187D02*
X176584408Y-73210187D01*
X177873200Y-72918999D02*
X177582012Y-73210187D01*
X180505999Y-72918999D02*
X177873200Y-72918999D01*
X182927998Y-74793002D02*
X180547998Y-74793002D01*
X176584408Y-73210187D02*
X176502221Y-73128000D01*
X180222998Y-74468002D02*
X180222998Y-73867998D01*
X180222998Y-73867998D02*
X180505999Y-73584997D01*
X180547998Y-74793002D02*
X180222998Y-74468002D01*
X175612000Y-72628000D02*
X177264595Y-72628000D01*
X177264595Y-72628000D02*
X177307410Y-72585185D01*
X182929000Y-75692000D02*
X181356000Y-75692000D01*
X176771891Y-71800933D02*
X177465424Y-71800933D01*
X176444824Y-72128000D02*
X176771891Y-71800933D01*
X175612000Y-72128000D02*
X176444824Y-72128000D01*
X182929000Y-76592000D02*
X184034000Y-76592000D01*
X184034000Y-76592000D02*
X184150000Y-76708000D01*
X175612000Y-71628000D02*
X176296298Y-71628000D01*
X176612884Y-71311414D02*
X177036275Y-71311414D01*
X177036275Y-71311414D02*
X177336274Y-71011415D01*
X176296298Y-71628000D02*
X176612884Y-71311414D01*
X211582000Y-75438000D02*
X213440000Y-75438000D01*
X213440000Y-75438000D02*
X213742000Y-75136000D01*
X173405800Y-100939600D02*
X166359000Y-93892800D01*
X166359000Y-93892800D02*
X166359000Y-90176000D01*
X201295000Y-101117400D02*
X201295000Y-100693136D01*
X201295000Y-100693136D02*
X192775000Y-92173136D01*
X192775000Y-92173136D02*
X192775000Y-90176000D01*
X225247200Y-96340200D02*
X225247200Y-99568000D01*
X225247200Y-99568000D02*
X223596200Y-101219000D01*
X218683000Y-90176000D02*
X219083000Y-90176000D01*
X219083000Y-90176000D02*
X225247200Y-96340200D01*
X200920000Y-52507000D02*
X200920000Y-51857000D01*
X202336400Y-52527200D02*
X200940200Y-52527200D01*
X200940200Y-52527200D02*
X200920000Y-52507000D01*
X199390000Y-59690000D02*
X199390000Y-59590000D01*
X199390000Y-59590000D02*
X202514200Y-56465800D01*
X202514200Y-56465800D02*
X202514200Y-55549800D01*
X192548000Y-56896000D02*
X192548000Y-57021000D01*
X195217000Y-59690000D02*
X199390000Y-59690000D01*
X192548000Y-57021000D02*
X195217000Y-59690000D01*
X193250000Y-62992000D02*
X196188000Y-62992000D01*
X196188000Y-62992000D02*
X199390000Y-59790000D01*
X199390000Y-59790000D02*
X199390000Y-59690000D01*
X193990000Y-68072000D02*
X193990000Y-63732000D01*
X193990000Y-63732000D02*
X193250000Y-62992000D01*
X188960000Y-68072000D02*
X192090000Y-68072000D01*
X221456000Y-58420000D02*
X225310000Y-58420000D01*
X225310000Y-58420000D02*
X226060000Y-57670000D01*
X226060000Y-57670000D02*
X226060000Y-56970000D01*
X200931000Y-50546000D02*
X200920000Y-50557000D01*
D45*
G36*
X168654560Y-42178000D02*
X168654560Y-44678000D01*
X168698838Y-44913317D01*
X168837910Y-45129441D01*
X169050110Y-45274431D01*
X169302000Y-45325440D01*
X169542000Y-45325440D01*
X169542000Y-47030560D01*
X169302000Y-47030560D01*
X169066683Y-47074838D01*
X168850559Y-47213910D01*
X168705569Y-47426110D01*
X168654560Y-47678000D01*
X168654560Y-50178000D01*
X168698838Y-50413317D01*
X168837910Y-50629441D01*
X169050110Y-50774431D01*
X169201262Y-50805040D01*
X169103559Y-50867910D01*
X168958569Y-51080110D01*
X168907560Y-51332000D01*
X168907560Y-52332000D01*
X168951838Y-52567317D01*
X169090910Y-52783441D01*
X169159006Y-52829969D01*
X169016673Y-52972302D01*
X168920000Y-53205691D01*
X168920000Y-53546250D01*
X169078750Y-53705000D01*
X170053000Y-53705000D01*
X170053000Y-53685000D01*
X170307000Y-53685000D01*
X170307000Y-53705000D01*
X171281250Y-53705000D01*
X171440000Y-53546250D01*
X171440000Y-53205691D01*
X171343327Y-52972302D01*
X171202090Y-52831064D01*
X171256441Y-52796090D01*
X171401431Y-52583890D01*
X171452440Y-52332000D01*
X171452440Y-51332000D01*
X171408162Y-51096683D01*
X171269090Y-50880559D01*
X171188421Y-50825440D01*
X171302000Y-50825440D01*
X171537317Y-50781162D01*
X171753441Y-50642090D01*
X171898431Y-50429890D01*
X171949440Y-50178000D01*
X171949440Y-49688000D01*
X172254560Y-49688000D01*
X172254560Y-50178000D01*
X172298838Y-50413317D01*
X172437910Y-50629441D01*
X172647359Y-50772551D01*
X172638560Y-50816000D01*
X172638560Y-50888638D01*
X172182599Y-51344599D01*
X172017852Y-51591161D01*
X171960000Y-51882000D01*
X171960000Y-53953258D01*
X171834683Y-53976838D01*
X171618559Y-54115910D01*
X171473569Y-54328110D01*
X171422560Y-54580000D01*
X171422560Y-55280000D01*
X171466838Y-55515317D01*
X171605910Y-55731441D01*
X171818110Y-55876431D01*
X171831197Y-55879081D01*
X171618559Y-56015910D01*
X171473569Y-56228110D01*
X171422560Y-56480000D01*
X171422560Y-57180000D01*
X171466838Y-57415317D01*
X171605910Y-57631441D01*
X171818110Y-57776431D01*
X172070000Y-57827440D01*
X172089080Y-57827440D01*
X172182599Y-57967401D01*
X172452000Y-58236802D01*
X172452001Y-63510000D01*
X172243750Y-63510000D01*
X172085000Y-63668750D01*
X172085000Y-64643000D01*
X172105000Y-64643000D01*
X172105000Y-64897000D01*
X172085000Y-64897000D01*
X172085000Y-64917000D01*
X171831000Y-64917000D01*
X171831000Y-64897000D01*
X171811000Y-64897000D01*
X171811000Y-64643000D01*
X171831000Y-64643000D01*
X171831000Y-63668750D01*
X171672250Y-63510000D01*
X171331691Y-63510000D01*
X171098302Y-63606673D01*
X170957064Y-63747910D01*
X170922090Y-63693559D01*
X170709890Y-63548569D01*
X170458000Y-63497560D01*
X169892999Y-63497560D01*
X169892999Y-60844237D01*
X169835147Y-60553398D01*
X169670400Y-60306836D01*
X164653204Y-55289640D01*
X164671226Y-55271618D01*
X164556215Y-55156607D01*
X164798397Y-55087143D01*
X164985144Y-54563698D01*
X164962824Y-54117750D01*
X168920000Y-54117750D01*
X168920000Y-54458309D01*
X169016673Y-54691698D01*
X169195301Y-54870327D01*
X169428690Y-54967000D01*
X169894250Y-54967000D01*
X170053000Y-54808250D01*
X170053000Y-53959000D01*
X170307000Y-53959000D01*
X170307000Y-54808250D01*
X170465750Y-54967000D01*
X170931310Y-54967000D01*
X171164699Y-54870327D01*
X171343327Y-54691698D01*
X171440000Y-54458309D01*
X171440000Y-54117750D01*
X171281250Y-53959000D01*
X170307000Y-53959000D01*
X170053000Y-53959000D01*
X169078750Y-53959000D01*
X168920000Y-54117750D01*
X164962824Y-54117750D01*
X164957362Y-54008632D01*
X164798397Y-53624857D01*
X164556213Y-53555392D01*
X163755605Y-54356000D01*
X163769748Y-54370143D01*
X163590143Y-54549748D01*
X163576000Y-54535605D01*
X163561858Y-54549748D01*
X163382253Y-54370143D01*
X163396395Y-54356000D01*
X162595787Y-53555392D01*
X162445440Y-53598516D01*
X162445440Y-53594000D01*
X162404381Y-53375787D01*
X162775392Y-53375787D01*
X163576000Y-54176395D01*
X164376608Y-53375787D01*
X164307143Y-53133603D01*
X163783698Y-52946856D01*
X163228632Y-52974638D01*
X162844857Y-53133603D01*
X162775392Y-53375787D01*
X162404381Y-53375787D01*
X162401162Y-53358683D01*
X162262090Y-53142559D01*
X162049890Y-52997569D01*
X161798000Y-52946560D01*
X160274000Y-52946560D01*
X160038683Y-52990838D01*
X159822559Y-53129910D01*
X159677569Y-53342110D01*
X159626560Y-53594000D01*
X159626560Y-55118000D01*
X159670838Y-55353317D01*
X159809910Y-55569441D01*
X160022110Y-55714431D01*
X160205124Y-55751492D01*
X159852371Y-56103630D01*
X159639243Y-56616900D01*
X159638758Y-57172661D01*
X159850990Y-57686303D01*
X160243630Y-58079629D01*
X160451512Y-58165949D01*
X160245697Y-58250990D01*
X159852371Y-58643630D01*
X159639243Y-59156900D01*
X159638758Y-59712661D01*
X159850990Y-60226303D01*
X160243630Y-60619629D01*
X160276000Y-60633070D01*
X160276000Y-62230000D01*
X160333852Y-62520839D01*
X160498599Y-62767401D01*
X161624878Y-63893680D01*
X161624838Y-63939167D01*
X161766883Y-64282943D01*
X162029673Y-64546192D01*
X162373201Y-64688838D01*
X162745167Y-64689162D01*
X163088943Y-64547117D01*
X163125610Y-64510514D01*
X163971827Y-65356731D01*
X163971787Y-65402218D01*
X164001743Y-65474718D01*
X163911698Y-65384673D01*
X163678309Y-65288000D01*
X163337750Y-65288000D01*
X163179000Y-65446750D01*
X163179000Y-66421000D01*
X164028250Y-66421000D01*
X164187000Y-66262250D01*
X164187000Y-65819290D01*
X164376622Y-66009243D01*
X164720150Y-66151889D01*
X164902409Y-66152048D01*
X164869569Y-66200110D01*
X164818560Y-66452000D01*
X164818560Y-67152000D01*
X164862838Y-67387317D01*
X165001910Y-67603441D01*
X165214110Y-67748431D01*
X165227197Y-67751081D01*
X165014559Y-67887910D01*
X164887000Y-68074599D01*
X164887000Y-68009691D01*
X164790327Y-67776302D01*
X164611699Y-67597673D01*
X164378310Y-67501000D01*
X164103457Y-67501000D01*
X164187000Y-67299310D01*
X164187000Y-66833750D01*
X164028250Y-66675000D01*
X163179000Y-66675000D01*
X163179000Y-66695000D01*
X162925000Y-66695000D01*
X162925000Y-66675000D01*
X162905000Y-66675000D01*
X162905000Y-66421000D01*
X162925000Y-66421000D01*
X162925000Y-65446750D01*
X162766250Y-65288000D01*
X162425691Y-65288000D01*
X162192302Y-65384673D01*
X162051064Y-65525910D01*
X162016090Y-65471559D01*
X161803890Y-65326569D01*
X161552000Y-65275560D01*
X160552000Y-65275560D01*
X160316683Y-65319838D01*
X160100559Y-65458910D01*
X159955569Y-65671110D01*
X159904560Y-65923000D01*
X159904560Y-67173000D01*
X159942000Y-67371976D01*
X159942000Y-67488560D01*
X159852000Y-67488560D01*
X159616683Y-67532838D01*
X159400559Y-67671910D01*
X159255569Y-67884110D01*
X159204560Y-68136000D01*
X159204560Y-70236000D01*
X159248838Y-70471317D01*
X159387910Y-70687441D01*
X159600110Y-70832431D01*
X159852000Y-70883440D01*
X161124638Y-70883440D01*
X162015600Y-71774402D01*
X162262162Y-71939149D01*
X162553001Y-71997001D01*
X163622001Y-71997001D01*
X163912840Y-71939149D01*
X163989390Y-71888000D01*
X164225198Y-71888000D01*
X162864599Y-73248599D01*
X162771080Y-73388560D01*
X162552000Y-73388560D01*
X162316683Y-73432838D01*
X162100559Y-73571910D01*
X162054031Y-73640006D01*
X161911699Y-73497673D01*
X161678310Y-73401000D01*
X160987750Y-73401000D01*
X160829000Y-73559750D01*
X160829000Y-74959000D01*
X160849000Y-74959000D01*
X160849000Y-75213000D01*
X160829000Y-75213000D01*
X160829000Y-75233000D01*
X160575000Y-75233000D01*
X160575000Y-75213000D01*
X159375750Y-75213000D01*
X159217000Y-75371750D01*
X159217000Y-76262309D01*
X159313673Y-76495698D01*
X159492301Y-76674327D01*
X159725690Y-76771000D01*
X160000543Y-76771000D01*
X159917000Y-76972690D01*
X159917000Y-77438250D01*
X160075750Y-77597000D01*
X160925000Y-77597000D01*
X160925000Y-77577000D01*
X161179000Y-77577000D01*
X161179000Y-77597000D01*
X161199000Y-77597000D01*
X161199000Y-77851000D01*
X161179000Y-77851000D01*
X161179000Y-78825250D01*
X161337750Y-78984000D01*
X161678309Y-78984000D01*
X161911698Y-78887327D01*
X162052936Y-78746090D01*
X162087910Y-78800441D01*
X162300110Y-78945431D01*
X162552000Y-78996440D01*
X163552000Y-78996440D01*
X163787317Y-78952162D01*
X164003441Y-78813090D01*
X164148431Y-78600890D01*
X164199440Y-78349000D01*
X164199440Y-77099000D01*
X164162000Y-76900024D01*
X164162000Y-76783440D01*
X164252000Y-76783440D01*
X164487317Y-76739162D01*
X164703441Y-76600090D01*
X164848431Y-76387890D01*
X164899440Y-76136000D01*
X164899440Y-74036000D01*
X164855162Y-73800683D01*
X164716090Y-73584559D01*
X164693606Y-73569196D01*
X165629989Y-72632813D01*
X165629989Y-76081989D01*
X165687841Y-76372828D01*
X165852588Y-76619390D01*
X165910994Y-76677796D01*
X165790257Y-76727683D01*
X165527008Y-76990473D01*
X165384362Y-77334001D01*
X165384038Y-77705967D01*
X165526083Y-78049743D01*
X165788873Y-78312992D01*
X166132401Y-78455638D01*
X166504367Y-78455962D01*
X166848143Y-78313917D01*
X166881318Y-78280800D01*
X166913998Y-78280800D01*
X167404560Y-78771362D01*
X167404560Y-79644000D01*
X167448838Y-79879317D01*
X167587910Y-80095441D01*
X167800110Y-80240431D01*
X168052000Y-80291440D01*
X168752000Y-80291440D01*
X168987317Y-80247162D01*
X169203441Y-80108090D01*
X169348431Y-79895890D01*
X169351081Y-79882803D01*
X169487910Y-80095441D01*
X169700110Y-80240431D01*
X169952000Y-80291440D01*
X170652000Y-80291440D01*
X170887317Y-80247162D01*
X171103441Y-80108090D01*
X171190318Y-79980941D01*
X171247910Y-80070441D01*
X171460110Y-80215431D01*
X171712000Y-80266440D01*
X172712000Y-80266440D01*
X172947317Y-80222162D01*
X173163441Y-80083090D01*
X173209969Y-80014994D01*
X173352302Y-80157327D01*
X173585691Y-80254000D01*
X173926250Y-80254000D01*
X174085000Y-80095250D01*
X174085000Y-79121000D01*
X174065000Y-79121000D01*
X174065000Y-78867000D01*
X174085000Y-78867000D01*
X174085000Y-78847000D01*
X174339000Y-78847000D01*
X174339000Y-78867000D01*
X175188250Y-78867000D01*
X175347000Y-78708250D01*
X175347000Y-78669217D01*
X175899583Y-79221800D01*
X175928046Y-79240818D01*
X175702996Y-79391192D01*
X175628320Y-79465868D01*
X175582833Y-79465828D01*
X175347000Y-79563272D01*
X175347000Y-79279750D01*
X175188250Y-79121000D01*
X174339000Y-79121000D01*
X174339000Y-80095250D01*
X174497750Y-80254000D01*
X174833127Y-80254000D01*
X174832838Y-80586157D01*
X174974883Y-80929933D01*
X175008000Y-80963108D01*
X175008000Y-81155013D01*
X173501200Y-82661813D01*
X173158000Y-82661813D01*
X172000786Y-81504599D01*
X171754224Y-81339852D01*
X171463385Y-81282000D01*
X167193000Y-81282000D01*
X166902161Y-81339852D01*
X166655599Y-81504599D01*
X165889132Y-82271066D01*
X165630327Y-82011808D01*
X165286799Y-81869162D01*
X164914833Y-81868838D01*
X164660181Y-81974058D01*
X164660480Y-81630251D01*
X164518435Y-81286475D01*
X164255645Y-81023226D01*
X163912117Y-80880580D01*
X163540151Y-80880256D01*
X163196375Y-81022301D01*
X162933126Y-81285091D01*
X162790480Y-81628619D01*
X162790439Y-81675495D01*
X162571599Y-81894335D01*
X162406852Y-82140897D01*
X162349000Y-82431736D01*
X162349000Y-83128560D01*
X162309000Y-83128560D01*
X162127576Y-83162697D01*
X161959000Y-83128560D01*
X161659000Y-83128560D01*
X161423683Y-83172838D01*
X161207559Y-83311910D01*
X161062569Y-83524110D01*
X161011560Y-83776000D01*
X161011560Y-85376000D01*
X161014492Y-85391580D01*
X160949000Y-85549690D01*
X160949000Y-87090250D01*
X161107750Y-87249000D01*
X163957000Y-87249000D01*
X163957000Y-87229000D01*
X164211000Y-87229000D01*
X164211000Y-87249000D01*
X167060250Y-87249000D01*
X167219000Y-87090250D01*
X167219000Y-85549690D01*
X167153358Y-85391217D01*
X167156440Y-85376000D01*
X167156440Y-84737082D01*
X167199201Y-84754838D01*
X167571167Y-84755162D01*
X167914943Y-84613117D01*
X167948118Y-84580000D01*
X172396263Y-84580000D01*
X172656798Y-84631824D01*
X174446176Y-84631824D01*
X174737015Y-84573972D01*
X174983577Y-84409225D01*
X177431680Y-81961122D01*
X177477167Y-81961162D01*
X177820943Y-81819117D01*
X177854118Y-81786000D01*
X182199001Y-81786000D01*
X182198838Y-81973167D01*
X182340883Y-82316943D01*
X182603673Y-82580192D01*
X182947201Y-82722838D01*
X182994077Y-82722879D01*
X184237601Y-83966403D01*
X184484162Y-84131150D01*
X184775002Y-84189002D01*
X187427560Y-84189002D01*
X187427560Y-85376000D01*
X187430492Y-85391580D01*
X187365000Y-85549690D01*
X187365000Y-87090250D01*
X187523750Y-87249000D01*
X190373000Y-87249000D01*
X190373000Y-87229000D01*
X190627000Y-87229000D01*
X190627000Y-87249000D01*
X193476250Y-87249000D01*
X193635000Y-87090250D01*
X193635000Y-85549690D01*
X193569358Y-85391217D01*
X193572440Y-85376000D01*
X193572440Y-83776000D01*
X193535000Y-83577024D01*
X193535000Y-82107444D01*
X193578192Y-82064327D01*
X193720838Y-81720799D01*
X193721162Y-81348833D01*
X193579117Y-81005057D01*
X193316327Y-80741808D01*
X192972799Y-80599162D01*
X192600833Y-80598838D01*
X192257057Y-80740883D01*
X191993808Y-81003673D01*
X191859977Y-81325971D01*
X190397595Y-79863589D01*
X190151033Y-79698842D01*
X189860194Y-79640990D01*
X187932435Y-79640990D01*
X187735844Y-79444399D01*
X195084337Y-79444399D01*
X195375176Y-79386547D01*
X195531826Y-79281877D01*
X195621801Y-79319238D01*
X195993767Y-79319562D01*
X196337543Y-79177517D01*
X196600792Y-78914727D01*
X196727000Y-78610786D01*
X196727000Y-83553988D01*
X196677162Y-83674011D01*
X196676838Y-84045977D01*
X196818883Y-84389753D01*
X197081673Y-84653002D01*
X197425201Y-84795648D01*
X197797167Y-84795972D01*
X198140943Y-84653927D01*
X198404192Y-84391137D01*
X198546838Y-84047609D01*
X198547162Y-83675643D01*
X198497000Y-83554241D01*
X198497000Y-79093174D01*
X198580273Y-79176592D01*
X198923801Y-79319238D01*
X198970677Y-79319279D01*
X203639798Y-83988400D01*
X203886360Y-84153147D01*
X204177199Y-84210999D01*
X213335560Y-84210999D01*
X213335560Y-85376000D01*
X213338492Y-85391580D01*
X213273000Y-85549690D01*
X213273000Y-87090250D01*
X213431750Y-87249000D01*
X216281000Y-87249000D01*
X216281000Y-87229000D01*
X216535000Y-87229000D01*
X216535000Y-87249000D01*
X219384250Y-87249000D01*
X219543000Y-87090250D01*
X219543000Y-85549690D01*
X219477358Y-85391217D01*
X219480440Y-85376000D01*
X219480440Y-83776000D01*
X219454000Y-83635484D01*
X219454000Y-83112463D01*
X219486192Y-83080327D01*
X219628838Y-82736799D01*
X219629162Y-82364833D01*
X219487117Y-82021057D01*
X219224327Y-81757808D01*
X218880799Y-81615162D01*
X218508833Y-81614838D01*
X218165057Y-81756883D01*
X217901808Y-82019673D01*
X217848805Y-82147319D01*
X217842053Y-82144515D01*
X217470087Y-82144191D01*
X217126311Y-82286236D01*
X217071677Y-82340774D01*
X216975799Y-82300962D01*
X216843000Y-82300846D01*
X216843000Y-80447000D01*
X216834877Y-80406163D01*
X216835162Y-80078833D01*
X216693117Y-79735057D01*
X216430327Y-79471808D01*
X216086799Y-79329162D01*
X215714833Y-79328838D01*
X215371057Y-79470883D01*
X215107808Y-79733673D01*
X214965162Y-80077201D01*
X214964838Y-80449167D01*
X215106883Y-80792943D01*
X215323000Y-81009437D01*
X215323000Y-82690999D01*
X204492001Y-82690999D01*
X200045722Y-78244720D01*
X200045762Y-78199233D01*
X199903717Y-77855457D01*
X199640927Y-77592208D01*
X199297399Y-77449562D01*
X198925433Y-77449238D01*
X198581657Y-77591283D01*
X198497000Y-77675792D01*
X198497000Y-77306000D01*
X208839560Y-77306000D01*
X208839560Y-80736000D01*
X208883838Y-80971317D01*
X209022910Y-81187441D01*
X209235110Y-81332431D01*
X209487000Y-81383440D01*
X211137000Y-81383440D01*
X211372317Y-81339162D01*
X211588441Y-81200090D01*
X211733431Y-80987890D01*
X211784440Y-80736000D01*
X211784440Y-77306000D01*
X220523560Y-77306000D01*
X220523560Y-80736000D01*
X220567838Y-80971317D01*
X220706910Y-81187441D01*
X220919110Y-81332431D01*
X221171000Y-81383440D01*
X222821000Y-81383440D01*
X223056317Y-81339162D01*
X223272441Y-81200090D01*
X223417431Y-80987890D01*
X223468440Y-80736000D01*
X223468440Y-77306000D01*
X223424162Y-77070683D01*
X223285090Y-76854559D01*
X223072890Y-76709569D01*
X222821000Y-76658560D01*
X221171000Y-76658560D01*
X220935683Y-76702838D01*
X220719559Y-76841910D01*
X220574569Y-77054110D01*
X220523560Y-77306000D01*
X211784440Y-77306000D01*
X211740162Y-77070683D01*
X211601090Y-76854559D01*
X211388890Y-76709569D01*
X211137000Y-76658560D01*
X209487000Y-76658560D01*
X209251683Y-76702838D01*
X209035559Y-76841910D01*
X208890569Y-77054110D01*
X208839560Y-77306000D01*
X198497000Y-77306000D01*
X198497000Y-74562005D01*
X198497001Y-74562000D01*
X198431784Y-74234138D01*
X198429633Y-74223325D01*
X198237790Y-73936210D01*
X198237787Y-73936208D01*
X196723330Y-72421750D01*
X204977000Y-72421750D01*
X204977000Y-72897309D01*
X205073673Y-73130698D01*
X205252301Y-73309327D01*
X205485690Y-73406000D01*
X206596250Y-73406000D01*
X206755000Y-73247250D01*
X206755000Y-72263000D01*
X207009000Y-72263000D01*
X207009000Y-73247250D01*
X207167750Y-73406000D01*
X208278310Y-73406000D01*
X208511699Y-73309327D01*
X208690327Y-73130698D01*
X208787000Y-72897309D01*
X208787000Y-72421750D01*
X208628250Y-72263000D01*
X207009000Y-72263000D01*
X206755000Y-72263000D01*
X205135750Y-72263000D01*
X204977000Y-72421750D01*
X196723330Y-72421750D01*
X195676271Y-71374691D01*
X204977000Y-71374691D01*
X204977000Y-71850250D01*
X205135750Y-72009000D01*
X206755000Y-72009000D01*
X206755000Y-71024750D01*
X207009000Y-71024750D01*
X207009000Y-72009000D01*
X208628250Y-72009000D01*
X208787000Y-71850250D01*
X208787000Y-71374691D01*
X208690327Y-71141302D01*
X208511699Y-70962673D01*
X208278310Y-70866000D01*
X207167750Y-70866000D01*
X207009000Y-71024750D01*
X206755000Y-71024750D01*
X206596250Y-70866000D01*
X205485690Y-70866000D01*
X205252301Y-70962673D01*
X205073673Y-71141302D01*
X204977000Y-71374691D01*
X195676271Y-71374691D01*
X194074999Y-69773419D01*
X194074999Y-69421750D01*
X204977000Y-69421750D01*
X204977000Y-69897309D01*
X205073673Y-70130698D01*
X205252301Y-70309327D01*
X205485690Y-70406000D01*
X206596250Y-70406000D01*
X206755000Y-70247250D01*
X206755000Y-69263000D01*
X207009000Y-69263000D01*
X207009000Y-70247250D01*
X207167750Y-70406000D01*
X208278310Y-70406000D01*
X208511699Y-70309327D01*
X208690327Y-70130698D01*
X208787000Y-69897309D01*
X208787000Y-69421750D01*
X208628250Y-69263000D01*
X207009000Y-69263000D01*
X206755000Y-69263000D01*
X205135750Y-69263000D01*
X204977000Y-69421750D01*
X194074999Y-69421750D01*
X194074999Y-69369440D01*
X194340000Y-69369440D01*
X194575317Y-69325162D01*
X194791441Y-69186090D01*
X194936431Y-68973890D01*
X194987440Y-68722000D01*
X194987440Y-67422000D01*
X194943162Y-67186683D01*
X194804090Y-66970559D01*
X194750000Y-66933601D01*
X194750000Y-64275750D01*
X197605000Y-64275750D01*
X197605000Y-65366309D01*
X197701673Y-65599698D01*
X197880301Y-65778327D01*
X198113690Y-65875000D01*
X199104250Y-65875000D01*
X199263000Y-65716250D01*
X199263000Y-64117000D01*
X199517000Y-64117000D01*
X199517000Y-65716250D01*
X199675750Y-65875000D01*
X200666310Y-65875000D01*
X200899699Y-65778327D01*
X201078327Y-65599698D01*
X201175000Y-65366309D01*
X201175000Y-64275750D01*
X201016250Y-64117000D01*
X199517000Y-64117000D01*
X199263000Y-64117000D01*
X197763750Y-64117000D01*
X197605000Y-64275750D01*
X194750000Y-64275750D01*
X194750000Y-63752000D01*
X196188000Y-63752000D01*
X196478839Y-63694148D01*
X196725401Y-63529401D01*
X197605000Y-62649802D01*
X197605000Y-63704250D01*
X197763750Y-63863000D01*
X199263000Y-63863000D01*
X199263000Y-62263750D01*
X199517000Y-62263750D01*
X199517000Y-63863000D01*
X201016250Y-63863000D01*
X201175000Y-63704250D01*
X201175000Y-62613691D01*
X201078327Y-62380302D01*
X200899699Y-62201673D01*
X200666310Y-62105000D01*
X199675750Y-62105000D01*
X199517000Y-62263750D01*
X199263000Y-62263750D01*
X199104250Y-62105000D01*
X198149802Y-62105000D01*
X198667362Y-61587440D01*
X200540000Y-61587440D01*
X200775317Y-61543162D01*
X200991441Y-61404090D01*
X201136431Y-61191890D01*
X201187440Y-60940000D01*
X201187440Y-58867362D01*
X203051601Y-57003201D01*
X203216348Y-56756639D01*
X203274200Y-56465800D01*
X203274200Y-56112263D01*
X203306392Y-56080127D01*
X203449038Y-55736599D01*
X203449362Y-55364633D01*
X203440010Y-55342000D01*
X208795995Y-55342000D01*
X208796000Y-55342001D01*
X208824591Y-55336314D01*
X207781011Y-55767512D01*
X206900604Y-56646384D01*
X206423544Y-57795272D01*
X206422458Y-59039270D01*
X206897512Y-60188989D01*
X207776384Y-61069396D01*
X208925272Y-61546456D01*
X210169270Y-61547542D01*
X211318989Y-61072488D01*
X212199396Y-60193616D01*
X212676456Y-59044728D01*
X212677542Y-57800730D01*
X212202488Y-56651011D01*
X211323616Y-55770604D01*
X210174728Y-55293544D01*
X209044564Y-55292557D01*
X209107693Y-55280000D01*
X209134675Y-55274633D01*
X209421790Y-55082790D01*
X212940139Y-51564440D01*
X213336000Y-51564440D01*
X213571317Y-51520162D01*
X213787441Y-51381090D01*
X213932431Y-51168890D01*
X213983440Y-50917000D01*
X213983440Y-50493000D01*
X214340560Y-50493000D01*
X214340560Y-50608000D01*
X214384838Y-50843317D01*
X214523910Y-51059441D01*
X214736110Y-51204431D01*
X214988000Y-51255440D01*
X215603000Y-51255440D01*
X215603000Y-57300549D01*
X215558560Y-57520000D01*
X215558560Y-59320000D01*
X215602838Y-59555317D01*
X215741910Y-59771441D01*
X215954110Y-59916431D01*
X216206000Y-59967440D01*
X218706000Y-59967440D01*
X218794256Y-59950834D01*
X221731983Y-62888560D01*
X221171000Y-62888560D01*
X220935683Y-62932838D01*
X220719559Y-63071910D01*
X220574569Y-63284110D01*
X220523560Y-63536000D01*
X220523560Y-66966000D01*
X220567838Y-67201317D01*
X220706910Y-67417441D01*
X220919110Y-67562431D01*
X221171000Y-67613440D01*
X222821000Y-67613440D01*
X223056317Y-67569162D01*
X223272441Y-67430090D01*
X223417431Y-67217890D01*
X223468440Y-66966000D01*
X223468440Y-64625017D01*
X224541000Y-65697577D01*
X224541000Y-67853560D01*
X224156000Y-67853560D01*
X223920683Y-67897838D01*
X223704559Y-68036910D01*
X223559569Y-68249110D01*
X223508560Y-68501000D01*
X223508560Y-69166861D01*
X220483440Y-72191980D01*
X220483440Y-71501000D01*
X220439162Y-71265683D01*
X220300090Y-71049559D01*
X220087890Y-70904569D01*
X219836000Y-70853560D01*
X219352099Y-70853560D01*
X219374838Y-70798799D01*
X219375162Y-70426833D01*
X219371694Y-70418440D01*
X219836000Y-70418440D01*
X220071317Y-70374162D01*
X220287441Y-70235090D01*
X220432431Y-70022890D01*
X220483440Y-69771000D01*
X220483440Y-68501000D01*
X220439162Y-68265683D01*
X220300090Y-68049559D01*
X220087890Y-67904569D01*
X219836000Y-67853560D01*
X217296000Y-67853560D01*
X217060683Y-67897838D01*
X216952350Y-67967548D01*
X216549602Y-67564800D01*
X216303040Y-67400053D01*
X216012201Y-67342201D01*
X211648493Y-67342201D01*
X211733431Y-67217890D01*
X211784440Y-66966000D01*
X211784440Y-63536000D01*
X211740162Y-63300683D01*
X211601090Y-63084559D01*
X211388890Y-62939569D01*
X211137000Y-62888560D01*
X209487000Y-62888560D01*
X209251683Y-62932838D01*
X209035559Y-63071910D01*
X208890569Y-63284110D01*
X208839560Y-63536000D01*
X208839560Y-66966000D01*
X208883838Y-67201317D01*
X208974494Y-67342201D01*
X201493399Y-67342201D01*
X201202560Y-67400053D01*
X201102187Y-67467120D01*
X201008233Y-67467038D01*
X200664457Y-67609083D01*
X200401208Y-67871873D01*
X200258562Y-68215401D01*
X200258238Y-68587367D01*
X200400283Y-68931143D01*
X200663073Y-69194392D01*
X201006601Y-69337038D01*
X201378567Y-69337362D01*
X201722343Y-69195317D01*
X201985592Y-68932527D01*
X202014794Y-68862201D01*
X204988951Y-68862201D01*
X205135750Y-69009000D01*
X206755000Y-69009000D01*
X206755000Y-68989000D01*
X207009000Y-68989000D01*
X207009000Y-69009000D01*
X208628250Y-69009000D01*
X208775049Y-68862201D01*
X211824560Y-68862201D01*
X211824560Y-69771000D01*
X211868838Y-70006317D01*
X212007910Y-70222441D01*
X212220110Y-70367431D01*
X212472000Y-70418440D01*
X212935969Y-70418440D01*
X212933162Y-70425201D01*
X212932838Y-70797167D01*
X212956139Y-70853560D01*
X212472000Y-70853560D01*
X212236683Y-70897838D01*
X212020559Y-71036910D01*
X211902290Y-71210003D01*
X211883727Y-71191408D01*
X211540199Y-71048762D01*
X211168233Y-71048438D01*
X210824457Y-71190483D01*
X210561208Y-71453273D01*
X210418562Y-71796801D01*
X210418238Y-72168767D01*
X210560283Y-72512543D01*
X210823073Y-72775792D01*
X211166601Y-72918438D01*
X211538567Y-72918762D01*
X211829727Y-72798458D01*
X211868838Y-73006317D01*
X211971591Y-73165999D01*
X209737006Y-73165999D01*
X209737001Y-73165998D01*
X209453249Y-73222441D01*
X209398326Y-73233366D01*
X209111211Y-73425209D01*
X209111209Y-73425212D01*
X208539318Y-73997103D01*
X208403890Y-73904569D01*
X208152000Y-73853560D01*
X205612000Y-73853560D01*
X205376683Y-73897838D01*
X205160559Y-74036910D01*
X205015569Y-74249110D01*
X204964560Y-74501000D01*
X204964560Y-75771000D01*
X205008838Y-76006317D01*
X205147910Y-76222441D01*
X205360110Y-76367431D01*
X205612000Y-76418440D01*
X208152000Y-76418440D01*
X208387317Y-76374162D01*
X208603441Y-76235090D01*
X208748431Y-76022890D01*
X208752877Y-76000935D01*
X208959405Y-75959853D01*
X208990675Y-75953633D01*
X209277790Y-75761790D01*
X210103580Y-74935999D01*
X210778046Y-74935999D01*
X210647162Y-75251201D01*
X210646838Y-75623167D01*
X210788883Y-75966943D01*
X211051673Y-76230192D01*
X211395201Y-76372838D01*
X211767167Y-76373162D01*
X212054650Y-76254377D01*
X212220110Y-76367431D01*
X212472000Y-76418440D01*
X215012000Y-76418440D01*
X215247317Y-76374162D01*
X215463441Y-76235090D01*
X215608431Y-76022890D01*
X215618863Y-75971374D01*
X215623673Y-75976192D01*
X215967201Y-76118838D01*
X216339167Y-76119162D01*
X216682943Y-75977117D01*
X216686648Y-75973419D01*
X216692838Y-76006317D01*
X216831910Y-76222441D01*
X217044110Y-76367431D01*
X217296000Y-76418440D01*
X219836000Y-76418440D01*
X220071317Y-76374162D01*
X220287441Y-76235090D01*
X220432431Y-76022890D01*
X220483440Y-75771000D01*
X220483440Y-75421750D01*
X223521000Y-75421750D01*
X223521000Y-75897309D01*
X223617673Y-76130698D01*
X223796301Y-76309327D01*
X224029690Y-76406000D01*
X225140250Y-76406000D01*
X225299000Y-76247250D01*
X225299000Y-75263000D01*
X225553000Y-75263000D01*
X225553000Y-76247250D01*
X225711750Y-76406000D01*
X226822310Y-76406000D01*
X227055699Y-76309327D01*
X227234327Y-76130698D01*
X227331000Y-75897309D01*
X227331000Y-75421750D01*
X227172250Y-75263000D01*
X225553000Y-75263000D01*
X225299000Y-75263000D01*
X223679750Y-75263000D01*
X223521000Y-75421750D01*
X220483440Y-75421750D01*
X220483440Y-74689051D01*
X220501791Y-74676789D01*
X220803888Y-74374691D01*
X223521000Y-74374691D01*
X223521000Y-74850250D01*
X223679750Y-75009000D01*
X225299000Y-75009000D01*
X225299000Y-74024750D01*
X225553000Y-74024750D01*
X225553000Y-75009000D01*
X227172250Y-75009000D01*
X227331000Y-74850250D01*
X227331000Y-74374691D01*
X227234327Y-74141302D01*
X227055699Y-73962673D01*
X226822310Y-73866000D01*
X225711750Y-73866000D01*
X225553000Y-74024750D01*
X225299000Y-74024750D01*
X225140250Y-73866000D01*
X224029690Y-73866000D01*
X223796301Y-73962673D01*
X223617673Y-74141302D01*
X223521000Y-74374691D01*
X220803888Y-74374691D01*
X222756829Y-72421750D01*
X223521000Y-72421750D01*
X223521000Y-72897309D01*
X223617673Y-73130698D01*
X223796301Y-73309327D01*
X224029690Y-73406000D01*
X225140250Y-73406000D01*
X225299000Y-73247250D01*
X225299000Y-72263000D01*
X225553000Y-72263000D01*
X225553000Y-73247250D01*
X225711750Y-73406000D01*
X226822310Y-73406000D01*
X227055699Y-73309327D01*
X227234327Y-73130698D01*
X227331000Y-72897309D01*
X227331000Y-72421750D01*
X227172250Y-72263000D01*
X225553000Y-72263000D01*
X225299000Y-72263000D01*
X223679750Y-72263000D01*
X223521000Y-72421750D01*
X222756829Y-72421750D01*
X223521000Y-71657579D01*
X223521000Y-71850250D01*
X223679750Y-72009000D01*
X225299000Y-72009000D01*
X225299000Y-71024750D01*
X225553000Y-71024750D01*
X225553000Y-72009000D01*
X227172250Y-72009000D01*
X227331000Y-71850250D01*
X227331000Y-71374691D01*
X227234327Y-71141302D01*
X227055699Y-70962673D01*
X226822310Y-70866000D01*
X225711750Y-70866000D01*
X225553000Y-71024750D01*
X225299000Y-71024750D01*
X225140250Y-70866000D01*
X224312579Y-70866000D01*
X224760139Y-70418440D01*
X226696000Y-70418440D01*
X226931317Y-70374162D01*
X227147441Y-70235090D01*
X227292431Y-70022890D01*
X227343440Y-69771000D01*
X227343440Y-68501000D01*
X227299162Y-68265683D01*
X227160090Y-68049559D01*
X226947890Y-67904569D01*
X226696000Y-67853560D01*
X226311000Y-67853560D01*
X226311000Y-65331003D01*
X226311001Y-65330998D01*
X226243633Y-64992323D01*
X226187959Y-64909001D01*
X226051790Y-64705208D01*
X226051787Y-64705206D01*
X221502332Y-60155750D01*
X224575000Y-60155750D01*
X224575000Y-60446309D01*
X224671673Y-60679698D01*
X224850301Y-60858327D01*
X225083690Y-60955000D01*
X225774250Y-60955000D01*
X225933000Y-60796250D01*
X225933000Y-59997000D01*
X226187000Y-59997000D01*
X226187000Y-60796250D01*
X226345750Y-60955000D01*
X227036310Y-60955000D01*
X227269699Y-60858327D01*
X227448327Y-60679698D01*
X227545000Y-60446309D01*
X227545000Y-60155750D01*
X227386250Y-59997000D01*
X226187000Y-59997000D01*
X225933000Y-59997000D01*
X224733750Y-59997000D01*
X224575000Y-60155750D01*
X221502332Y-60155750D01*
X221314022Y-59967440D01*
X222706000Y-59967440D01*
X222941317Y-59923162D01*
X223157441Y-59784090D01*
X223302431Y-59571890D01*
X223353440Y-59320000D01*
X223353440Y-59180000D01*
X224622092Y-59180000D01*
X224575000Y-59293691D01*
X224575000Y-59584250D01*
X224733750Y-59743000D01*
X225933000Y-59743000D01*
X225933000Y-58943750D01*
X226187000Y-58943750D01*
X226187000Y-59743000D01*
X227386250Y-59743000D01*
X227545000Y-59584250D01*
X227545000Y-59293691D01*
X227448327Y-59060302D01*
X227269699Y-58881673D01*
X227036310Y-58785000D01*
X226345750Y-58785000D01*
X226187000Y-58943750D01*
X225933000Y-58943750D01*
X225897026Y-58907776D01*
X226597401Y-58207401D01*
X226690920Y-58067440D01*
X226910000Y-58067440D01*
X227145317Y-58023162D01*
X227361441Y-57884090D01*
X227506431Y-57671890D01*
X227557440Y-57420000D01*
X227557440Y-56520000D01*
X227513162Y-56284683D01*
X227374090Y-56068559D01*
X227161890Y-55923569D01*
X226910000Y-55872560D01*
X225210000Y-55872560D01*
X224974683Y-55916838D01*
X224758559Y-56055910D01*
X224613569Y-56268110D01*
X224562560Y-56520000D01*
X224562560Y-57420000D01*
X224606838Y-57655317D01*
X224609851Y-57660000D01*
X223353440Y-57660000D01*
X223353440Y-57520000D01*
X223309162Y-57284683D01*
X223170090Y-57068559D01*
X222957890Y-56923569D01*
X222706000Y-56872560D01*
X220206000Y-56872560D01*
X219970683Y-56916838D01*
X219754559Y-57055910D01*
X219609569Y-57268110D01*
X219558560Y-57520000D01*
X219558560Y-58211978D01*
X219353440Y-58006858D01*
X219353440Y-57520000D01*
X219309162Y-57284683D01*
X219170090Y-57068559D01*
X218957890Y-56923569D01*
X218706000Y-56872560D01*
X217373000Y-56872560D01*
X217373000Y-51255440D01*
X217988000Y-51255440D01*
X218223317Y-51211162D01*
X218439441Y-51072090D01*
X218584431Y-50859890D01*
X218635440Y-50608000D01*
X218635440Y-49893750D01*
X224353000Y-49893750D01*
X224353000Y-50734310D01*
X224449673Y-50967699D01*
X224628302Y-51146327D01*
X224861691Y-51243000D01*
X226202250Y-51243000D01*
X226361000Y-51084250D01*
X226361000Y-49735000D01*
X226615000Y-49735000D01*
X226615000Y-51084250D01*
X226773750Y-51243000D01*
X228114309Y-51243000D01*
X228347698Y-51146327D01*
X228526327Y-50967699D01*
X228623000Y-50734310D01*
X228623000Y-49893750D01*
X228464250Y-49735000D01*
X226615000Y-49735000D01*
X226361000Y-49735000D01*
X224511750Y-49735000D01*
X224353000Y-49893750D01*
X218635440Y-49893750D01*
X218635440Y-48608000D01*
X218602285Y-48431795D01*
X219852716Y-48431795D01*
X220101106Y-49032943D01*
X220560637Y-49493278D01*
X221161352Y-49742716D01*
X221811795Y-49743284D01*
X222412943Y-49494894D01*
X222873278Y-49035363D01*
X223103182Y-48481690D01*
X224353000Y-48481690D01*
X224353000Y-49322250D01*
X224511750Y-49481000D01*
X226361000Y-49481000D01*
X226361000Y-48131750D01*
X226615000Y-48131750D01*
X226615000Y-49481000D01*
X228464250Y-49481000D01*
X228623000Y-49322250D01*
X228623000Y-48481690D01*
X228526327Y-48248301D01*
X228347698Y-48069673D01*
X228114309Y-47973000D01*
X226773750Y-47973000D01*
X226615000Y-48131750D01*
X226361000Y-48131750D01*
X226202250Y-47973000D01*
X224861691Y-47973000D01*
X224628302Y-48069673D01*
X224449673Y-48248301D01*
X224353000Y-48481690D01*
X223103182Y-48481690D01*
X223122716Y-48434648D01*
X223123284Y-47784205D01*
X222874894Y-47183057D01*
X222415363Y-46722722D01*
X221814648Y-46473284D01*
X221164205Y-46472716D01*
X220563057Y-46721106D01*
X220102722Y-47180637D01*
X219853284Y-47781352D01*
X219852716Y-48431795D01*
X218602285Y-48431795D01*
X218591162Y-48372683D01*
X218452090Y-48156559D01*
X218239890Y-48011569D01*
X217988000Y-47960560D01*
X214988000Y-47960560D01*
X214752683Y-48004838D01*
X214536559Y-48143910D01*
X214391569Y-48356110D01*
X214340560Y-48608000D01*
X214340560Y-48723000D01*
X213868128Y-48723000D01*
X213932431Y-48628890D01*
X213983440Y-48377000D01*
X213983440Y-47127000D01*
X213941812Y-46905768D01*
X215592139Y-45255440D01*
X217988000Y-45255440D01*
X218223317Y-45211162D01*
X218439441Y-45072090D01*
X218584431Y-44859890D01*
X218635440Y-44608000D01*
X218635440Y-44031795D01*
X219852716Y-44031795D01*
X220101106Y-44632943D01*
X220560637Y-45093278D01*
X221161352Y-45342716D01*
X221811795Y-45343284D01*
X222412943Y-45094894D01*
X222873278Y-44635363D01*
X223122716Y-44034648D01*
X223122839Y-43893750D01*
X224353000Y-43893750D01*
X224353000Y-44734310D01*
X224449673Y-44967699D01*
X224628302Y-45146327D01*
X224861691Y-45243000D01*
X226202250Y-45243000D01*
X226361000Y-45084250D01*
X226361000Y-43735000D01*
X226615000Y-43735000D01*
X226615000Y-45084250D01*
X226773750Y-45243000D01*
X228114309Y-45243000D01*
X228347698Y-45146327D01*
X228526327Y-44967699D01*
X228623000Y-44734310D01*
X228623000Y-43893750D01*
X228464250Y-43735000D01*
X226615000Y-43735000D01*
X226361000Y-43735000D01*
X224511750Y-43735000D01*
X224353000Y-43893750D01*
X223122839Y-43893750D01*
X223123284Y-43384205D01*
X222874894Y-42783057D01*
X222415363Y-42322722D01*
X221814648Y-42073284D01*
X221164205Y-42072716D01*
X220563057Y-42321106D01*
X220102722Y-42780637D01*
X219853284Y-43381352D01*
X219852716Y-44031795D01*
X218635440Y-44031795D01*
X218635440Y-42608000D01*
X218591162Y-42372683D01*
X218452090Y-42156559D01*
X218277110Y-42037000D01*
X224707182Y-42037000D01*
X224628302Y-42069673D01*
X224449673Y-42248301D01*
X224353000Y-42481690D01*
X224353000Y-43322250D01*
X224511750Y-43481000D01*
X226361000Y-43481000D01*
X226361000Y-43461000D01*
X226615000Y-43461000D01*
X226615000Y-43481000D01*
X228464250Y-43481000D01*
X228623000Y-43322250D01*
X228623000Y-42481690D01*
X228526327Y-42248301D01*
X228347698Y-42069673D01*
X228268818Y-42037000D01*
X229743000Y-42037000D01*
X229743000Y-107823000D01*
X153797000Y-107823000D01*
X153797000Y-104364000D01*
X155832560Y-104364000D01*
X155832560Y-106964000D01*
X155876838Y-107199317D01*
X156015910Y-107415441D01*
X156228110Y-107560431D01*
X156480000Y-107611440D01*
X158480000Y-107611440D01*
X158715317Y-107567162D01*
X158931441Y-107428090D01*
X159036951Y-107273671D01*
X159394313Y-107512452D01*
X160020000Y-107636909D01*
X160645687Y-107512452D01*
X161176120Y-107158029D01*
X161290000Y-106987595D01*
X161403880Y-107158029D01*
X161934313Y-107512452D01*
X162560000Y-107636909D01*
X163185687Y-107512452D01*
X163716120Y-107158029D01*
X163830000Y-106987595D01*
X163943880Y-107158029D01*
X164474313Y-107512452D01*
X165100000Y-107636909D01*
X165725687Y-107512452D01*
X166256120Y-107158029D01*
X166370000Y-106987595D01*
X166483880Y-107158029D01*
X167014313Y-107512452D01*
X167640000Y-107636909D01*
X168265687Y-107512452D01*
X168796120Y-107158029D01*
X169150543Y-106627596D01*
X169275000Y-106001909D01*
X169275000Y-105326091D01*
X169150543Y-104700404D01*
X168925766Y-104364000D01*
X181740560Y-104364000D01*
X181740560Y-106964000D01*
X181784838Y-107199317D01*
X181923910Y-107415441D01*
X182136110Y-107560431D01*
X182388000Y-107611440D01*
X184388000Y-107611440D01*
X184623317Y-107567162D01*
X184839441Y-107428090D01*
X184944951Y-107273671D01*
X185302313Y-107512452D01*
X185928000Y-107636909D01*
X186553687Y-107512452D01*
X187084120Y-107158029D01*
X187198000Y-106987595D01*
X187311880Y-107158029D01*
X187842313Y-107512452D01*
X188468000Y-107636909D01*
X189093687Y-107512452D01*
X189624120Y-107158029D01*
X189738000Y-106987595D01*
X189851880Y-107158029D01*
X190382313Y-107512452D01*
X191008000Y-107636909D01*
X191633687Y-107512452D01*
X192164120Y-107158029D01*
X192278000Y-106987595D01*
X192391880Y-107158029D01*
X192922313Y-107512452D01*
X193548000Y-107636909D01*
X194173687Y-107512452D01*
X194704120Y-107158029D01*
X195058543Y-106627596D01*
X195183000Y-106001909D01*
X195183000Y-105326091D01*
X195058543Y-104700404D01*
X194833766Y-104364000D01*
X207648560Y-104364000D01*
X207648560Y-106964000D01*
X207692838Y-107199317D01*
X207831910Y-107415441D01*
X208044110Y-107560431D01*
X208296000Y-107611440D01*
X210296000Y-107611440D01*
X210531317Y-107567162D01*
X210747441Y-107428090D01*
X210852951Y-107273671D01*
X211210313Y-107512452D01*
X211836000Y-107636909D01*
X212461687Y-107512452D01*
X212992120Y-107158029D01*
X213106000Y-106987595D01*
X213219880Y-107158029D01*
X213750313Y-107512452D01*
X214376000Y-107636909D01*
X215001687Y-107512452D01*
X215532120Y-107158029D01*
X215646000Y-106987595D01*
X215759880Y-107158029D01*
X216290313Y-107512452D01*
X216916000Y-107636909D01*
X217541687Y-107512452D01*
X218072120Y-107158029D01*
X218186000Y-106987595D01*
X218299880Y-107158029D01*
X218830313Y-107512452D01*
X219456000Y-107636909D01*
X220081687Y-107512452D01*
X220612120Y-107158029D01*
X220966543Y-106627596D01*
X221021876Y-106349419D01*
X221243401Y-106201401D01*
X222025401Y-105419401D01*
X222190148Y-105172839D01*
X222248000Y-104882000D01*
X222248000Y-104661834D01*
X223424543Y-104661834D01*
X223824853Y-105630658D01*
X224565443Y-106372542D01*
X225533567Y-106774542D01*
X226581834Y-106775457D01*
X227550658Y-106375147D01*
X228292542Y-105634557D01*
X228694542Y-104666433D01*
X228695457Y-103618166D01*
X228295147Y-102649342D01*
X227554557Y-101907458D01*
X226586433Y-101505458D01*
X225538166Y-101504543D01*
X224569342Y-101904853D01*
X223827458Y-102645443D01*
X223425458Y-103613567D01*
X223424543Y-104661834D01*
X222248000Y-104661834D01*
X222248000Y-100478742D01*
X222373317Y-100455162D01*
X222589441Y-100316090D01*
X222734431Y-100103890D01*
X222785440Y-99852000D01*
X222785440Y-99152000D01*
X222741162Y-98916683D01*
X222602090Y-98700559D01*
X222389890Y-98555569D01*
X222376803Y-98552919D01*
X222589441Y-98416090D01*
X222734431Y-98203890D01*
X222785440Y-97952000D01*
X222785440Y-97252000D01*
X222741162Y-97016683D01*
X222602090Y-96800559D01*
X222389890Y-96655569D01*
X222138000Y-96604560D01*
X222118920Y-96604560D01*
X222025401Y-96464599D01*
X218793000Y-93232198D01*
X218793000Y-91623440D01*
X218833000Y-91623440D01*
X219068317Y-91579162D01*
X219277046Y-91444848D01*
X224487200Y-96655002D01*
X224487200Y-99253198D01*
X223456520Y-100283878D01*
X223411033Y-100283838D01*
X223067257Y-100425883D01*
X222804008Y-100688673D01*
X222661362Y-101032201D01*
X222661038Y-101404167D01*
X222803083Y-101747943D01*
X223065873Y-102011192D01*
X223409401Y-102153838D01*
X223781367Y-102154162D01*
X224125143Y-102012117D01*
X224388392Y-101749327D01*
X224531038Y-101405799D01*
X224531079Y-101358923D01*
X225784601Y-100105401D01*
X225949348Y-99858839D01*
X226007200Y-99568000D01*
X226007200Y-96340200D01*
X225957464Y-96090162D01*
X225949348Y-96049360D01*
X225784601Y-95802799D01*
X219620401Y-89638599D01*
X219480440Y-89545080D01*
X219480440Y-89376000D01*
X219477508Y-89360420D01*
X219543000Y-89202310D01*
X219543000Y-87661750D01*
X219384250Y-87503000D01*
X216535000Y-87503000D01*
X216535000Y-87523000D01*
X216281000Y-87523000D01*
X216281000Y-87503000D01*
X213431750Y-87503000D01*
X213273000Y-87661750D01*
X213273000Y-89202310D01*
X213338642Y-89360783D01*
X213335560Y-89376000D01*
X213335560Y-89807104D01*
X213315367Y-89837325D01*
X213248000Y-90176000D01*
X213248000Y-90459420D01*
X208887164Y-94820256D01*
X208767057Y-94869883D01*
X208503808Y-95132673D01*
X208361162Y-95476201D01*
X208360838Y-95848167D01*
X208411000Y-95969569D01*
X208411000Y-103716560D01*
X208296000Y-103716560D01*
X208060683Y-103760838D01*
X207844559Y-103899910D01*
X207699569Y-104112110D01*
X207648560Y-104364000D01*
X194833766Y-104364000D01*
X194704120Y-104169971D01*
X194308000Y-103905293D01*
X194308000Y-101548802D01*
X195357362Y-100499440D01*
X196230000Y-100499440D01*
X196465317Y-100455162D01*
X196681441Y-100316090D01*
X196826431Y-100103890D01*
X196877440Y-99852000D01*
X196877440Y-99152000D01*
X196833162Y-98916683D01*
X196694090Y-98700559D01*
X196481890Y-98555569D01*
X196468803Y-98552919D01*
X196681441Y-98416090D01*
X196826431Y-98203890D01*
X196877440Y-97952000D01*
X196877440Y-97350378D01*
X200388769Y-100861707D01*
X200360162Y-100930601D01*
X200359838Y-101302567D01*
X200501883Y-101646343D01*
X200764673Y-101909592D01*
X201108201Y-102052238D01*
X201480167Y-102052562D01*
X201823943Y-101910517D01*
X202087192Y-101647727D01*
X202229838Y-101304199D01*
X202230162Y-100932233D01*
X202088117Y-100588457D01*
X202020755Y-100520978D01*
X201997148Y-100402297D01*
X201832401Y-100155735D01*
X193535000Y-91858334D01*
X193535000Y-91160884D01*
X193572440Y-90976000D01*
X193572440Y-89376000D01*
X193569508Y-89360420D01*
X193635000Y-89202310D01*
X193635000Y-87661750D01*
X193476250Y-87503000D01*
X190627000Y-87503000D01*
X190627000Y-87523000D01*
X190373000Y-87523000D01*
X190373000Y-87503000D01*
X187523750Y-87503000D01*
X187365000Y-87661750D01*
X187365000Y-89202310D01*
X187414925Y-89322840D01*
X187236325Y-89358367D01*
X186949210Y-89550210D01*
X186949208Y-89550213D01*
X182979164Y-93520256D01*
X182859057Y-93569883D01*
X182595808Y-93832673D01*
X182453162Y-94176201D01*
X182452838Y-94548167D01*
X182503000Y-94669569D01*
X182503000Y-103716560D01*
X182388000Y-103716560D01*
X182152683Y-103760838D01*
X181936559Y-103899910D01*
X181791569Y-104112110D01*
X181740560Y-104364000D01*
X168925766Y-104364000D01*
X168796120Y-104169971D01*
X168400000Y-103905293D01*
X168400000Y-100499440D01*
X168798000Y-100499440D01*
X169033317Y-100455162D01*
X169249441Y-100316090D01*
X169394431Y-100103890D01*
X169445440Y-99852000D01*
X169445440Y-99152000D01*
X169401162Y-98916683D01*
X169262090Y-98700559D01*
X169049890Y-98555569D01*
X169036803Y-98552919D01*
X169249441Y-98416090D01*
X169394431Y-98203890D01*
X169428256Y-98036858D01*
X172470678Y-101079280D01*
X172470638Y-101124767D01*
X172612683Y-101468543D01*
X172875473Y-101731792D01*
X173219001Y-101874438D01*
X173590967Y-101874762D01*
X173934743Y-101732717D01*
X174197992Y-101469927D01*
X174340638Y-101126399D01*
X174340962Y-100754433D01*
X174198917Y-100410657D01*
X173936127Y-100147408D01*
X173592599Y-100004762D01*
X173545723Y-100004721D01*
X171315272Y-97774270D01*
X175129658Y-97774270D01*
X175604712Y-98923989D01*
X176483584Y-99804396D01*
X177632472Y-100281456D01*
X178876470Y-100282542D01*
X180026189Y-99807488D01*
X180906596Y-98928616D01*
X181383656Y-97779728D01*
X181384742Y-96535730D01*
X180909688Y-95386011D01*
X180030816Y-94505604D01*
X178881928Y-94028544D01*
X177637930Y-94027458D01*
X176488211Y-94502512D01*
X175607804Y-95381384D01*
X175130744Y-96530272D01*
X175129658Y-97774270D01*
X171315272Y-97774270D01*
X167119000Y-93577998D01*
X167119000Y-91160884D01*
X167156440Y-90976000D01*
X167156440Y-89376000D01*
X167153508Y-89360420D01*
X167219000Y-89202310D01*
X167219000Y-87661750D01*
X167060250Y-87503000D01*
X164211000Y-87503000D01*
X164211000Y-87523000D01*
X163957000Y-87523000D01*
X163957000Y-87503000D01*
X161107750Y-87503000D01*
X160949000Y-87661750D01*
X160949000Y-89202310D01*
X161014642Y-89360783D01*
X161011560Y-89376000D01*
X161011560Y-89807104D01*
X160991367Y-89837325D01*
X160924000Y-90176000D01*
X160924000Y-90459421D01*
X157071164Y-94312256D01*
X156951057Y-94361883D01*
X156687808Y-94624673D01*
X156545162Y-94968201D01*
X156544838Y-95340167D01*
X156595000Y-95461569D01*
X156595000Y-103716560D01*
X156480000Y-103716560D01*
X156244683Y-103760838D01*
X156028559Y-103899910D01*
X155883569Y-104112110D01*
X155832560Y-104364000D01*
X153797000Y-104364000D01*
X153797000Y-78009750D01*
X159917000Y-78009750D01*
X159917000Y-78475310D01*
X160013673Y-78708699D01*
X160192302Y-78887327D01*
X160425691Y-78984000D01*
X160766250Y-78984000D01*
X160925000Y-78825250D01*
X160925000Y-77851000D01*
X160075750Y-77851000D01*
X159917000Y-78009750D01*
X153797000Y-78009750D01*
X153797000Y-73909691D01*
X159217000Y-73909691D01*
X159217000Y-74800250D01*
X159375750Y-74959000D01*
X160575000Y-74959000D01*
X160575000Y-73559750D01*
X160416250Y-73401000D01*
X159725690Y-73401000D01*
X159492301Y-73497673D01*
X159313673Y-73676302D01*
X159217000Y-73909691D01*
X153797000Y-73909691D01*
X153797000Y-46339270D01*
X154352458Y-46339270D01*
X154827512Y-47488989D01*
X155706384Y-48369396D01*
X156855272Y-48846456D01*
X158099270Y-48847542D01*
X159248989Y-48372488D01*
X160129396Y-47493616D01*
X160606456Y-46344728D01*
X160607542Y-45100730D01*
X160132488Y-43951011D01*
X159253616Y-43070604D01*
X158104728Y-42593544D01*
X156860730Y-42592458D01*
X155711011Y-43067512D01*
X154830604Y-43946384D01*
X154353544Y-45095272D01*
X154352458Y-46339270D01*
X153797000Y-46339270D01*
X153797000Y-42037000D01*
X168683113Y-42037000D01*
X168654560Y-42178000D01*
X168654560Y-42178000D01*
G37*
X168654560Y-42178000D02*
X168654560Y-44678000D01*
X168698838Y-44913317D01*
X168837910Y-45129441D01*
X169050110Y-45274431D01*
X169302000Y-45325440D01*
X169542000Y-45325440D01*
X169542000Y-47030560D01*
X169302000Y-47030560D01*
X169066683Y-47074838D01*
X168850559Y-47213910D01*
X168705569Y-47426110D01*
X168654560Y-47678000D01*
X168654560Y-50178000D01*
X168698838Y-50413317D01*
X168837910Y-50629441D01*
X169050110Y-50774431D01*
X169201262Y-50805040D01*
X169103559Y-50867910D01*
X168958569Y-51080110D01*
X168907560Y-51332000D01*
X168907560Y-52332000D01*
X168951838Y-52567317D01*
X169090910Y-52783441D01*
X169159006Y-52829969D01*
X169016673Y-52972302D01*
X168920000Y-53205691D01*
X168920000Y-53546250D01*
X169078750Y-53705000D01*
X170053000Y-53705000D01*
X170053000Y-53685000D01*
X170307000Y-53685000D01*
X170307000Y-53705000D01*
X171281250Y-53705000D01*
X171440000Y-53546250D01*
X171440000Y-53205691D01*
X171343327Y-52972302D01*
X171202090Y-52831064D01*
X171256441Y-52796090D01*
X171401431Y-52583890D01*
X171452440Y-52332000D01*
X171452440Y-51332000D01*
X171408162Y-51096683D01*
X171269090Y-50880559D01*
X171188421Y-50825440D01*
X171302000Y-50825440D01*
X171537317Y-50781162D01*
X171753441Y-50642090D01*
X171898431Y-50429890D01*
X171949440Y-50178000D01*
X171949440Y-49688000D01*
X172254560Y-49688000D01*
X172254560Y-50178000D01*
X172298838Y-50413317D01*
X172437910Y-50629441D01*
X172647359Y-50772551D01*
X172638560Y-50816000D01*
X172638560Y-50888638D01*
X172182599Y-51344599D01*
X172017852Y-51591161D01*
X171960000Y-51882000D01*
X171960000Y-53953258D01*
X171834683Y-53976838D01*
X171618559Y-54115910D01*
X171473569Y-54328110D01*
X171422560Y-54580000D01*
X171422560Y-55280000D01*
X171466838Y-55515317D01*
X171605910Y-55731441D01*
X171818110Y-55876431D01*
X171831197Y-55879081D01*
X171618559Y-56015910D01*
X171473569Y-56228110D01*
X171422560Y-56480000D01*
X171422560Y-57180000D01*
X171466838Y-57415317D01*
X171605910Y-57631441D01*
X171818110Y-57776431D01*
X172070000Y-57827440D01*
X172089080Y-57827440D01*
X172182599Y-57967401D01*
X172452000Y-58236802D01*
X172452001Y-63510000D01*
X172243750Y-63510000D01*
X172085000Y-63668750D01*
X172085000Y-64643000D01*
X172105000Y-64643000D01*
X172105000Y-64897000D01*
X172085000Y-64897000D01*
X172085000Y-64917000D01*
X171831000Y-64917000D01*
X171831000Y-64897000D01*
X171811000Y-64897000D01*
X171811000Y-64643000D01*
X171831000Y-64643000D01*
X171831000Y-63668750D01*
X171672250Y-63510000D01*
X171331691Y-63510000D01*
X171098302Y-63606673D01*
X170957064Y-63747910D01*
X170922090Y-63693559D01*
X170709890Y-63548569D01*
X170458000Y-63497560D01*
X169892999Y-63497560D01*
X169892999Y-60844237D01*
X169835147Y-60553398D01*
X169670400Y-60306836D01*
X164653204Y-55289640D01*
X164671226Y-55271618D01*
X164556215Y-55156607D01*
X164798397Y-55087143D01*
X164985144Y-54563698D01*
X164962824Y-54117750D01*
X168920000Y-54117750D01*
X168920000Y-54458309D01*
X169016673Y-54691698D01*
X169195301Y-54870327D01*
X169428690Y-54967000D01*
X169894250Y-54967000D01*
X170053000Y-54808250D01*
X170053000Y-53959000D01*
X170307000Y-53959000D01*
X170307000Y-54808250D01*
X170465750Y-54967000D01*
X170931310Y-54967000D01*
X171164699Y-54870327D01*
X171343327Y-54691698D01*
X171440000Y-54458309D01*
X171440000Y-54117750D01*
X171281250Y-53959000D01*
X170307000Y-53959000D01*
X170053000Y-53959000D01*
X169078750Y-53959000D01*
X168920000Y-54117750D01*
X164962824Y-54117750D01*
X164957362Y-54008632D01*
X164798397Y-53624857D01*
X164556213Y-53555392D01*
X163755605Y-54356000D01*
X163769748Y-54370143D01*
X163590143Y-54549748D01*
X163576000Y-54535605D01*
X163561858Y-54549748D01*
X163382253Y-54370143D01*
X163396395Y-54356000D01*
X162595787Y-53555392D01*
X162445440Y-53598516D01*
X162445440Y-53594000D01*
X162404381Y-53375787D01*
X162775392Y-53375787D01*
X163576000Y-54176395D01*
X164376608Y-53375787D01*
X164307143Y-53133603D01*
X163783698Y-52946856D01*
X163228632Y-52974638D01*
X162844857Y-53133603D01*
X162775392Y-53375787D01*
X162404381Y-53375787D01*
X162401162Y-53358683D01*
X162262090Y-53142559D01*
X162049890Y-52997569D01*
X161798000Y-52946560D01*
X160274000Y-52946560D01*
X160038683Y-52990838D01*
X159822559Y-53129910D01*
X159677569Y-53342110D01*
X159626560Y-53594000D01*
X159626560Y-55118000D01*
X159670838Y-55353317D01*
X159809910Y-55569441D01*
X160022110Y-55714431D01*
X160205124Y-55751492D01*
X159852371Y-56103630D01*
X159639243Y-56616900D01*
X159638758Y-57172661D01*
X159850990Y-57686303D01*
X160243630Y-58079629D01*
X160451512Y-58165949D01*
X160245697Y-58250990D01*
X159852371Y-58643630D01*
X159639243Y-59156900D01*
X159638758Y-59712661D01*
X159850990Y-60226303D01*
X160243630Y-60619629D01*
X160276000Y-60633070D01*
X160276000Y-62230000D01*
X160333852Y-62520839D01*
X160498599Y-62767401D01*
X161624878Y-63893680D01*
X161624838Y-63939167D01*
X161766883Y-64282943D01*
X162029673Y-64546192D01*
X162373201Y-64688838D01*
X162745167Y-64689162D01*
X163088943Y-64547117D01*
X163125610Y-64510514D01*
X163971827Y-65356731D01*
X163971787Y-65402218D01*
X164001743Y-65474718D01*
X163911698Y-65384673D01*
X163678309Y-65288000D01*
X163337750Y-65288000D01*
X163179000Y-65446750D01*
X163179000Y-66421000D01*
X164028250Y-66421000D01*
X164187000Y-66262250D01*
X164187000Y-65819290D01*
X164376622Y-66009243D01*
X164720150Y-66151889D01*
X164902409Y-66152048D01*
X164869569Y-66200110D01*
X164818560Y-66452000D01*
X164818560Y-67152000D01*
X164862838Y-67387317D01*
X165001910Y-67603441D01*
X165214110Y-67748431D01*
X165227197Y-67751081D01*
X165014559Y-67887910D01*
X164887000Y-68074599D01*
X164887000Y-68009691D01*
X164790327Y-67776302D01*
X164611699Y-67597673D01*
X164378310Y-67501000D01*
X164103457Y-67501000D01*
X164187000Y-67299310D01*
X164187000Y-66833750D01*
X164028250Y-66675000D01*
X163179000Y-66675000D01*
X163179000Y-66695000D01*
X162925000Y-66695000D01*
X162925000Y-66675000D01*
X162905000Y-66675000D01*
X162905000Y-66421000D01*
X162925000Y-66421000D01*
X162925000Y-65446750D01*
X162766250Y-65288000D01*
X162425691Y-65288000D01*
X162192302Y-65384673D01*
X162051064Y-65525910D01*
X162016090Y-65471559D01*
X161803890Y-65326569D01*
X161552000Y-65275560D01*
X160552000Y-65275560D01*
X160316683Y-65319838D01*
X160100559Y-65458910D01*
X159955569Y-65671110D01*
X159904560Y-65923000D01*
X159904560Y-67173000D01*
X159942000Y-67371976D01*
X159942000Y-67488560D01*
X159852000Y-67488560D01*
X159616683Y-67532838D01*
X159400559Y-67671910D01*
X159255569Y-67884110D01*
X159204560Y-68136000D01*
X159204560Y-70236000D01*
X159248838Y-70471317D01*
X159387910Y-70687441D01*
X159600110Y-70832431D01*
X159852000Y-70883440D01*
X161124638Y-70883440D01*
X162015600Y-71774402D01*
X162262162Y-71939149D01*
X162553001Y-71997001D01*
X163622001Y-71997001D01*
X163912840Y-71939149D01*
X163989390Y-71888000D01*
X164225198Y-71888000D01*
X162864599Y-73248599D01*
X162771080Y-73388560D01*
X162552000Y-73388560D01*
X162316683Y-73432838D01*
X162100559Y-73571910D01*
X162054031Y-73640006D01*
X161911699Y-73497673D01*
X161678310Y-73401000D01*
X160987750Y-73401000D01*
X160829000Y-73559750D01*
X160829000Y-74959000D01*
X160849000Y-74959000D01*
X160849000Y-75213000D01*
X160829000Y-75213000D01*
X160829000Y-75233000D01*
X160575000Y-75233000D01*
X160575000Y-75213000D01*
X159375750Y-75213000D01*
X159217000Y-75371750D01*
X159217000Y-76262309D01*
X159313673Y-76495698D01*
X159492301Y-76674327D01*
X159725690Y-76771000D01*
X160000543Y-76771000D01*
X159917000Y-76972690D01*
X159917000Y-77438250D01*
X160075750Y-77597000D01*
X160925000Y-77597000D01*
X160925000Y-77577000D01*
X161179000Y-77577000D01*
X161179000Y-77597000D01*
X161199000Y-77597000D01*
X161199000Y-77851000D01*
X161179000Y-77851000D01*
X161179000Y-78825250D01*
X161337750Y-78984000D01*
X161678309Y-78984000D01*
X161911698Y-78887327D01*
X162052936Y-78746090D01*
X162087910Y-78800441D01*
X162300110Y-78945431D01*
X162552000Y-78996440D01*
X163552000Y-78996440D01*
X163787317Y-78952162D01*
X164003441Y-78813090D01*
X164148431Y-78600890D01*
X164199440Y-78349000D01*
X164199440Y-77099000D01*
X164162000Y-76900024D01*
X164162000Y-76783440D01*
X164252000Y-76783440D01*
X164487317Y-76739162D01*
X164703441Y-76600090D01*
X164848431Y-76387890D01*
X164899440Y-76136000D01*
X164899440Y-74036000D01*
X164855162Y-73800683D01*
X164716090Y-73584559D01*
X164693606Y-73569196D01*
X165629989Y-72632813D01*
X165629989Y-76081989D01*
X165687841Y-76372828D01*
X165852588Y-76619390D01*
X165910994Y-76677796D01*
X165790257Y-76727683D01*
X165527008Y-76990473D01*
X165384362Y-77334001D01*
X165384038Y-77705967D01*
X165526083Y-78049743D01*
X165788873Y-78312992D01*
X166132401Y-78455638D01*
X166504367Y-78455962D01*
X166848143Y-78313917D01*
X166881318Y-78280800D01*
X166913998Y-78280800D01*
X167404560Y-78771362D01*
X167404560Y-79644000D01*
X167448838Y-79879317D01*
X167587910Y-80095441D01*
X167800110Y-80240431D01*
X168052000Y-80291440D01*
X168752000Y-80291440D01*
X168987317Y-80247162D01*
X169203441Y-80108090D01*
X169348431Y-79895890D01*
X169351081Y-79882803D01*
X169487910Y-80095441D01*
X169700110Y-80240431D01*
X169952000Y-80291440D01*
X170652000Y-80291440D01*
X170887317Y-80247162D01*
X171103441Y-80108090D01*
X171190318Y-79980941D01*
X171247910Y-80070441D01*
X171460110Y-80215431D01*
X171712000Y-80266440D01*
X172712000Y-80266440D01*
X172947317Y-80222162D01*
X173163441Y-80083090D01*
X173209969Y-80014994D01*
X173352302Y-80157327D01*
X173585691Y-80254000D01*
X173926250Y-80254000D01*
X174085000Y-80095250D01*
X174085000Y-79121000D01*
X174065000Y-79121000D01*
X174065000Y-78867000D01*
X174085000Y-78867000D01*
X174085000Y-78847000D01*
X174339000Y-78847000D01*
X174339000Y-78867000D01*
X175188250Y-78867000D01*
X175347000Y-78708250D01*
X175347000Y-78669217D01*
X175899583Y-79221800D01*
X175928046Y-79240818D01*
X175702996Y-79391192D01*
X175628320Y-79465868D01*
X175582833Y-79465828D01*
X175347000Y-79563272D01*
X175347000Y-79279750D01*
X175188250Y-79121000D01*
X174339000Y-79121000D01*
X174339000Y-80095250D01*
X174497750Y-80254000D01*
X174833127Y-80254000D01*
X174832838Y-80586157D01*
X174974883Y-80929933D01*
X175008000Y-80963108D01*
X175008000Y-81155013D01*
X173501200Y-82661813D01*
X173158000Y-82661813D01*
X172000786Y-81504599D01*
X171754224Y-81339852D01*
X171463385Y-81282000D01*
X167193000Y-81282000D01*
X166902161Y-81339852D01*
X166655599Y-81504599D01*
X165889132Y-82271066D01*
X165630327Y-82011808D01*
X165286799Y-81869162D01*
X164914833Y-81868838D01*
X164660181Y-81974058D01*
X164660480Y-81630251D01*
X164518435Y-81286475D01*
X164255645Y-81023226D01*
X163912117Y-80880580D01*
X163540151Y-80880256D01*
X163196375Y-81022301D01*
X162933126Y-81285091D01*
X162790480Y-81628619D01*
X162790439Y-81675495D01*
X162571599Y-81894335D01*
X162406852Y-82140897D01*
X162349000Y-82431736D01*
X162349000Y-83128560D01*
X162309000Y-83128560D01*
X162127576Y-83162697D01*
X161959000Y-83128560D01*
X161659000Y-83128560D01*
X161423683Y-83172838D01*
X161207559Y-83311910D01*
X161062569Y-83524110D01*
X161011560Y-83776000D01*
X161011560Y-85376000D01*
X161014492Y-85391580D01*
X160949000Y-85549690D01*
X160949000Y-87090250D01*
X161107750Y-87249000D01*
X163957000Y-87249000D01*
X163957000Y-87229000D01*
X164211000Y-87229000D01*
X164211000Y-87249000D01*
X167060250Y-87249000D01*
X167219000Y-87090250D01*
X167219000Y-85549690D01*
X167153358Y-85391217D01*
X167156440Y-85376000D01*
X167156440Y-84737082D01*
X167199201Y-84754838D01*
X167571167Y-84755162D01*
X167914943Y-84613117D01*
X167948118Y-84580000D01*
X172396263Y-84580000D01*
X172656798Y-84631824D01*
X174446176Y-84631824D01*
X174737015Y-84573972D01*
X174983577Y-84409225D01*
X177431680Y-81961122D01*
X177477167Y-81961162D01*
X177820943Y-81819117D01*
X177854118Y-81786000D01*
X182199001Y-81786000D01*
X182198838Y-81973167D01*
X182340883Y-82316943D01*
X182603673Y-82580192D01*
X182947201Y-82722838D01*
X182994077Y-82722879D01*
X184237601Y-83966403D01*
X184484162Y-84131150D01*
X184775002Y-84189002D01*
X187427560Y-84189002D01*
X187427560Y-85376000D01*
X187430492Y-85391580D01*
X187365000Y-85549690D01*
X187365000Y-87090250D01*
X187523750Y-87249000D01*
X190373000Y-87249000D01*
X190373000Y-87229000D01*
X190627000Y-87229000D01*
X190627000Y-87249000D01*
X193476250Y-87249000D01*
X193635000Y-87090250D01*
X193635000Y-85549690D01*
X193569358Y-85391217D01*
X193572440Y-85376000D01*
X193572440Y-83776000D01*
X193535000Y-83577024D01*
X193535000Y-82107444D01*
X193578192Y-82064327D01*
X193720838Y-81720799D01*
X193721162Y-81348833D01*
X193579117Y-81005057D01*
X193316327Y-80741808D01*
X192972799Y-80599162D01*
X192600833Y-80598838D01*
X192257057Y-80740883D01*
X191993808Y-81003673D01*
X191859977Y-81325971D01*
X190397595Y-79863589D01*
X190151033Y-79698842D01*
X189860194Y-79640990D01*
X187932435Y-79640990D01*
X187735844Y-79444399D01*
X195084337Y-79444399D01*
X195375176Y-79386547D01*
X195531826Y-79281877D01*
X195621801Y-79319238D01*
X195993767Y-79319562D01*
X196337543Y-79177517D01*
X196600792Y-78914727D01*
X196727000Y-78610786D01*
X196727000Y-83553988D01*
X196677162Y-83674011D01*
X196676838Y-84045977D01*
X196818883Y-84389753D01*
X197081673Y-84653002D01*
X197425201Y-84795648D01*
X197797167Y-84795972D01*
X198140943Y-84653927D01*
X198404192Y-84391137D01*
X198546838Y-84047609D01*
X198547162Y-83675643D01*
X198497000Y-83554241D01*
X198497000Y-79093174D01*
X198580273Y-79176592D01*
X198923801Y-79319238D01*
X198970677Y-79319279D01*
X203639798Y-83988400D01*
X203886360Y-84153147D01*
X204177199Y-84210999D01*
X213335560Y-84210999D01*
X213335560Y-85376000D01*
X213338492Y-85391580D01*
X213273000Y-85549690D01*
X213273000Y-87090250D01*
X213431750Y-87249000D01*
X216281000Y-87249000D01*
X216281000Y-87229000D01*
X216535000Y-87229000D01*
X216535000Y-87249000D01*
X219384250Y-87249000D01*
X219543000Y-87090250D01*
X219543000Y-85549690D01*
X219477358Y-85391217D01*
X219480440Y-85376000D01*
X219480440Y-83776000D01*
X219454000Y-83635484D01*
X219454000Y-83112463D01*
X219486192Y-83080327D01*
X219628838Y-82736799D01*
X219629162Y-82364833D01*
X219487117Y-82021057D01*
X219224327Y-81757808D01*
X218880799Y-81615162D01*
X218508833Y-81614838D01*
X218165057Y-81756883D01*
X217901808Y-82019673D01*
X217848805Y-82147319D01*
X217842053Y-82144515D01*
X217470087Y-82144191D01*
X217126311Y-82286236D01*
X217071677Y-82340774D01*
X216975799Y-82300962D01*
X216843000Y-82300846D01*
X216843000Y-80447000D01*
X216834877Y-80406163D01*
X216835162Y-80078833D01*
X216693117Y-79735057D01*
X216430327Y-79471808D01*
X216086799Y-79329162D01*
X215714833Y-79328838D01*
X215371057Y-79470883D01*
X215107808Y-79733673D01*
X214965162Y-80077201D01*
X214964838Y-80449167D01*
X215106883Y-80792943D01*
X215323000Y-81009437D01*
X215323000Y-82690999D01*
X204492001Y-82690999D01*
X200045722Y-78244720D01*
X200045762Y-78199233D01*
X199903717Y-77855457D01*
X199640927Y-77592208D01*
X199297399Y-77449562D01*
X198925433Y-77449238D01*
X198581657Y-77591283D01*
X198497000Y-77675792D01*
X198497000Y-77306000D01*
X208839560Y-77306000D01*
X208839560Y-80736000D01*
X208883838Y-80971317D01*
X209022910Y-81187441D01*
X209235110Y-81332431D01*
X209487000Y-81383440D01*
X211137000Y-81383440D01*
X211372317Y-81339162D01*
X211588441Y-81200090D01*
X211733431Y-80987890D01*
X211784440Y-80736000D01*
X211784440Y-77306000D01*
X220523560Y-77306000D01*
X220523560Y-80736000D01*
X220567838Y-80971317D01*
X220706910Y-81187441D01*
X220919110Y-81332431D01*
X221171000Y-81383440D01*
X222821000Y-81383440D01*
X223056317Y-81339162D01*
X223272441Y-81200090D01*
X223417431Y-80987890D01*
X223468440Y-80736000D01*
X223468440Y-77306000D01*
X223424162Y-77070683D01*
X223285090Y-76854559D01*
X223072890Y-76709569D01*
X222821000Y-76658560D01*
X221171000Y-76658560D01*
X220935683Y-76702838D01*
X220719559Y-76841910D01*
X220574569Y-77054110D01*
X220523560Y-77306000D01*
X211784440Y-77306000D01*
X211740162Y-77070683D01*
X211601090Y-76854559D01*
X211388890Y-76709569D01*
X211137000Y-76658560D01*
X209487000Y-76658560D01*
X209251683Y-76702838D01*
X209035559Y-76841910D01*
X208890569Y-77054110D01*
X208839560Y-77306000D01*
X198497000Y-77306000D01*
X198497000Y-74562005D01*
X198497001Y-74562000D01*
X198431784Y-74234138D01*
X198429633Y-74223325D01*
X198237790Y-73936210D01*
X198237787Y-73936208D01*
X196723330Y-72421750D01*
X204977000Y-72421750D01*
X204977000Y-72897309D01*
X205073673Y-73130698D01*
X205252301Y-73309327D01*
X205485690Y-73406000D01*
X206596250Y-73406000D01*
X206755000Y-73247250D01*
X206755000Y-72263000D01*
X207009000Y-72263000D01*
X207009000Y-73247250D01*
X207167750Y-73406000D01*
X208278310Y-73406000D01*
X208511699Y-73309327D01*
X208690327Y-73130698D01*
X208787000Y-72897309D01*
X208787000Y-72421750D01*
X208628250Y-72263000D01*
X207009000Y-72263000D01*
X206755000Y-72263000D01*
X205135750Y-72263000D01*
X204977000Y-72421750D01*
X196723330Y-72421750D01*
X195676271Y-71374691D01*
X204977000Y-71374691D01*
X204977000Y-71850250D01*
X205135750Y-72009000D01*
X206755000Y-72009000D01*
X206755000Y-71024750D01*
X207009000Y-71024750D01*
X207009000Y-72009000D01*
X208628250Y-72009000D01*
X208787000Y-71850250D01*
X208787000Y-71374691D01*
X208690327Y-71141302D01*
X208511699Y-70962673D01*
X208278310Y-70866000D01*
X207167750Y-70866000D01*
X207009000Y-71024750D01*
X206755000Y-71024750D01*
X206596250Y-70866000D01*
X205485690Y-70866000D01*
X205252301Y-70962673D01*
X205073673Y-71141302D01*
X204977000Y-71374691D01*
X195676271Y-71374691D01*
X194074999Y-69773419D01*
X194074999Y-69421750D01*
X204977000Y-69421750D01*
X204977000Y-69897309D01*
X205073673Y-70130698D01*
X205252301Y-70309327D01*
X205485690Y-70406000D01*
X206596250Y-70406000D01*
X206755000Y-70247250D01*
X206755000Y-69263000D01*
X207009000Y-69263000D01*
X207009000Y-70247250D01*
X207167750Y-70406000D01*
X208278310Y-70406000D01*
X208511699Y-70309327D01*
X208690327Y-70130698D01*
X208787000Y-69897309D01*
X208787000Y-69421750D01*
X208628250Y-69263000D01*
X207009000Y-69263000D01*
X206755000Y-69263000D01*
X205135750Y-69263000D01*
X204977000Y-69421750D01*
X194074999Y-69421750D01*
X194074999Y-69369440D01*
X194340000Y-69369440D01*
X194575317Y-69325162D01*
X194791441Y-69186090D01*
X194936431Y-68973890D01*
X194987440Y-68722000D01*
X194987440Y-67422000D01*
X194943162Y-67186683D01*
X194804090Y-66970559D01*
X194750000Y-66933601D01*
X194750000Y-64275750D01*
X197605000Y-64275750D01*
X197605000Y-65366309D01*
X197701673Y-65599698D01*
X197880301Y-65778327D01*
X198113690Y-65875000D01*
X199104250Y-65875000D01*
X199263000Y-65716250D01*
X199263000Y-64117000D01*
X199517000Y-64117000D01*
X199517000Y-65716250D01*
X199675750Y-65875000D01*
X200666310Y-65875000D01*
X200899699Y-65778327D01*
X201078327Y-65599698D01*
X201175000Y-65366309D01*
X201175000Y-64275750D01*
X201016250Y-64117000D01*
X199517000Y-64117000D01*
X199263000Y-64117000D01*
X197763750Y-64117000D01*
X197605000Y-64275750D01*
X194750000Y-64275750D01*
X194750000Y-63752000D01*
X196188000Y-63752000D01*
X196478839Y-63694148D01*
X196725401Y-63529401D01*
X197605000Y-62649802D01*
X197605000Y-63704250D01*
X197763750Y-63863000D01*
X199263000Y-63863000D01*
X199263000Y-62263750D01*
X199517000Y-62263750D01*
X199517000Y-63863000D01*
X201016250Y-63863000D01*
X201175000Y-63704250D01*
X201175000Y-62613691D01*
X201078327Y-62380302D01*
X200899699Y-62201673D01*
X200666310Y-62105000D01*
X199675750Y-62105000D01*
X199517000Y-62263750D01*
X199263000Y-62263750D01*
X199104250Y-62105000D01*
X198149802Y-62105000D01*
X198667362Y-61587440D01*
X200540000Y-61587440D01*
X200775317Y-61543162D01*
X200991441Y-61404090D01*
X201136431Y-61191890D01*
X201187440Y-60940000D01*
X201187440Y-58867362D01*
X203051601Y-57003201D01*
X203216348Y-56756639D01*
X203274200Y-56465800D01*
X203274200Y-56112263D01*
X203306392Y-56080127D01*
X203449038Y-55736599D01*
X203449362Y-55364633D01*
X203440010Y-55342000D01*
X208795995Y-55342000D01*
X208796000Y-55342001D01*
X208824591Y-55336314D01*
X207781011Y-55767512D01*
X206900604Y-56646384D01*
X206423544Y-57795272D01*
X206422458Y-59039270D01*
X206897512Y-60188989D01*
X207776384Y-61069396D01*
X208925272Y-61546456D01*
X210169270Y-61547542D01*
X211318989Y-61072488D01*
X212199396Y-60193616D01*
X212676456Y-59044728D01*
X212677542Y-57800730D01*
X212202488Y-56651011D01*
X211323616Y-55770604D01*
X210174728Y-55293544D01*
X209044564Y-55292557D01*
X209107693Y-55280000D01*
X209134675Y-55274633D01*
X209421790Y-55082790D01*
X212940139Y-51564440D01*
X213336000Y-51564440D01*
X213571317Y-51520162D01*
X213787441Y-51381090D01*
X213932431Y-51168890D01*
X213983440Y-50917000D01*
X213983440Y-50493000D01*
X214340560Y-50493000D01*
X214340560Y-50608000D01*
X214384838Y-50843317D01*
X214523910Y-51059441D01*
X214736110Y-51204431D01*
X214988000Y-51255440D01*
X215603000Y-51255440D01*
X215603000Y-57300549D01*
X215558560Y-57520000D01*
X215558560Y-59320000D01*
X215602838Y-59555317D01*
X215741910Y-59771441D01*
X215954110Y-59916431D01*
X216206000Y-59967440D01*
X218706000Y-59967440D01*
X218794256Y-59950834D01*
X221731983Y-62888560D01*
X221171000Y-62888560D01*
X220935683Y-62932838D01*
X220719559Y-63071910D01*
X220574569Y-63284110D01*
X220523560Y-63536000D01*
X220523560Y-66966000D01*
X220567838Y-67201317D01*
X220706910Y-67417441D01*
X220919110Y-67562431D01*
X221171000Y-67613440D01*
X222821000Y-67613440D01*
X223056317Y-67569162D01*
X223272441Y-67430090D01*
X223417431Y-67217890D01*
X223468440Y-66966000D01*
X223468440Y-64625017D01*
X224541000Y-65697577D01*
X224541000Y-67853560D01*
X224156000Y-67853560D01*
X223920683Y-67897838D01*
X223704559Y-68036910D01*
X223559569Y-68249110D01*
X223508560Y-68501000D01*
X223508560Y-69166861D01*
X220483440Y-72191980D01*
X220483440Y-71501000D01*
X220439162Y-71265683D01*
X220300090Y-71049559D01*
X220087890Y-70904569D01*
X219836000Y-70853560D01*
X219352099Y-70853560D01*
X219374838Y-70798799D01*
X219375162Y-70426833D01*
X219371694Y-70418440D01*
X219836000Y-70418440D01*
X220071317Y-70374162D01*
X220287441Y-70235090D01*
X220432431Y-70022890D01*
X220483440Y-69771000D01*
X220483440Y-68501000D01*
X220439162Y-68265683D01*
X220300090Y-68049559D01*
X220087890Y-67904569D01*
X219836000Y-67853560D01*
X217296000Y-67853560D01*
X217060683Y-67897838D01*
X216952350Y-67967548D01*
X216549602Y-67564800D01*
X216303040Y-67400053D01*
X216012201Y-67342201D01*
X211648493Y-67342201D01*
X211733431Y-67217890D01*
X211784440Y-66966000D01*
X211784440Y-63536000D01*
X211740162Y-63300683D01*
X211601090Y-63084559D01*
X211388890Y-62939569D01*
X211137000Y-62888560D01*
X209487000Y-62888560D01*
X209251683Y-62932838D01*
X209035559Y-63071910D01*
X208890569Y-63284110D01*
X208839560Y-63536000D01*
X208839560Y-66966000D01*
X208883838Y-67201317D01*
X208974494Y-67342201D01*
X201493399Y-67342201D01*
X201202560Y-67400053D01*
X201102187Y-67467120D01*
X201008233Y-67467038D01*
X200664457Y-67609083D01*
X200401208Y-67871873D01*
X200258562Y-68215401D01*
X200258238Y-68587367D01*
X200400283Y-68931143D01*
X200663073Y-69194392D01*
X201006601Y-69337038D01*
X201378567Y-69337362D01*
X201722343Y-69195317D01*
X201985592Y-68932527D01*
X202014794Y-68862201D01*
X204988951Y-68862201D01*
X205135750Y-69009000D01*
X206755000Y-69009000D01*
X206755000Y-68989000D01*
X207009000Y-68989000D01*
X207009000Y-69009000D01*
X208628250Y-69009000D01*
X208775049Y-68862201D01*
X211824560Y-68862201D01*
X211824560Y-69771000D01*
X211868838Y-70006317D01*
X212007910Y-70222441D01*
X212220110Y-70367431D01*
X212472000Y-70418440D01*
X212935969Y-70418440D01*
X212933162Y-70425201D01*
X212932838Y-70797167D01*
X212956139Y-70853560D01*
X212472000Y-70853560D01*
X212236683Y-70897838D01*
X212020559Y-71036910D01*
X211902290Y-71210003D01*
X211883727Y-71191408D01*
X211540199Y-71048762D01*
X211168233Y-71048438D01*
X210824457Y-71190483D01*
X210561208Y-71453273D01*
X210418562Y-71796801D01*
X210418238Y-72168767D01*
X210560283Y-72512543D01*
X210823073Y-72775792D01*
X211166601Y-72918438D01*
X211538567Y-72918762D01*
X211829727Y-72798458D01*
X211868838Y-73006317D01*
X211971591Y-73165999D01*
X209737006Y-73165999D01*
X209737001Y-73165998D01*
X209453249Y-73222441D01*
X209398326Y-73233366D01*
X209111211Y-73425209D01*
X209111209Y-73425212D01*
X208539318Y-73997103D01*
X208403890Y-73904569D01*
X208152000Y-73853560D01*
X205612000Y-73853560D01*
X205376683Y-73897838D01*
X205160559Y-74036910D01*
X205015569Y-74249110D01*
X204964560Y-74501000D01*
X204964560Y-75771000D01*
X205008838Y-76006317D01*
X205147910Y-76222441D01*
X205360110Y-76367431D01*
X205612000Y-76418440D01*
X208152000Y-76418440D01*
X208387317Y-76374162D01*
X208603441Y-76235090D01*
X208748431Y-76022890D01*
X208752877Y-76000935D01*
X208959405Y-75959853D01*
X208990675Y-75953633D01*
X209277790Y-75761790D01*
X210103580Y-74935999D01*
X210778046Y-74935999D01*
X210647162Y-75251201D01*
X210646838Y-75623167D01*
X210788883Y-75966943D01*
X211051673Y-76230192D01*
X211395201Y-76372838D01*
X211767167Y-76373162D01*
X212054650Y-76254377D01*
X212220110Y-76367431D01*
X212472000Y-76418440D01*
X215012000Y-76418440D01*
X215247317Y-76374162D01*
X215463441Y-76235090D01*
X215608431Y-76022890D01*
X215618863Y-75971374D01*
X215623673Y-75976192D01*
X215967201Y-76118838D01*
X216339167Y-76119162D01*
X216682943Y-75977117D01*
X216686648Y-75973419D01*
X216692838Y-76006317D01*
X216831910Y-76222441D01*
X217044110Y-76367431D01*
X217296000Y-76418440D01*
X219836000Y-76418440D01*
X220071317Y-76374162D01*
X220287441Y-76235090D01*
X220432431Y-76022890D01*
X220483440Y-75771000D01*
X220483440Y-75421750D01*
X223521000Y-75421750D01*
X223521000Y-75897309D01*
X223617673Y-76130698D01*
X223796301Y-76309327D01*
X224029690Y-76406000D01*
X225140250Y-76406000D01*
X225299000Y-76247250D01*
X225299000Y-75263000D01*
X225553000Y-75263000D01*
X225553000Y-76247250D01*
X225711750Y-76406000D01*
X226822310Y-76406000D01*
X227055699Y-76309327D01*
X227234327Y-76130698D01*
X227331000Y-75897309D01*
X227331000Y-75421750D01*
X227172250Y-75263000D01*
X225553000Y-75263000D01*
X225299000Y-75263000D01*
X223679750Y-75263000D01*
X223521000Y-75421750D01*
X220483440Y-75421750D01*
X220483440Y-74689051D01*
X220501791Y-74676789D01*
X220803888Y-74374691D01*
X223521000Y-74374691D01*
X223521000Y-74850250D01*
X223679750Y-75009000D01*
X225299000Y-75009000D01*
X225299000Y-74024750D01*
X225553000Y-74024750D01*
X225553000Y-75009000D01*
X227172250Y-75009000D01*
X227331000Y-74850250D01*
X227331000Y-74374691D01*
X227234327Y-74141302D01*
X227055699Y-73962673D01*
X226822310Y-73866000D01*
X225711750Y-73866000D01*
X225553000Y-74024750D01*
X225299000Y-74024750D01*
X225140250Y-73866000D01*
X224029690Y-73866000D01*
X223796301Y-73962673D01*
X223617673Y-74141302D01*
X223521000Y-74374691D01*
X220803888Y-74374691D01*
X222756829Y-72421750D01*
X223521000Y-72421750D01*
X223521000Y-72897309D01*
X223617673Y-73130698D01*
X223796301Y-73309327D01*
X224029690Y-73406000D01*
X225140250Y-73406000D01*
X225299000Y-73247250D01*
X225299000Y-72263000D01*
X225553000Y-72263000D01*
X225553000Y-73247250D01*
X225711750Y-73406000D01*
X226822310Y-73406000D01*
X227055699Y-73309327D01*
X227234327Y-73130698D01*
X227331000Y-72897309D01*
X227331000Y-72421750D01*
X227172250Y-72263000D01*
X225553000Y-72263000D01*
X225299000Y-72263000D01*
X223679750Y-72263000D01*
X223521000Y-72421750D01*
X222756829Y-72421750D01*
X223521000Y-71657579D01*
X223521000Y-71850250D01*
X223679750Y-72009000D01*
X225299000Y-72009000D01*
X225299000Y-71024750D01*
X225553000Y-71024750D01*
X225553000Y-72009000D01*
X227172250Y-72009000D01*
X227331000Y-71850250D01*
X227331000Y-71374691D01*
X227234327Y-71141302D01*
X227055699Y-70962673D01*
X226822310Y-70866000D01*
X225711750Y-70866000D01*
X225553000Y-71024750D01*
X225299000Y-71024750D01*
X225140250Y-70866000D01*
X224312579Y-70866000D01*
X224760139Y-70418440D01*
X226696000Y-70418440D01*
X226931317Y-70374162D01*
X227147441Y-70235090D01*
X227292431Y-70022890D01*
X227343440Y-69771000D01*
X227343440Y-68501000D01*
X227299162Y-68265683D01*
X227160090Y-68049559D01*
X226947890Y-67904569D01*
X226696000Y-67853560D01*
X226311000Y-67853560D01*
X226311000Y-65331003D01*
X226311001Y-65330998D01*
X226243633Y-64992323D01*
X226187959Y-64909001D01*
X226051790Y-64705208D01*
X226051787Y-64705206D01*
X221502332Y-60155750D01*
X224575000Y-60155750D01*
X224575000Y-60446309D01*
X224671673Y-60679698D01*
X224850301Y-60858327D01*
X225083690Y-60955000D01*
X225774250Y-60955000D01*
X225933000Y-60796250D01*
X225933000Y-59997000D01*
X226187000Y-59997000D01*
X226187000Y-60796250D01*
X226345750Y-60955000D01*
X227036310Y-60955000D01*
X227269699Y-60858327D01*
X227448327Y-60679698D01*
X227545000Y-60446309D01*
X227545000Y-60155750D01*
X227386250Y-59997000D01*
X226187000Y-59997000D01*
X225933000Y-59997000D01*
X224733750Y-59997000D01*
X224575000Y-60155750D01*
X221502332Y-60155750D01*
X221314022Y-59967440D01*
X222706000Y-59967440D01*
X222941317Y-59923162D01*
X223157441Y-59784090D01*
X223302431Y-59571890D01*
X223353440Y-59320000D01*
X223353440Y-59180000D01*
X224622092Y-59180000D01*
X224575000Y-59293691D01*
X224575000Y-59584250D01*
X224733750Y-59743000D01*
X225933000Y-59743000D01*
X225933000Y-58943750D01*
X226187000Y-58943750D01*
X226187000Y-59743000D01*
X227386250Y-59743000D01*
X227545000Y-59584250D01*
X227545000Y-59293691D01*
X227448327Y-59060302D01*
X227269699Y-58881673D01*
X227036310Y-58785000D01*
X226345750Y-58785000D01*
X226187000Y-58943750D01*
X225933000Y-58943750D01*
X225897026Y-58907776D01*
X226597401Y-58207401D01*
X226690920Y-58067440D01*
X226910000Y-58067440D01*
X227145317Y-58023162D01*
X227361441Y-57884090D01*
X227506431Y-57671890D01*
X227557440Y-57420000D01*
X227557440Y-56520000D01*
X227513162Y-56284683D01*
X227374090Y-56068559D01*
X227161890Y-55923569D01*
X226910000Y-55872560D01*
X225210000Y-55872560D01*
X224974683Y-55916838D01*
X224758559Y-56055910D01*
X224613569Y-56268110D01*
X224562560Y-56520000D01*
X224562560Y-57420000D01*
X224606838Y-57655317D01*
X224609851Y-57660000D01*
X223353440Y-57660000D01*
X223353440Y-57520000D01*
X223309162Y-57284683D01*
X223170090Y-57068559D01*
X222957890Y-56923569D01*
X222706000Y-56872560D01*
X220206000Y-56872560D01*
X219970683Y-56916838D01*
X219754559Y-57055910D01*
X219609569Y-57268110D01*
X219558560Y-57520000D01*
X219558560Y-58211978D01*
X219353440Y-58006858D01*
X219353440Y-57520000D01*
X219309162Y-57284683D01*
X219170090Y-57068559D01*
X218957890Y-56923569D01*
X218706000Y-56872560D01*
X217373000Y-56872560D01*
X217373000Y-51255440D01*
X217988000Y-51255440D01*
X218223317Y-51211162D01*
X218439441Y-51072090D01*
X218584431Y-50859890D01*
X218635440Y-50608000D01*
X218635440Y-49893750D01*
X224353000Y-49893750D01*
X224353000Y-50734310D01*
X224449673Y-50967699D01*
X224628302Y-51146327D01*
X224861691Y-51243000D01*
X226202250Y-51243000D01*
X226361000Y-51084250D01*
X226361000Y-49735000D01*
X226615000Y-49735000D01*
X226615000Y-51084250D01*
X226773750Y-51243000D01*
X228114309Y-51243000D01*
X228347698Y-51146327D01*
X228526327Y-50967699D01*
X228623000Y-50734310D01*
X228623000Y-49893750D01*
X228464250Y-49735000D01*
X226615000Y-49735000D01*
X226361000Y-49735000D01*
X224511750Y-49735000D01*
X224353000Y-49893750D01*
X218635440Y-49893750D01*
X218635440Y-48608000D01*
X218602285Y-48431795D01*
X219852716Y-48431795D01*
X220101106Y-49032943D01*
X220560637Y-49493278D01*
X221161352Y-49742716D01*
X221811795Y-49743284D01*
X222412943Y-49494894D01*
X222873278Y-49035363D01*
X223103182Y-48481690D01*
X224353000Y-48481690D01*
X224353000Y-49322250D01*
X224511750Y-49481000D01*
X226361000Y-49481000D01*
X226361000Y-48131750D01*
X226615000Y-48131750D01*
X226615000Y-49481000D01*
X228464250Y-49481000D01*
X228623000Y-49322250D01*
X228623000Y-48481690D01*
X228526327Y-48248301D01*
X228347698Y-48069673D01*
X228114309Y-47973000D01*
X226773750Y-47973000D01*
X226615000Y-48131750D01*
X226361000Y-48131750D01*
X226202250Y-47973000D01*
X224861691Y-47973000D01*
X224628302Y-48069673D01*
X224449673Y-48248301D01*
X224353000Y-48481690D01*
X223103182Y-48481690D01*
X223122716Y-48434648D01*
X223123284Y-47784205D01*
X222874894Y-47183057D01*
X222415363Y-46722722D01*
X221814648Y-46473284D01*
X221164205Y-46472716D01*
X220563057Y-46721106D01*
X220102722Y-47180637D01*
X219853284Y-47781352D01*
X219852716Y-48431795D01*
X218602285Y-48431795D01*
X218591162Y-48372683D01*
X218452090Y-48156559D01*
X218239890Y-48011569D01*
X217988000Y-47960560D01*
X214988000Y-47960560D01*
X214752683Y-48004838D01*
X214536559Y-48143910D01*
X214391569Y-48356110D01*
X214340560Y-48608000D01*
X214340560Y-48723000D01*
X213868128Y-48723000D01*
X213932431Y-48628890D01*
X213983440Y-48377000D01*
X213983440Y-47127000D01*
X213941812Y-46905768D01*
X215592139Y-45255440D01*
X217988000Y-45255440D01*
X218223317Y-45211162D01*
X218439441Y-45072090D01*
X218584431Y-44859890D01*
X218635440Y-44608000D01*
X218635440Y-44031795D01*
X219852716Y-44031795D01*
X220101106Y-44632943D01*
X220560637Y-45093278D01*
X221161352Y-45342716D01*
X221811795Y-45343284D01*
X222412943Y-45094894D01*
X222873278Y-44635363D01*
X223122716Y-44034648D01*
X223122839Y-43893750D01*
X224353000Y-43893750D01*
X224353000Y-44734310D01*
X224449673Y-44967699D01*
X224628302Y-45146327D01*
X224861691Y-45243000D01*
X226202250Y-45243000D01*
X226361000Y-45084250D01*
X226361000Y-43735000D01*
X226615000Y-43735000D01*
X226615000Y-45084250D01*
X226773750Y-45243000D01*
X228114309Y-45243000D01*
X228347698Y-45146327D01*
X228526327Y-44967699D01*
X228623000Y-44734310D01*
X228623000Y-43893750D01*
X228464250Y-43735000D01*
X226615000Y-43735000D01*
X226361000Y-43735000D01*
X224511750Y-43735000D01*
X224353000Y-43893750D01*
X223122839Y-43893750D01*
X223123284Y-43384205D01*
X222874894Y-42783057D01*
X222415363Y-42322722D01*
X221814648Y-42073284D01*
X221164205Y-42072716D01*
X220563057Y-42321106D01*
X220102722Y-42780637D01*
X219853284Y-43381352D01*
X219852716Y-44031795D01*
X218635440Y-44031795D01*
X218635440Y-42608000D01*
X218591162Y-42372683D01*
X218452090Y-42156559D01*
X218277110Y-42037000D01*
X224707182Y-42037000D01*
X224628302Y-42069673D01*
X224449673Y-42248301D01*
X224353000Y-42481690D01*
X224353000Y-43322250D01*
X224511750Y-43481000D01*
X226361000Y-43481000D01*
X226361000Y-43461000D01*
X226615000Y-43461000D01*
X226615000Y-43481000D01*
X228464250Y-43481000D01*
X228623000Y-43322250D01*
X228623000Y-42481690D01*
X228526327Y-42248301D01*
X228347698Y-42069673D01*
X228268818Y-42037000D01*
X229743000Y-42037000D01*
X229743000Y-107823000D01*
X153797000Y-107823000D01*
X153797000Y-104364000D01*
X155832560Y-104364000D01*
X155832560Y-106964000D01*
X155876838Y-107199317D01*
X156015910Y-107415441D01*
X156228110Y-107560431D01*
X156480000Y-107611440D01*
X158480000Y-107611440D01*
X158715317Y-107567162D01*
X158931441Y-107428090D01*
X159036951Y-107273671D01*
X159394313Y-107512452D01*
X160020000Y-107636909D01*
X160645687Y-107512452D01*
X161176120Y-107158029D01*
X161290000Y-106987595D01*
X161403880Y-107158029D01*
X161934313Y-107512452D01*
X162560000Y-107636909D01*
X163185687Y-107512452D01*
X163716120Y-107158029D01*
X163830000Y-106987595D01*
X163943880Y-107158029D01*
X164474313Y-107512452D01*
X165100000Y-107636909D01*
X165725687Y-107512452D01*
X166256120Y-107158029D01*
X166370000Y-106987595D01*
X166483880Y-107158029D01*
X167014313Y-107512452D01*
X167640000Y-107636909D01*
X168265687Y-107512452D01*
X168796120Y-107158029D01*
X169150543Y-106627596D01*
X169275000Y-106001909D01*
X169275000Y-105326091D01*
X169150543Y-104700404D01*
X168925766Y-104364000D01*
X181740560Y-104364000D01*
X181740560Y-106964000D01*
X181784838Y-107199317D01*
X181923910Y-107415441D01*
X182136110Y-107560431D01*
X182388000Y-107611440D01*
X184388000Y-107611440D01*
X184623317Y-107567162D01*
X184839441Y-107428090D01*
X184944951Y-107273671D01*
X185302313Y-107512452D01*
X185928000Y-107636909D01*
X186553687Y-107512452D01*
X187084120Y-107158029D01*
X187198000Y-106987595D01*
X187311880Y-107158029D01*
X187842313Y-107512452D01*
X188468000Y-107636909D01*
X189093687Y-107512452D01*
X189624120Y-107158029D01*
X189738000Y-106987595D01*
X189851880Y-107158029D01*
X190382313Y-107512452D01*
X191008000Y-107636909D01*
X191633687Y-107512452D01*
X192164120Y-107158029D01*
X192278000Y-106987595D01*
X192391880Y-107158029D01*
X192922313Y-107512452D01*
X193548000Y-107636909D01*
X194173687Y-107512452D01*
X194704120Y-107158029D01*
X195058543Y-106627596D01*
X195183000Y-106001909D01*
X195183000Y-105326091D01*
X195058543Y-104700404D01*
X194833766Y-104364000D01*
X207648560Y-104364000D01*
X207648560Y-106964000D01*
X207692838Y-107199317D01*
X207831910Y-107415441D01*
X208044110Y-107560431D01*
X208296000Y-107611440D01*
X210296000Y-107611440D01*
X210531317Y-107567162D01*
X210747441Y-107428090D01*
X210852951Y-107273671D01*
X211210313Y-107512452D01*
X211836000Y-107636909D01*
X212461687Y-107512452D01*
X212992120Y-107158029D01*
X213106000Y-106987595D01*
X213219880Y-107158029D01*
X213750313Y-107512452D01*
X214376000Y-107636909D01*
X215001687Y-107512452D01*
X215532120Y-107158029D01*
X215646000Y-106987595D01*
X215759880Y-107158029D01*
X216290313Y-107512452D01*
X216916000Y-107636909D01*
X217541687Y-107512452D01*
X218072120Y-107158029D01*
X218186000Y-106987595D01*
X218299880Y-107158029D01*
X218830313Y-107512452D01*
X219456000Y-107636909D01*
X220081687Y-107512452D01*
X220612120Y-107158029D01*
X220966543Y-106627596D01*
X221021876Y-106349419D01*
X221243401Y-106201401D01*
X222025401Y-105419401D01*
X222190148Y-105172839D01*
X222248000Y-104882000D01*
X222248000Y-104661834D01*
X223424543Y-104661834D01*
X223824853Y-105630658D01*
X224565443Y-106372542D01*
X225533567Y-106774542D01*
X226581834Y-106775457D01*
X227550658Y-106375147D01*
X228292542Y-105634557D01*
X228694542Y-104666433D01*
X228695457Y-103618166D01*
X228295147Y-102649342D01*
X227554557Y-101907458D01*
X226586433Y-101505458D01*
X225538166Y-101504543D01*
X224569342Y-101904853D01*
X223827458Y-102645443D01*
X223425458Y-103613567D01*
X223424543Y-104661834D01*
X222248000Y-104661834D01*
X222248000Y-100478742D01*
X222373317Y-100455162D01*
X222589441Y-100316090D01*
X222734431Y-100103890D01*
X222785440Y-99852000D01*
X222785440Y-99152000D01*
X222741162Y-98916683D01*
X222602090Y-98700559D01*
X222389890Y-98555569D01*
X222376803Y-98552919D01*
X222589441Y-98416090D01*
X222734431Y-98203890D01*
X222785440Y-97952000D01*
X222785440Y-97252000D01*
X222741162Y-97016683D01*
X222602090Y-96800559D01*
X222389890Y-96655569D01*
X222138000Y-96604560D01*
X222118920Y-96604560D01*
X222025401Y-96464599D01*
X218793000Y-93232198D01*
X218793000Y-91623440D01*
X218833000Y-91623440D01*
X219068317Y-91579162D01*
X219277046Y-91444848D01*
X224487200Y-96655002D01*
X224487200Y-99253198D01*
X223456520Y-100283878D01*
X223411033Y-100283838D01*
X223067257Y-100425883D01*
X222804008Y-100688673D01*
X222661362Y-101032201D01*
X222661038Y-101404167D01*
X222803083Y-101747943D01*
X223065873Y-102011192D01*
X223409401Y-102153838D01*
X223781367Y-102154162D01*
X224125143Y-102012117D01*
X224388392Y-101749327D01*
X224531038Y-101405799D01*
X224531079Y-101358923D01*
X225784601Y-100105401D01*
X225949348Y-99858839D01*
X226007200Y-99568000D01*
X226007200Y-96340200D01*
X225957464Y-96090162D01*
X225949348Y-96049360D01*
X225784601Y-95802799D01*
X219620401Y-89638599D01*
X219480440Y-89545080D01*
X219480440Y-89376000D01*
X219477508Y-89360420D01*
X219543000Y-89202310D01*
X219543000Y-87661750D01*
X219384250Y-87503000D01*
X216535000Y-87503000D01*
X216535000Y-87523000D01*
X216281000Y-87523000D01*
X216281000Y-87503000D01*
X213431750Y-87503000D01*
X213273000Y-87661750D01*
X213273000Y-89202310D01*
X213338642Y-89360783D01*
X213335560Y-89376000D01*
X213335560Y-89807104D01*
X213315367Y-89837325D01*
X213248000Y-90176000D01*
X213248000Y-90459420D01*
X208887164Y-94820256D01*
X208767057Y-94869883D01*
X208503808Y-95132673D01*
X208361162Y-95476201D01*
X208360838Y-95848167D01*
X208411000Y-95969569D01*
X208411000Y-103716560D01*
X208296000Y-103716560D01*
X208060683Y-103760838D01*
X207844559Y-103899910D01*
X207699569Y-104112110D01*
X207648560Y-104364000D01*
X194833766Y-104364000D01*
X194704120Y-104169971D01*
X194308000Y-103905293D01*
X194308000Y-101548802D01*
X195357362Y-100499440D01*
X196230000Y-100499440D01*
X196465317Y-100455162D01*
X196681441Y-100316090D01*
X196826431Y-100103890D01*
X196877440Y-99852000D01*
X196877440Y-99152000D01*
X196833162Y-98916683D01*
X196694090Y-98700559D01*
X196481890Y-98555569D01*
X196468803Y-98552919D01*
X196681441Y-98416090D01*
X196826431Y-98203890D01*
X196877440Y-97952000D01*
X196877440Y-97350378D01*
X200388769Y-100861707D01*
X200360162Y-100930601D01*
X200359838Y-101302567D01*
X200501883Y-101646343D01*
X200764673Y-101909592D01*
X201108201Y-102052238D01*
X201480167Y-102052562D01*
X201823943Y-101910517D01*
X202087192Y-101647727D01*
X202229838Y-101304199D01*
X202230162Y-100932233D01*
X202088117Y-100588457D01*
X202020755Y-100520978D01*
X201997148Y-100402297D01*
X201832401Y-100155735D01*
X193535000Y-91858334D01*
X193535000Y-91160884D01*
X193572440Y-90976000D01*
X193572440Y-89376000D01*
X193569508Y-89360420D01*
X193635000Y-89202310D01*
X193635000Y-87661750D01*
X193476250Y-87503000D01*
X190627000Y-87503000D01*
X190627000Y-87523000D01*
X190373000Y-87523000D01*
X190373000Y-87503000D01*
X187523750Y-87503000D01*
X187365000Y-87661750D01*
X187365000Y-89202310D01*
X187414925Y-89322840D01*
X187236325Y-89358367D01*
X186949210Y-89550210D01*
X186949208Y-89550213D01*
X182979164Y-93520256D01*
X182859057Y-93569883D01*
X182595808Y-93832673D01*
X182453162Y-94176201D01*
X182452838Y-94548167D01*
X182503000Y-94669569D01*
X182503000Y-103716560D01*
X182388000Y-103716560D01*
X182152683Y-103760838D01*
X181936559Y-103899910D01*
X181791569Y-104112110D01*
X181740560Y-104364000D01*
X168925766Y-104364000D01*
X168796120Y-104169971D01*
X168400000Y-103905293D01*
X168400000Y-100499440D01*
X168798000Y-100499440D01*
X169033317Y-100455162D01*
X169249441Y-100316090D01*
X169394431Y-100103890D01*
X169445440Y-99852000D01*
X169445440Y-99152000D01*
X169401162Y-98916683D01*
X169262090Y-98700559D01*
X169049890Y-98555569D01*
X169036803Y-98552919D01*
X169249441Y-98416090D01*
X169394431Y-98203890D01*
X169428256Y-98036858D01*
X172470678Y-101079280D01*
X172470638Y-101124767D01*
X172612683Y-101468543D01*
X172875473Y-101731792D01*
X173219001Y-101874438D01*
X173590967Y-101874762D01*
X173934743Y-101732717D01*
X174197992Y-101469927D01*
X174340638Y-101126399D01*
X174340962Y-100754433D01*
X174198917Y-100410657D01*
X173936127Y-100147408D01*
X173592599Y-100004762D01*
X173545723Y-100004721D01*
X171315272Y-97774270D01*
X175129658Y-97774270D01*
X175604712Y-98923989D01*
X176483584Y-99804396D01*
X177632472Y-100281456D01*
X178876470Y-100282542D01*
X180026189Y-99807488D01*
X180906596Y-98928616D01*
X181383656Y-97779728D01*
X181384742Y-96535730D01*
X180909688Y-95386011D01*
X180030816Y-94505604D01*
X178881928Y-94028544D01*
X177637930Y-94027458D01*
X176488211Y-94502512D01*
X175607804Y-95381384D01*
X175130744Y-96530272D01*
X175129658Y-97774270D01*
X171315272Y-97774270D01*
X167119000Y-93577998D01*
X167119000Y-91160884D01*
X167156440Y-90976000D01*
X167156440Y-89376000D01*
X167153508Y-89360420D01*
X167219000Y-89202310D01*
X167219000Y-87661750D01*
X167060250Y-87503000D01*
X164211000Y-87503000D01*
X164211000Y-87523000D01*
X163957000Y-87523000D01*
X163957000Y-87503000D01*
X161107750Y-87503000D01*
X160949000Y-87661750D01*
X160949000Y-89202310D01*
X161014642Y-89360783D01*
X161011560Y-89376000D01*
X161011560Y-89807104D01*
X160991367Y-89837325D01*
X160924000Y-90176000D01*
X160924000Y-90459421D01*
X157071164Y-94312256D01*
X156951057Y-94361883D01*
X156687808Y-94624673D01*
X156545162Y-94968201D01*
X156544838Y-95340167D01*
X156595000Y-95461569D01*
X156595000Y-103716560D01*
X156480000Y-103716560D01*
X156244683Y-103760838D01*
X156028559Y-103899910D01*
X155883569Y-104112110D01*
X155832560Y-104364000D01*
X153797000Y-104364000D01*
X153797000Y-78009750D01*
X159917000Y-78009750D01*
X159917000Y-78475310D01*
X160013673Y-78708699D01*
X160192302Y-78887327D01*
X160425691Y-78984000D01*
X160766250Y-78984000D01*
X160925000Y-78825250D01*
X160925000Y-77851000D01*
X160075750Y-77851000D01*
X159917000Y-78009750D01*
X153797000Y-78009750D01*
X153797000Y-73909691D01*
X159217000Y-73909691D01*
X159217000Y-74800250D01*
X159375750Y-74959000D01*
X160575000Y-74959000D01*
X160575000Y-73559750D01*
X160416250Y-73401000D01*
X159725690Y-73401000D01*
X159492301Y-73497673D01*
X159313673Y-73676302D01*
X159217000Y-73909691D01*
X153797000Y-73909691D01*
X153797000Y-46339270D01*
X154352458Y-46339270D01*
X154827512Y-47488989D01*
X155706384Y-48369396D01*
X156855272Y-48846456D01*
X158099270Y-48847542D01*
X159248989Y-48372488D01*
X160129396Y-47493616D01*
X160606456Y-46344728D01*
X160607542Y-45100730D01*
X160132488Y-43951011D01*
X159253616Y-43070604D01*
X158104728Y-42593544D01*
X156860730Y-42592458D01*
X155711011Y-43067512D01*
X154830604Y-43946384D01*
X154353544Y-45095272D01*
X154352458Y-46339270D01*
X153797000Y-46339270D01*
X153797000Y-42037000D01*
X168683113Y-42037000D01*
X168654560Y-42178000D01*
G36*
X186865000Y-53757154D02*
X186851109Y-53751400D01*
X186010550Y-53751400D01*
X185851800Y-53910150D01*
X185851800Y-56159400D01*
X185871800Y-56159400D01*
X185871800Y-56413400D01*
X185851800Y-56413400D01*
X185851800Y-58662650D01*
X186010550Y-58821400D01*
X186851109Y-58821400D01*
X186865000Y-58815646D01*
X186865000Y-61169962D01*
X186764683Y-61188838D01*
X186548559Y-61327910D01*
X186403569Y-61540110D01*
X186352560Y-61792000D01*
X186352560Y-62107000D01*
X185944000Y-62107000D01*
X185605325Y-62174367D01*
X185318210Y-62366210D01*
X185318208Y-62366213D01*
X184807861Y-62876560D01*
X184287000Y-62876560D01*
X184051683Y-62920838D01*
X183835559Y-63059910D01*
X183690569Y-63272110D01*
X183639560Y-63524000D01*
X183639560Y-64524000D01*
X183683838Y-64759317D01*
X183822910Y-64975441D01*
X183891006Y-65021969D01*
X183748673Y-65164302D01*
X183652000Y-65397691D01*
X183652000Y-65738250D01*
X183810750Y-65897000D01*
X184785000Y-65897000D01*
X184785000Y-65877000D01*
X185039000Y-65877000D01*
X185039000Y-65897000D01*
X186013250Y-65897000D01*
X186172000Y-65738250D01*
X186172000Y-65397691D01*
X186075327Y-65164302D01*
X185934090Y-65023064D01*
X185988441Y-64988090D01*
X186133431Y-64775890D01*
X186184440Y-64524000D01*
X186184440Y-64003139D01*
X186310579Y-63877000D01*
X186352560Y-63877000D01*
X186352560Y-64192000D01*
X186396838Y-64427317D01*
X186535910Y-64643441D01*
X186748110Y-64788431D01*
X187000000Y-64839440D01*
X188500000Y-64839440D01*
X188735317Y-64795162D01*
X188951441Y-64656090D01*
X189096431Y-64443890D01*
X189113925Y-64357504D01*
X191564082Y-66807661D01*
X191504683Y-66818838D01*
X191288559Y-66957910D01*
X191143569Y-67170110D01*
X191114836Y-67312000D01*
X190082038Y-67312000D01*
X190063162Y-67211683D01*
X189924090Y-66995559D01*
X189711890Y-66850569D01*
X189460000Y-66799560D01*
X188460000Y-66799560D01*
X188224683Y-66843838D01*
X188008559Y-66982910D01*
X187962031Y-67051006D01*
X187819698Y-66908673D01*
X187586309Y-66812000D01*
X187245750Y-66812000D01*
X187087000Y-66970750D01*
X187087000Y-67945000D01*
X187107000Y-67945000D01*
X187107000Y-68199000D01*
X187087000Y-68199000D01*
X187087000Y-69173250D01*
X187245750Y-69332000D01*
X187586309Y-69332000D01*
X187819698Y-69235327D01*
X187960936Y-69094090D01*
X187995910Y-69148441D01*
X188208110Y-69293431D01*
X188460000Y-69344440D01*
X189460000Y-69344440D01*
X189695317Y-69300162D01*
X189911441Y-69161090D01*
X190056431Y-68948890D01*
X190080102Y-68832000D01*
X191113258Y-68832000D01*
X191136838Y-68957317D01*
X191275910Y-69173441D01*
X191488110Y-69318431D01*
X191740000Y-69369440D01*
X192304999Y-69369440D01*
X192304999Y-70139994D01*
X192304998Y-70139999D01*
X192354330Y-70388000D01*
X192372366Y-70478674D01*
X192497133Y-70665402D01*
X192564209Y-70765789D01*
X196727000Y-74928579D01*
X196727000Y-78158666D01*
X196601717Y-77855457D01*
X196338927Y-77592208D01*
X195995399Y-77449562D01*
X195623433Y-77449238D01*
X195279657Y-77591283D01*
X195212178Y-77658645D01*
X195093497Y-77682252D01*
X194846935Y-77846999D01*
X194769535Y-77924399D01*
X193031649Y-77924399D01*
X192926250Y-77819000D01*
X192127000Y-77819000D01*
X192127000Y-77839000D01*
X191873000Y-77839000D01*
X191873000Y-77819000D01*
X191073750Y-77819000D01*
X190968351Y-77924399D01*
X190097440Y-77924399D01*
X190097440Y-77242000D01*
X190054524Y-77013924D01*
X190097440Y-76802000D01*
X190097440Y-76637750D01*
X190915000Y-76637750D01*
X190915000Y-76928310D01*
X190953808Y-77022000D01*
X190915000Y-77115690D01*
X190915000Y-77406250D01*
X191073750Y-77565000D01*
X191873000Y-77565000D01*
X191873000Y-76479000D01*
X192127000Y-76479000D01*
X192127000Y-77565000D01*
X192926250Y-77565000D01*
X193085000Y-77406250D01*
X193085000Y-77115690D01*
X193046192Y-77022000D01*
X193085000Y-76928310D01*
X193085000Y-76637750D01*
X192926250Y-76479000D01*
X192127000Y-76479000D01*
X191873000Y-76479000D01*
X191073750Y-76479000D01*
X190915000Y-76637750D01*
X190097440Y-76637750D01*
X190097440Y-75902000D01*
X190056475Y-75684291D01*
X190097440Y-75482000D01*
X190097440Y-75317750D01*
X190915000Y-75317750D01*
X190915000Y-75608310D01*
X190949666Y-75692000D01*
X190915000Y-75775690D01*
X190915000Y-76066250D01*
X191073750Y-76225000D01*
X191873000Y-76225000D01*
X191873000Y-75159000D01*
X192127000Y-75159000D01*
X192127000Y-76225000D01*
X192926250Y-76225000D01*
X193085000Y-76066250D01*
X193085000Y-75775690D01*
X193050334Y-75692000D01*
X193085000Y-75608310D01*
X193085000Y-75317750D01*
X192926250Y-75159000D01*
X192127000Y-75159000D01*
X191873000Y-75159000D01*
X191073750Y-75159000D01*
X190915000Y-75317750D01*
X190097440Y-75317750D01*
X190097440Y-74582000D01*
X190054524Y-74353924D01*
X190097440Y-74142000D01*
X190097440Y-73977750D01*
X190915000Y-73977750D01*
X190915000Y-74268310D01*
X190953808Y-74362000D01*
X190915000Y-74455690D01*
X190915000Y-74746250D01*
X191073750Y-74905000D01*
X191873000Y-74905000D01*
X191873000Y-73819000D01*
X192127000Y-73819000D01*
X192127000Y-74905000D01*
X192926250Y-74905000D01*
X193085000Y-74746250D01*
X193085000Y-74455690D01*
X193046192Y-74362000D01*
X193085000Y-74268310D01*
X193085000Y-73977750D01*
X192926250Y-73819000D01*
X192127000Y-73819000D01*
X191873000Y-73819000D01*
X191073750Y-73819000D01*
X190915000Y-73977750D01*
X190097440Y-73977750D01*
X190097440Y-73242000D01*
X190073674Y-73115690D01*
X190915000Y-73115690D01*
X190915000Y-73406250D01*
X191073750Y-73565000D01*
X191873000Y-73565000D01*
X191873000Y-72765750D01*
X192127000Y-72765750D01*
X192127000Y-73565000D01*
X192926250Y-73565000D01*
X193085000Y-73406250D01*
X193085000Y-73115690D01*
X192988327Y-72882301D01*
X192809698Y-72703673D01*
X192576309Y-72607000D01*
X192285750Y-72607000D01*
X192127000Y-72765750D01*
X191873000Y-72765750D01*
X191714250Y-72607000D01*
X191423691Y-72607000D01*
X191190302Y-72703673D01*
X191011673Y-72882301D01*
X190915000Y-73115690D01*
X190073674Y-73115690D01*
X190053162Y-73006683D01*
X189914090Y-72790559D01*
X189701890Y-72645569D01*
X189450000Y-72594560D01*
X188550000Y-72594560D01*
X188314683Y-72638838D01*
X188098559Y-72777910D01*
X187993274Y-72932000D01*
X187529000Y-72932000D01*
X187238161Y-72989852D01*
X186991599Y-73154599D01*
X186251638Y-73894560D01*
X185079000Y-73894560D01*
X184843683Y-73938838D01*
X184627559Y-74077910D01*
X184482569Y-74290110D01*
X184431560Y-74542000D01*
X184431560Y-75042000D01*
X184470574Y-75249342D01*
X184431560Y-75442000D01*
X184431560Y-75812510D01*
X184376440Y-75789622D01*
X184376440Y-75442000D01*
X184337426Y-75234658D01*
X184376440Y-75042000D01*
X184376440Y-74542000D01*
X184332162Y-74306683D01*
X184193090Y-74090559D01*
X183980890Y-73945569D01*
X183729000Y-73894560D01*
X182129000Y-73894560D01*
X181893683Y-73938838D01*
X181747348Y-74033002D01*
X181103132Y-74033002D01*
X181208147Y-73875836D01*
X181265999Y-73584997D01*
X181265999Y-72918999D01*
X181245691Y-72816905D01*
X181541167Y-72817162D01*
X181884943Y-72675117D01*
X182148192Y-72412327D01*
X182290838Y-72068799D01*
X182291162Y-71696833D01*
X182149117Y-71353057D01*
X182116000Y-71319882D01*
X182116000Y-68357750D01*
X185825000Y-68357750D01*
X185825000Y-68823310D01*
X185921673Y-69056699D01*
X186100302Y-69235327D01*
X186333691Y-69332000D01*
X186674250Y-69332000D01*
X186833000Y-69173250D01*
X186833000Y-68199000D01*
X185983750Y-68199000D01*
X185825000Y-68357750D01*
X182116000Y-68357750D01*
X182116000Y-67320690D01*
X185825000Y-67320690D01*
X185825000Y-67786250D01*
X185983750Y-67945000D01*
X186833000Y-67945000D01*
X186833000Y-66970750D01*
X186674250Y-66812000D01*
X186333691Y-66812000D01*
X186100302Y-66908673D01*
X185921673Y-67087301D01*
X185825000Y-67320690D01*
X182116000Y-67320690D01*
X182116000Y-66811669D01*
X182058148Y-66520830D01*
X181917110Y-66309750D01*
X183652000Y-66309750D01*
X183652000Y-66650309D01*
X183748673Y-66883698D01*
X183927301Y-67062327D01*
X184160690Y-67159000D01*
X184626250Y-67159000D01*
X184785000Y-67000250D01*
X184785000Y-66151000D01*
X185039000Y-66151000D01*
X185039000Y-67000250D01*
X185197750Y-67159000D01*
X185663310Y-67159000D01*
X185896699Y-67062327D01*
X186075327Y-66883698D01*
X186172000Y-66650309D01*
X186172000Y-66309750D01*
X186013250Y-66151000D01*
X185039000Y-66151000D01*
X184785000Y-66151000D01*
X183810750Y-66151000D01*
X183652000Y-66309750D01*
X181917110Y-66309750D01*
X181893401Y-66274268D01*
X181218833Y-65599700D01*
X181218873Y-65554213D01*
X181076828Y-65210437D01*
X180814038Y-64947188D01*
X180470510Y-64804542D01*
X180098544Y-64804218D01*
X179754768Y-64946263D01*
X179491519Y-65209053D01*
X179348873Y-65552581D01*
X179348549Y-65924547D01*
X179490594Y-66268323D01*
X179753384Y-66531572D01*
X180096912Y-66674218D01*
X180143788Y-66674259D01*
X180596000Y-67126471D01*
X180596000Y-71319537D01*
X180563808Y-71351673D01*
X180421162Y-71695201D01*
X180420838Y-72067167D01*
X180458782Y-72158999D01*
X180090152Y-72158999D01*
X180113440Y-72044000D01*
X180113440Y-71344000D01*
X180069162Y-71108683D01*
X179930090Y-70892559D01*
X179717890Y-70747569D01*
X179466000Y-70696560D01*
X179446920Y-70696560D01*
X179353401Y-70556599D01*
X179215451Y-70418649D01*
X179382378Y-70251722D01*
X179427865Y-70251762D01*
X179771641Y-70109717D01*
X180034890Y-69846927D01*
X180177536Y-69503399D01*
X180177860Y-69131433D01*
X180035815Y-68787657D01*
X179773025Y-68524408D01*
X179429497Y-68381762D01*
X179382621Y-68381721D01*
X178052000Y-67051100D01*
X178052000Y-59850217D01*
X178172910Y-59932831D01*
X178424800Y-59983840D01*
X178664800Y-59983840D01*
X178664800Y-62862313D01*
X178531808Y-62995073D01*
X178389162Y-63338601D01*
X178388838Y-63710567D01*
X178530883Y-64054343D01*
X178793673Y-64317592D01*
X179137201Y-64460238D01*
X179509167Y-64460562D01*
X179852943Y-64318517D01*
X180116192Y-64055727D01*
X180258838Y-63712199D01*
X180259162Y-63340233D01*
X180184800Y-63160263D01*
X180184800Y-59983840D01*
X180424800Y-59983840D01*
X180660117Y-59939562D01*
X180876241Y-59800490D01*
X181021231Y-59588290D01*
X181072240Y-59336400D01*
X181072240Y-57836400D01*
X181027962Y-57601083D01*
X180922318Y-57436908D01*
X180963127Y-57396099D01*
X181059800Y-57162710D01*
X181059800Y-56572150D01*
X184089800Y-56572150D01*
X184089800Y-58312710D01*
X184186473Y-58546099D01*
X184365102Y-58724727D01*
X184598491Y-58821400D01*
X185439050Y-58821400D01*
X185597800Y-58662650D01*
X185597800Y-56413400D01*
X184248550Y-56413400D01*
X184089800Y-56572150D01*
X181059800Y-56572150D01*
X180901050Y-56413400D01*
X179551800Y-56413400D01*
X179551800Y-56433400D01*
X179297800Y-56433400D01*
X179297800Y-56413400D01*
X179277800Y-56413400D01*
X179277800Y-56159400D01*
X179297800Y-56159400D01*
X179297800Y-56139400D01*
X179551800Y-56139400D01*
X179551800Y-56159400D01*
X180901050Y-56159400D01*
X181059800Y-56000650D01*
X181059800Y-55410090D01*
X180963127Y-55176701D01*
X180921166Y-55134740D01*
X181021231Y-54988290D01*
X181049943Y-54846508D01*
X181207284Y-54815210D01*
X181263475Y-54804033D01*
X181550590Y-54612190D01*
X181902689Y-54260090D01*
X184089800Y-54260090D01*
X184089800Y-56000650D01*
X184248550Y-56159400D01*
X185597800Y-56159400D01*
X185597800Y-53910150D01*
X185439050Y-53751400D01*
X184598491Y-53751400D01*
X184365102Y-53848073D01*
X184186473Y-54026701D01*
X184089800Y-54260090D01*
X181902689Y-54260090D01*
X182811779Y-53351000D01*
X186865000Y-53351000D01*
X186865000Y-53757154D01*
X186865000Y-53757154D01*
G37*
X186865000Y-53757154D02*
X186851109Y-53751400D01*
X186010550Y-53751400D01*
X185851800Y-53910150D01*
X185851800Y-56159400D01*
X185871800Y-56159400D01*
X185871800Y-56413400D01*
X185851800Y-56413400D01*
X185851800Y-58662650D01*
X186010550Y-58821400D01*
X186851109Y-58821400D01*
X186865000Y-58815646D01*
X186865000Y-61169962D01*
X186764683Y-61188838D01*
X186548559Y-61327910D01*
X186403569Y-61540110D01*
X186352560Y-61792000D01*
X186352560Y-62107000D01*
X185944000Y-62107000D01*
X185605325Y-62174367D01*
X185318210Y-62366210D01*
X185318208Y-62366213D01*
X184807861Y-62876560D01*
X184287000Y-62876560D01*
X184051683Y-62920838D01*
X183835559Y-63059910D01*
X183690569Y-63272110D01*
X183639560Y-63524000D01*
X183639560Y-64524000D01*
X183683838Y-64759317D01*
X183822910Y-64975441D01*
X183891006Y-65021969D01*
X183748673Y-65164302D01*
X183652000Y-65397691D01*
X183652000Y-65738250D01*
X183810750Y-65897000D01*
X184785000Y-65897000D01*
X184785000Y-65877000D01*
X185039000Y-65877000D01*
X185039000Y-65897000D01*
X186013250Y-65897000D01*
X186172000Y-65738250D01*
X186172000Y-65397691D01*
X186075327Y-65164302D01*
X185934090Y-65023064D01*
X185988441Y-64988090D01*
X186133431Y-64775890D01*
X186184440Y-64524000D01*
X186184440Y-64003139D01*
X186310579Y-63877000D01*
X186352560Y-63877000D01*
X186352560Y-64192000D01*
X186396838Y-64427317D01*
X186535910Y-64643441D01*
X186748110Y-64788431D01*
X187000000Y-64839440D01*
X188500000Y-64839440D01*
X188735317Y-64795162D01*
X188951441Y-64656090D01*
X189096431Y-64443890D01*
X189113925Y-64357504D01*
X191564082Y-66807661D01*
X191504683Y-66818838D01*
X191288559Y-66957910D01*
X191143569Y-67170110D01*
X191114836Y-67312000D01*
X190082038Y-67312000D01*
X190063162Y-67211683D01*
X189924090Y-66995559D01*
X189711890Y-66850569D01*
X189460000Y-66799560D01*
X188460000Y-66799560D01*
X188224683Y-66843838D01*
X188008559Y-66982910D01*
X187962031Y-67051006D01*
X187819698Y-66908673D01*
X187586309Y-66812000D01*
X187245750Y-66812000D01*
X187087000Y-66970750D01*
X187087000Y-67945000D01*
X187107000Y-67945000D01*
X187107000Y-68199000D01*
X187087000Y-68199000D01*
X187087000Y-69173250D01*
X187245750Y-69332000D01*
X187586309Y-69332000D01*
X187819698Y-69235327D01*
X187960936Y-69094090D01*
X187995910Y-69148441D01*
X188208110Y-69293431D01*
X188460000Y-69344440D01*
X189460000Y-69344440D01*
X189695317Y-69300162D01*
X189911441Y-69161090D01*
X190056431Y-68948890D01*
X190080102Y-68832000D01*
X191113258Y-68832000D01*
X191136838Y-68957317D01*
X191275910Y-69173441D01*
X191488110Y-69318431D01*
X191740000Y-69369440D01*
X192304999Y-69369440D01*
X192304999Y-70139994D01*
X192304998Y-70139999D01*
X192354330Y-70388000D01*
X192372366Y-70478674D01*
X192497133Y-70665402D01*
X192564209Y-70765789D01*
X196727000Y-74928579D01*
X196727000Y-78158666D01*
X196601717Y-77855457D01*
X196338927Y-77592208D01*
X195995399Y-77449562D01*
X195623433Y-77449238D01*
X195279657Y-77591283D01*
X195212178Y-77658645D01*
X195093497Y-77682252D01*
X194846935Y-77846999D01*
X194769535Y-77924399D01*
X193031649Y-77924399D01*
X192926250Y-77819000D01*
X192127000Y-77819000D01*
X192127000Y-77839000D01*
X191873000Y-77839000D01*
X191873000Y-77819000D01*
X191073750Y-77819000D01*
X190968351Y-77924399D01*
X190097440Y-77924399D01*
X190097440Y-77242000D01*
X190054524Y-77013924D01*
X190097440Y-76802000D01*
X190097440Y-76637750D01*
X190915000Y-76637750D01*
X190915000Y-76928310D01*
X190953808Y-77022000D01*
X190915000Y-77115690D01*
X190915000Y-77406250D01*
X191073750Y-77565000D01*
X191873000Y-77565000D01*
X191873000Y-76479000D01*
X192127000Y-76479000D01*
X192127000Y-77565000D01*
X192926250Y-77565000D01*
X193085000Y-77406250D01*
X193085000Y-77115690D01*
X193046192Y-77022000D01*
X193085000Y-76928310D01*
X193085000Y-76637750D01*
X192926250Y-76479000D01*
X192127000Y-76479000D01*
X191873000Y-76479000D01*
X191073750Y-76479000D01*
X190915000Y-76637750D01*
X190097440Y-76637750D01*
X190097440Y-75902000D01*
X190056475Y-75684291D01*
X190097440Y-75482000D01*
X190097440Y-75317750D01*
X190915000Y-75317750D01*
X190915000Y-75608310D01*
X190949666Y-75692000D01*
X190915000Y-75775690D01*
X190915000Y-76066250D01*
X191073750Y-76225000D01*
X191873000Y-76225000D01*
X191873000Y-75159000D01*
X192127000Y-75159000D01*
X192127000Y-76225000D01*
X192926250Y-76225000D01*
X193085000Y-76066250D01*
X193085000Y-75775690D01*
X193050334Y-75692000D01*
X193085000Y-75608310D01*
X193085000Y-75317750D01*
X192926250Y-75159000D01*
X192127000Y-75159000D01*
X191873000Y-75159000D01*
X191073750Y-75159000D01*
X190915000Y-75317750D01*
X190097440Y-75317750D01*
X190097440Y-74582000D01*
X190054524Y-74353924D01*
X190097440Y-74142000D01*
X190097440Y-73977750D01*
X190915000Y-73977750D01*
X190915000Y-74268310D01*
X190953808Y-74362000D01*
X190915000Y-74455690D01*
X190915000Y-74746250D01*
X191073750Y-74905000D01*
X191873000Y-74905000D01*
X191873000Y-73819000D01*
X192127000Y-73819000D01*
X192127000Y-74905000D01*
X192926250Y-74905000D01*
X193085000Y-74746250D01*
X193085000Y-74455690D01*
X193046192Y-74362000D01*
X193085000Y-74268310D01*
X193085000Y-73977750D01*
X192926250Y-73819000D01*
X192127000Y-73819000D01*
X191873000Y-73819000D01*
X191073750Y-73819000D01*
X190915000Y-73977750D01*
X190097440Y-73977750D01*
X190097440Y-73242000D01*
X190073674Y-73115690D01*
X190915000Y-73115690D01*
X190915000Y-73406250D01*
X191073750Y-73565000D01*
X191873000Y-73565000D01*
X191873000Y-72765750D01*
X192127000Y-72765750D01*
X192127000Y-73565000D01*
X192926250Y-73565000D01*
X193085000Y-73406250D01*
X193085000Y-73115690D01*
X192988327Y-72882301D01*
X192809698Y-72703673D01*
X192576309Y-72607000D01*
X192285750Y-72607000D01*
X192127000Y-72765750D01*
X191873000Y-72765750D01*
X191714250Y-72607000D01*
X191423691Y-72607000D01*
X191190302Y-72703673D01*
X191011673Y-72882301D01*
X190915000Y-73115690D01*
X190073674Y-73115690D01*
X190053162Y-73006683D01*
X189914090Y-72790559D01*
X189701890Y-72645569D01*
X189450000Y-72594560D01*
X188550000Y-72594560D01*
X188314683Y-72638838D01*
X188098559Y-72777910D01*
X187993274Y-72932000D01*
X187529000Y-72932000D01*
X187238161Y-72989852D01*
X186991599Y-73154599D01*
X186251638Y-73894560D01*
X185079000Y-73894560D01*
X184843683Y-73938838D01*
X184627559Y-74077910D01*
X184482569Y-74290110D01*
X184431560Y-74542000D01*
X184431560Y-75042000D01*
X184470574Y-75249342D01*
X184431560Y-75442000D01*
X184431560Y-75812510D01*
X184376440Y-75789622D01*
X184376440Y-75442000D01*
X184337426Y-75234658D01*
X184376440Y-75042000D01*
X184376440Y-74542000D01*
X184332162Y-74306683D01*
X184193090Y-74090559D01*
X183980890Y-73945569D01*
X183729000Y-73894560D01*
X182129000Y-73894560D01*
X181893683Y-73938838D01*
X181747348Y-74033002D01*
X181103132Y-74033002D01*
X181208147Y-73875836D01*
X181265999Y-73584997D01*
X181265999Y-72918999D01*
X181245691Y-72816905D01*
X181541167Y-72817162D01*
X181884943Y-72675117D01*
X182148192Y-72412327D01*
X182290838Y-72068799D01*
X182291162Y-71696833D01*
X182149117Y-71353057D01*
X182116000Y-71319882D01*
X182116000Y-68357750D01*
X185825000Y-68357750D01*
X185825000Y-68823310D01*
X185921673Y-69056699D01*
X186100302Y-69235327D01*
X186333691Y-69332000D01*
X186674250Y-69332000D01*
X186833000Y-69173250D01*
X186833000Y-68199000D01*
X185983750Y-68199000D01*
X185825000Y-68357750D01*
X182116000Y-68357750D01*
X182116000Y-67320690D01*
X185825000Y-67320690D01*
X185825000Y-67786250D01*
X185983750Y-67945000D01*
X186833000Y-67945000D01*
X186833000Y-66970750D01*
X186674250Y-66812000D01*
X186333691Y-66812000D01*
X186100302Y-66908673D01*
X185921673Y-67087301D01*
X185825000Y-67320690D01*
X182116000Y-67320690D01*
X182116000Y-66811669D01*
X182058148Y-66520830D01*
X181917110Y-66309750D01*
X183652000Y-66309750D01*
X183652000Y-66650309D01*
X183748673Y-66883698D01*
X183927301Y-67062327D01*
X184160690Y-67159000D01*
X184626250Y-67159000D01*
X184785000Y-67000250D01*
X184785000Y-66151000D01*
X185039000Y-66151000D01*
X185039000Y-67000250D01*
X185197750Y-67159000D01*
X185663310Y-67159000D01*
X185896699Y-67062327D01*
X186075327Y-66883698D01*
X186172000Y-66650309D01*
X186172000Y-66309750D01*
X186013250Y-66151000D01*
X185039000Y-66151000D01*
X184785000Y-66151000D01*
X183810750Y-66151000D01*
X183652000Y-66309750D01*
X181917110Y-66309750D01*
X181893401Y-66274268D01*
X181218833Y-65599700D01*
X181218873Y-65554213D01*
X181076828Y-65210437D01*
X180814038Y-64947188D01*
X180470510Y-64804542D01*
X180098544Y-64804218D01*
X179754768Y-64946263D01*
X179491519Y-65209053D01*
X179348873Y-65552581D01*
X179348549Y-65924547D01*
X179490594Y-66268323D01*
X179753384Y-66531572D01*
X180096912Y-66674218D01*
X180143788Y-66674259D01*
X180596000Y-67126471D01*
X180596000Y-71319537D01*
X180563808Y-71351673D01*
X180421162Y-71695201D01*
X180420838Y-72067167D01*
X180458782Y-72158999D01*
X180090152Y-72158999D01*
X180113440Y-72044000D01*
X180113440Y-71344000D01*
X180069162Y-71108683D01*
X179930090Y-70892559D01*
X179717890Y-70747569D01*
X179466000Y-70696560D01*
X179446920Y-70696560D01*
X179353401Y-70556599D01*
X179215451Y-70418649D01*
X179382378Y-70251722D01*
X179427865Y-70251762D01*
X179771641Y-70109717D01*
X180034890Y-69846927D01*
X180177536Y-69503399D01*
X180177860Y-69131433D01*
X180035815Y-68787657D01*
X179773025Y-68524408D01*
X179429497Y-68381762D01*
X179382621Y-68381721D01*
X178052000Y-67051100D01*
X178052000Y-59850217D01*
X178172910Y-59932831D01*
X178424800Y-59983840D01*
X178664800Y-59983840D01*
X178664800Y-62862313D01*
X178531808Y-62995073D01*
X178389162Y-63338601D01*
X178388838Y-63710567D01*
X178530883Y-64054343D01*
X178793673Y-64317592D01*
X179137201Y-64460238D01*
X179509167Y-64460562D01*
X179852943Y-64318517D01*
X180116192Y-64055727D01*
X180258838Y-63712199D01*
X180259162Y-63340233D01*
X180184800Y-63160263D01*
X180184800Y-59983840D01*
X180424800Y-59983840D01*
X180660117Y-59939562D01*
X180876241Y-59800490D01*
X181021231Y-59588290D01*
X181072240Y-59336400D01*
X181072240Y-57836400D01*
X181027962Y-57601083D01*
X180922318Y-57436908D01*
X180963127Y-57396099D01*
X181059800Y-57162710D01*
X181059800Y-56572150D01*
X184089800Y-56572150D01*
X184089800Y-58312710D01*
X184186473Y-58546099D01*
X184365102Y-58724727D01*
X184598491Y-58821400D01*
X185439050Y-58821400D01*
X185597800Y-58662650D01*
X185597800Y-56413400D01*
X184248550Y-56413400D01*
X184089800Y-56572150D01*
X181059800Y-56572150D01*
X180901050Y-56413400D01*
X179551800Y-56413400D01*
X179551800Y-56433400D01*
X179297800Y-56433400D01*
X179297800Y-56413400D01*
X179277800Y-56413400D01*
X179277800Y-56159400D01*
X179297800Y-56159400D01*
X179297800Y-56139400D01*
X179551800Y-56139400D01*
X179551800Y-56159400D01*
X180901050Y-56159400D01*
X181059800Y-56000650D01*
X181059800Y-55410090D01*
X180963127Y-55176701D01*
X180921166Y-55134740D01*
X181021231Y-54988290D01*
X181049943Y-54846508D01*
X181207284Y-54815210D01*
X181263475Y-54804033D01*
X181550590Y-54612190D01*
X181902689Y-54260090D01*
X184089800Y-54260090D01*
X184089800Y-56000650D01*
X184248550Y-56159400D01*
X185597800Y-56159400D01*
X185597800Y-53910150D01*
X185439050Y-53751400D01*
X184598491Y-53751400D01*
X184365102Y-53848073D01*
X184186473Y-54026701D01*
X184089800Y-54260090D01*
X181902689Y-54260090D01*
X182811779Y-53351000D01*
X186865000Y-53351000D01*
X186865000Y-53757154D01*
G36*
X170407750Y-69569750D02*
X171441250Y-69569750D01*
X171441250Y-69549750D01*
X171695250Y-69549750D01*
X171695250Y-69569750D01*
X172728750Y-69569750D01*
X172728750Y-69549750D01*
X172982750Y-69549750D01*
X172982750Y-69569750D01*
X174016250Y-69569750D01*
X174016250Y-69549750D01*
X174270250Y-69549750D01*
X174270250Y-69569750D01*
X174290250Y-69569750D01*
X174290250Y-69823750D01*
X174270250Y-69823750D01*
X174270250Y-70857250D01*
X174290250Y-70857250D01*
X174290250Y-71111250D01*
X174270250Y-71111250D01*
X174270250Y-72144750D01*
X174290250Y-72144750D01*
X174290250Y-72398750D01*
X174270250Y-72398750D01*
X174270250Y-73432250D01*
X174290250Y-73432250D01*
X174290250Y-73686250D01*
X174270250Y-73686250D01*
X174270250Y-73706250D01*
X174016250Y-73706250D01*
X174016250Y-73686250D01*
X172982750Y-73686250D01*
X172982750Y-73706250D01*
X172728750Y-73706250D01*
X172728750Y-73686250D01*
X171695250Y-73686250D01*
X171695250Y-73706250D01*
X171441250Y-73706250D01*
X171441250Y-73686250D01*
X170407750Y-73686250D01*
X170407750Y-73706250D01*
X170153750Y-73706250D01*
X170153750Y-73686250D01*
X170133750Y-73686250D01*
X170133750Y-73432250D01*
X170153750Y-73432250D01*
X170153750Y-72557500D01*
X170289500Y-72557500D01*
X170289500Y-73273500D01*
X170407750Y-73391750D01*
X170407750Y-73432250D01*
X170448250Y-73432250D01*
X170566500Y-73550500D01*
X171282500Y-73550500D01*
X171400750Y-73432250D01*
X171441250Y-73432250D01*
X171441250Y-73391750D01*
X171559500Y-73273500D01*
X171559500Y-72557500D01*
X171577000Y-72557500D01*
X171577000Y-73273500D01*
X171695250Y-73391750D01*
X171695250Y-73432250D01*
X171735750Y-73432250D01*
X171854000Y-73550500D01*
X172570000Y-73550500D01*
X172688250Y-73432250D01*
X172728750Y-73432250D01*
X172728750Y-73391750D01*
X172847000Y-73273500D01*
X172847000Y-72557500D01*
X172864500Y-72557500D01*
X172864500Y-73273500D01*
X172982750Y-73391750D01*
X172982750Y-73432250D01*
X173023250Y-73432250D01*
X173141500Y-73550500D01*
X173857500Y-73550500D01*
X173975750Y-73432250D01*
X174016250Y-73432250D01*
X174016250Y-73391750D01*
X174134500Y-73273500D01*
X174134500Y-72557500D01*
X174016250Y-72439250D01*
X174016250Y-72398750D01*
X173975750Y-72398750D01*
X173857500Y-72280500D01*
X173141500Y-72280500D01*
X173023250Y-72398750D01*
X172982750Y-72398750D01*
X172982750Y-72439250D01*
X172864500Y-72557500D01*
X172847000Y-72557500D01*
X172728750Y-72439250D01*
X172728750Y-72398750D01*
X172688250Y-72398750D01*
X172570000Y-72280500D01*
X171854000Y-72280500D01*
X171735750Y-72398750D01*
X171695250Y-72398750D01*
X171695250Y-72439250D01*
X171577000Y-72557500D01*
X171559500Y-72557500D01*
X171441250Y-72439250D01*
X171441250Y-72398750D01*
X171400750Y-72398750D01*
X171282500Y-72280500D01*
X170566500Y-72280500D01*
X170448250Y-72398750D01*
X170407750Y-72398750D01*
X170407750Y-72439250D01*
X170289500Y-72557500D01*
X170153750Y-72557500D01*
X170153750Y-72398750D01*
X170133750Y-72398750D01*
X170133750Y-72144750D01*
X170153750Y-72144750D01*
X170153750Y-71270000D01*
X170289500Y-71270000D01*
X170289500Y-71986000D01*
X170407750Y-72104250D01*
X170407750Y-72144750D01*
X170448250Y-72144750D01*
X170566500Y-72263000D01*
X171282500Y-72263000D01*
X171400750Y-72144750D01*
X171441250Y-72144750D01*
X171441250Y-72104250D01*
X171559500Y-71986000D01*
X171559500Y-71270000D01*
X171577000Y-71270000D01*
X171577000Y-71986000D01*
X171695250Y-72104250D01*
X171695250Y-72144750D01*
X171735750Y-72144750D01*
X171854000Y-72263000D01*
X172570000Y-72263000D01*
X172688250Y-72144750D01*
X172728750Y-72144750D01*
X172728750Y-72104250D01*
X172847000Y-71986000D01*
X172847000Y-71270000D01*
X172864500Y-71270000D01*
X172864500Y-71986000D01*
X172982750Y-72104250D01*
X172982750Y-72144750D01*
X173023250Y-72144750D01*
X173141500Y-72263000D01*
X173857500Y-72263000D01*
X173975750Y-72144750D01*
X174016250Y-72144750D01*
X174016250Y-72104250D01*
X174134500Y-71986000D01*
X174134500Y-71270000D01*
X174016250Y-71151750D01*
X174016250Y-71111250D01*
X173975750Y-71111250D01*
X173857500Y-70993000D01*
X173141500Y-70993000D01*
X173023250Y-71111250D01*
X172982750Y-71111250D01*
X172982750Y-71151750D01*
X172864500Y-71270000D01*
X172847000Y-71270000D01*
X172728750Y-71151750D01*
X172728750Y-71111250D01*
X172688250Y-71111250D01*
X172570000Y-70993000D01*
X171854000Y-70993000D01*
X171735750Y-71111250D01*
X171695250Y-71111250D01*
X171695250Y-71151750D01*
X171577000Y-71270000D01*
X171559500Y-71270000D01*
X171441250Y-71151750D01*
X171441250Y-71111250D01*
X171400750Y-71111250D01*
X171282500Y-70993000D01*
X170566500Y-70993000D01*
X170448250Y-71111250D01*
X170407750Y-71111250D01*
X170407750Y-71151750D01*
X170289500Y-71270000D01*
X170153750Y-71270000D01*
X170153750Y-71111250D01*
X170133750Y-71111250D01*
X170133750Y-70857250D01*
X170153750Y-70857250D01*
X170153750Y-69982500D01*
X170289500Y-69982500D01*
X170289500Y-70698500D01*
X170407750Y-70816750D01*
X170407750Y-70857250D01*
X170448250Y-70857250D01*
X170566500Y-70975500D01*
X171282500Y-70975500D01*
X171400750Y-70857250D01*
X171441250Y-70857250D01*
X171441250Y-70816750D01*
X171559500Y-70698500D01*
X171559500Y-69982500D01*
X171577000Y-69982500D01*
X171577000Y-70698500D01*
X171695250Y-70816750D01*
X171695250Y-70857250D01*
X171735750Y-70857250D01*
X171854000Y-70975500D01*
X172570000Y-70975500D01*
X172688250Y-70857250D01*
X172728750Y-70857250D01*
X172728750Y-70816750D01*
X172847000Y-70698500D01*
X172847000Y-69982500D01*
X172864500Y-69982500D01*
X172864500Y-70698500D01*
X172982750Y-70816750D01*
X172982750Y-70857250D01*
X173023250Y-70857250D01*
X173141500Y-70975500D01*
X173857500Y-70975500D01*
X173975750Y-70857250D01*
X174016250Y-70857250D01*
X174016250Y-70816750D01*
X174134500Y-70698500D01*
X174134500Y-69982500D01*
X174016250Y-69864250D01*
X174016250Y-69823750D01*
X173975750Y-69823750D01*
X173857500Y-69705500D01*
X173141500Y-69705500D01*
X173023250Y-69823750D01*
X172982750Y-69823750D01*
X172982750Y-69864250D01*
X172864500Y-69982500D01*
X172847000Y-69982500D01*
X172728750Y-69864250D01*
X172728750Y-69823750D01*
X172688250Y-69823750D01*
X172570000Y-69705500D01*
X171854000Y-69705500D01*
X171735750Y-69823750D01*
X171695250Y-69823750D01*
X171695250Y-69864250D01*
X171577000Y-69982500D01*
X171559500Y-69982500D01*
X171441250Y-69864250D01*
X171441250Y-69823750D01*
X171400750Y-69823750D01*
X171282500Y-69705500D01*
X170566500Y-69705500D01*
X170448250Y-69823750D01*
X170407750Y-69823750D01*
X170407750Y-69864250D01*
X170289500Y-69982500D01*
X170153750Y-69982500D01*
X170153750Y-69823750D01*
X170133750Y-69823750D01*
X170133750Y-69569750D01*
X170153750Y-69569750D01*
X170153750Y-69549750D01*
X170407750Y-69549750D01*
X170407750Y-69569750D01*
X170407750Y-69569750D01*
G37*
X170407750Y-69569750D02*
X171441250Y-69569750D01*
X171441250Y-69549750D01*
X171695250Y-69549750D01*
X171695250Y-69569750D01*
X172728750Y-69569750D01*
X172728750Y-69549750D01*
X172982750Y-69549750D01*
X172982750Y-69569750D01*
X174016250Y-69569750D01*
X174016250Y-69549750D01*
X174270250Y-69549750D01*
X174270250Y-69569750D01*
X174290250Y-69569750D01*
X174290250Y-69823750D01*
X174270250Y-69823750D01*
X174270250Y-70857250D01*
X174290250Y-70857250D01*
X174290250Y-71111250D01*
X174270250Y-71111250D01*
X174270250Y-72144750D01*
X174290250Y-72144750D01*
X174290250Y-72398750D01*
X174270250Y-72398750D01*
X174270250Y-73432250D01*
X174290250Y-73432250D01*
X174290250Y-73686250D01*
X174270250Y-73686250D01*
X174270250Y-73706250D01*
X174016250Y-73706250D01*
X174016250Y-73686250D01*
X172982750Y-73686250D01*
X172982750Y-73706250D01*
X172728750Y-73706250D01*
X172728750Y-73686250D01*
X171695250Y-73686250D01*
X171695250Y-73706250D01*
X171441250Y-73706250D01*
X171441250Y-73686250D01*
X170407750Y-73686250D01*
X170407750Y-73706250D01*
X170153750Y-73706250D01*
X170153750Y-73686250D01*
X170133750Y-73686250D01*
X170133750Y-73432250D01*
X170153750Y-73432250D01*
X170153750Y-72557500D01*
X170289500Y-72557500D01*
X170289500Y-73273500D01*
X170407750Y-73391750D01*
X170407750Y-73432250D01*
X170448250Y-73432250D01*
X170566500Y-73550500D01*
X171282500Y-73550500D01*
X171400750Y-73432250D01*
X171441250Y-73432250D01*
X171441250Y-73391750D01*
X171559500Y-73273500D01*
X171559500Y-72557500D01*
X171577000Y-72557500D01*
X171577000Y-73273500D01*
X171695250Y-73391750D01*
X171695250Y-73432250D01*
X171735750Y-73432250D01*
X171854000Y-73550500D01*
X172570000Y-73550500D01*
X172688250Y-73432250D01*
X172728750Y-73432250D01*
X172728750Y-73391750D01*
X172847000Y-73273500D01*
X172847000Y-72557500D01*
X172864500Y-72557500D01*
X172864500Y-73273500D01*
X172982750Y-73391750D01*
X172982750Y-73432250D01*
X173023250Y-73432250D01*
X173141500Y-73550500D01*
X173857500Y-73550500D01*
X173975750Y-73432250D01*
X174016250Y-73432250D01*
X174016250Y-73391750D01*
X174134500Y-73273500D01*
X174134500Y-72557500D01*
X174016250Y-72439250D01*
X174016250Y-72398750D01*
X173975750Y-72398750D01*
X173857500Y-72280500D01*
X173141500Y-72280500D01*
X173023250Y-72398750D01*
X172982750Y-72398750D01*
X172982750Y-72439250D01*
X172864500Y-72557500D01*
X172847000Y-72557500D01*
X172728750Y-72439250D01*
X172728750Y-72398750D01*
X172688250Y-72398750D01*
X172570000Y-72280500D01*
X171854000Y-72280500D01*
X171735750Y-72398750D01*
X171695250Y-72398750D01*
X171695250Y-72439250D01*
X171577000Y-72557500D01*
X171559500Y-72557500D01*
X171441250Y-72439250D01*
X171441250Y-72398750D01*
X171400750Y-72398750D01*
X171282500Y-72280500D01*
X170566500Y-72280500D01*
X170448250Y-72398750D01*
X170407750Y-72398750D01*
X170407750Y-72439250D01*
X170289500Y-72557500D01*
X170153750Y-72557500D01*
X170153750Y-72398750D01*
X170133750Y-72398750D01*
X170133750Y-72144750D01*
X170153750Y-72144750D01*
X170153750Y-71270000D01*
X170289500Y-71270000D01*
X170289500Y-71986000D01*
X170407750Y-72104250D01*
X170407750Y-72144750D01*
X170448250Y-72144750D01*
X170566500Y-72263000D01*
X171282500Y-72263000D01*
X171400750Y-72144750D01*
X171441250Y-72144750D01*
X171441250Y-72104250D01*
X171559500Y-71986000D01*
X171559500Y-71270000D01*
X171577000Y-71270000D01*
X171577000Y-71986000D01*
X171695250Y-72104250D01*
X171695250Y-72144750D01*
X171735750Y-72144750D01*
X171854000Y-72263000D01*
X172570000Y-72263000D01*
X172688250Y-72144750D01*
X172728750Y-72144750D01*
X172728750Y-72104250D01*
X172847000Y-71986000D01*
X172847000Y-71270000D01*
X172864500Y-71270000D01*
X172864500Y-71986000D01*
X172982750Y-72104250D01*
X172982750Y-72144750D01*
X173023250Y-72144750D01*
X173141500Y-72263000D01*
X173857500Y-72263000D01*
X173975750Y-72144750D01*
X174016250Y-72144750D01*
X174016250Y-72104250D01*
X174134500Y-71986000D01*
X174134500Y-71270000D01*
X174016250Y-71151750D01*
X174016250Y-71111250D01*
X173975750Y-71111250D01*
X173857500Y-70993000D01*
X173141500Y-70993000D01*
X173023250Y-71111250D01*
X172982750Y-71111250D01*
X172982750Y-71151750D01*
X172864500Y-71270000D01*
X172847000Y-71270000D01*
X172728750Y-71151750D01*
X172728750Y-71111250D01*
X172688250Y-71111250D01*
X172570000Y-70993000D01*
X171854000Y-70993000D01*
X171735750Y-71111250D01*
X171695250Y-71111250D01*
X171695250Y-71151750D01*
X171577000Y-71270000D01*
X171559500Y-71270000D01*
X171441250Y-71151750D01*
X171441250Y-71111250D01*
X171400750Y-71111250D01*
X171282500Y-70993000D01*
X170566500Y-70993000D01*
X170448250Y-71111250D01*
X170407750Y-71111250D01*
X170407750Y-71151750D01*
X170289500Y-71270000D01*
X170153750Y-71270000D01*
X170153750Y-71111250D01*
X170133750Y-71111250D01*
X170133750Y-70857250D01*
X170153750Y-70857250D01*
X170153750Y-69982500D01*
X170289500Y-69982500D01*
X170289500Y-70698500D01*
X170407750Y-70816750D01*
X170407750Y-70857250D01*
X170448250Y-70857250D01*
X170566500Y-70975500D01*
X171282500Y-70975500D01*
X171400750Y-70857250D01*
X171441250Y-70857250D01*
X171441250Y-70816750D01*
X171559500Y-70698500D01*
X171559500Y-69982500D01*
X171577000Y-69982500D01*
X171577000Y-70698500D01*
X171695250Y-70816750D01*
X171695250Y-70857250D01*
X171735750Y-70857250D01*
X171854000Y-70975500D01*
X172570000Y-70975500D01*
X172688250Y-70857250D01*
X172728750Y-70857250D01*
X172728750Y-70816750D01*
X172847000Y-70698500D01*
X172847000Y-69982500D01*
X172864500Y-69982500D01*
X172864500Y-70698500D01*
X172982750Y-70816750D01*
X172982750Y-70857250D01*
X173023250Y-70857250D01*
X173141500Y-70975500D01*
X173857500Y-70975500D01*
X173975750Y-70857250D01*
X174016250Y-70857250D01*
X174016250Y-70816750D01*
X174134500Y-70698500D01*
X174134500Y-69982500D01*
X174016250Y-69864250D01*
X174016250Y-69823750D01*
X173975750Y-69823750D01*
X173857500Y-69705500D01*
X173141500Y-69705500D01*
X173023250Y-69823750D01*
X172982750Y-69823750D01*
X172982750Y-69864250D01*
X172864500Y-69982500D01*
X172847000Y-69982500D01*
X172728750Y-69864250D01*
X172728750Y-69823750D01*
X172688250Y-69823750D01*
X172570000Y-69705500D01*
X171854000Y-69705500D01*
X171735750Y-69823750D01*
X171695250Y-69823750D01*
X171695250Y-69864250D01*
X171577000Y-69982500D01*
X171559500Y-69982500D01*
X171441250Y-69864250D01*
X171441250Y-69823750D01*
X171400750Y-69823750D01*
X171282500Y-69705500D01*
X170566500Y-69705500D01*
X170448250Y-69823750D01*
X170407750Y-69823750D01*
X170407750Y-69864250D01*
X170289500Y-69982500D01*
X170153750Y-69982500D01*
X170153750Y-69823750D01*
X170133750Y-69823750D01*
X170133750Y-69569750D01*
X170153750Y-69569750D01*
X170153750Y-69549750D01*
X170407750Y-69549750D01*
X170407750Y-69569750D01*
G36*
X163529000Y-69059000D02*
X163549000Y-69059000D01*
X163549000Y-69313000D01*
X163529000Y-69313000D01*
X163529000Y-69333000D01*
X163275000Y-69333000D01*
X163275000Y-69313000D01*
X163255000Y-69313000D01*
X163255000Y-69059000D01*
X163275000Y-69059000D01*
X163275000Y-69039000D01*
X163529000Y-69039000D01*
X163529000Y-69059000D01*
X163529000Y-69059000D01*
G37*
X163529000Y-69059000D02*
X163549000Y-69059000D01*
X163549000Y-69313000D01*
X163529000Y-69313000D01*
X163529000Y-69333000D01*
X163275000Y-69333000D01*
X163275000Y-69313000D01*
X163255000Y-69313000D01*
X163255000Y-69059000D01*
X163275000Y-69059000D01*
X163275000Y-69039000D01*
X163529000Y-69039000D01*
X163529000Y-69059000D01*
G36*
X190726560Y-50892000D02*
X190726560Y-51592000D01*
X190770838Y-51827317D01*
X190909910Y-52043441D01*
X190946547Y-52068474D01*
X190922559Y-52083910D01*
X190777569Y-52296110D01*
X190726560Y-52548000D01*
X190726560Y-53248000D01*
X190770838Y-53483317D01*
X190909910Y-53699441D01*
X191122110Y-53844431D01*
X191155490Y-53851191D01*
X191014301Y-53909673D01*
X190835673Y-54088302D01*
X190739000Y-54321691D01*
X190739000Y-54512250D01*
X190897750Y-54671000D01*
X191897000Y-54671000D01*
X191897000Y-54651000D01*
X192151000Y-54651000D01*
X192151000Y-54671000D01*
X192171000Y-54671000D01*
X192171000Y-54925000D01*
X192151000Y-54925000D01*
X192151000Y-54945000D01*
X191897000Y-54945000D01*
X191897000Y-54925000D01*
X190897750Y-54925000D01*
X190739000Y-55083750D01*
X190739000Y-55274309D01*
X190835673Y-55507698D01*
X191014301Y-55686327D01*
X191247690Y-55783000D01*
X191633716Y-55783000D01*
X191596559Y-55806910D01*
X191451569Y-56019110D01*
X191400560Y-56271000D01*
X191400560Y-57521000D01*
X191444838Y-57756317D01*
X191583910Y-57972441D01*
X191796110Y-58117431D01*
X192048000Y-58168440D01*
X192620638Y-58168440D01*
X194679599Y-60227401D01*
X194926161Y-60392148D01*
X195217000Y-60450000D01*
X197592560Y-60450000D01*
X197592560Y-60512638D01*
X195873198Y-62232000D01*
X194647440Y-62232000D01*
X194647440Y-61792000D01*
X194603162Y-61556683D01*
X194464090Y-61340559D01*
X194251890Y-61195569D01*
X194000000Y-61144560D01*
X192500000Y-61144560D01*
X192264683Y-61188838D01*
X192048559Y-61327910D01*
X191903569Y-61540110D01*
X191852560Y-61792000D01*
X191852560Y-64192000D01*
X191896838Y-64427317D01*
X192035910Y-64643441D01*
X192248110Y-64788431D01*
X192500000Y-64839440D01*
X193230000Y-64839440D01*
X193230000Y-65970421D01*
X189625790Y-62366210D01*
X189338675Y-62174367D01*
X189282484Y-62163190D01*
X189147440Y-62136327D01*
X189147440Y-61792000D01*
X189103162Y-61556683D01*
X188964090Y-61340559D01*
X188751890Y-61195569D01*
X188635000Y-61171898D01*
X188635000Y-52832580D01*
X190764898Y-50702681D01*
X190726560Y-50892000D01*
X190726560Y-50892000D01*
G37*
X190726560Y-50892000D02*
X190726560Y-51592000D01*
X190770838Y-51827317D01*
X190909910Y-52043441D01*
X190946547Y-52068474D01*
X190922559Y-52083910D01*
X190777569Y-52296110D01*
X190726560Y-52548000D01*
X190726560Y-53248000D01*
X190770838Y-53483317D01*
X190909910Y-53699441D01*
X191122110Y-53844431D01*
X191155490Y-53851191D01*
X191014301Y-53909673D01*
X190835673Y-54088302D01*
X190739000Y-54321691D01*
X190739000Y-54512250D01*
X190897750Y-54671000D01*
X191897000Y-54671000D01*
X191897000Y-54651000D01*
X192151000Y-54651000D01*
X192151000Y-54671000D01*
X192171000Y-54671000D01*
X192171000Y-54925000D01*
X192151000Y-54925000D01*
X192151000Y-54945000D01*
X191897000Y-54945000D01*
X191897000Y-54925000D01*
X190897750Y-54925000D01*
X190739000Y-55083750D01*
X190739000Y-55274309D01*
X190835673Y-55507698D01*
X191014301Y-55686327D01*
X191247690Y-55783000D01*
X191633716Y-55783000D01*
X191596559Y-55806910D01*
X191451569Y-56019110D01*
X191400560Y-56271000D01*
X191400560Y-57521000D01*
X191444838Y-57756317D01*
X191583910Y-57972441D01*
X191796110Y-58117431D01*
X192048000Y-58168440D01*
X192620638Y-58168440D01*
X194679599Y-60227401D01*
X194926161Y-60392148D01*
X195217000Y-60450000D01*
X197592560Y-60450000D01*
X197592560Y-60512638D01*
X195873198Y-62232000D01*
X194647440Y-62232000D01*
X194647440Y-61792000D01*
X194603162Y-61556683D01*
X194464090Y-61340559D01*
X194251890Y-61195569D01*
X194000000Y-61144560D01*
X192500000Y-61144560D01*
X192264683Y-61188838D01*
X192048559Y-61327910D01*
X191903569Y-61540110D01*
X191852560Y-61792000D01*
X191852560Y-64192000D01*
X191896838Y-64427317D01*
X192035910Y-64643441D01*
X192248110Y-64788431D01*
X192500000Y-64839440D01*
X193230000Y-64839440D01*
X193230000Y-65970421D01*
X189625790Y-62366210D01*
X189338675Y-62174367D01*
X189282484Y-62163190D01*
X189147440Y-62136327D01*
X189147440Y-61792000D01*
X189103162Y-61556683D01*
X188964090Y-61340559D01*
X188751890Y-61195569D01*
X188635000Y-61171898D01*
X188635000Y-52832580D01*
X190764898Y-50702681D01*
X190726560Y-50892000D01*
G36*
X174841750Y-52441000D02*
X175641000Y-52441000D01*
X175641000Y-52419000D01*
X175785402Y-52419000D01*
X175785402Y-53745796D01*
X175738599Y-53792599D01*
X175645080Y-53932560D01*
X175626000Y-53932560D01*
X175390683Y-53976838D01*
X175174559Y-54115910D01*
X175029569Y-54328110D01*
X174978560Y-54580000D01*
X174978560Y-55280000D01*
X175022838Y-55515317D01*
X175161910Y-55731441D01*
X175374110Y-55876431D01*
X175387197Y-55879081D01*
X175174559Y-56015910D01*
X175029569Y-56228110D01*
X174978560Y-56480000D01*
X174978560Y-57180000D01*
X175022838Y-57415317D01*
X175098421Y-57532777D01*
X173972000Y-58659198D01*
X173972000Y-57922000D01*
X173914148Y-57631161D01*
X173872680Y-57569099D01*
X173966431Y-57431890D01*
X174017440Y-57180000D01*
X174017440Y-56480000D01*
X173973162Y-56244683D01*
X173834090Y-56028559D01*
X173621890Y-55883569D01*
X173608803Y-55880919D01*
X173821441Y-55744090D01*
X173966431Y-55531890D01*
X174017440Y-55280000D01*
X174017440Y-54580000D01*
X173973162Y-54344683D01*
X173834090Y-54128559D01*
X173621890Y-53983569D01*
X173480000Y-53954836D01*
X173480000Y-53421250D01*
X173609000Y-53292250D01*
X173609000Y-52691000D01*
X173863000Y-52691000D01*
X173863000Y-53292250D01*
X174021750Y-53451000D01*
X174312310Y-53451000D01*
X174545699Y-53354327D01*
X174724327Y-53175698D01*
X174752000Y-53108890D01*
X174779673Y-53175698D01*
X174958301Y-53354327D01*
X175191690Y-53451000D01*
X175482250Y-53451000D01*
X175641000Y-53292250D01*
X175641000Y-52691000D01*
X174841750Y-52691000D01*
X174752000Y-52780750D01*
X174662250Y-52691000D01*
X173863000Y-52691000D01*
X173609000Y-52691000D01*
X173589000Y-52691000D01*
X173589000Y-52441000D01*
X173609000Y-52441000D01*
X173609000Y-52419000D01*
X173863000Y-52419000D01*
X173863000Y-52441000D01*
X174662250Y-52441000D01*
X174752000Y-52351250D01*
X174841750Y-52441000D01*
X174841750Y-52441000D01*
G37*
X174841750Y-52441000D02*
X175641000Y-52441000D01*
X175641000Y-52419000D01*
X175785402Y-52419000D01*
X175785402Y-53745796D01*
X175738599Y-53792599D01*
X175645080Y-53932560D01*
X175626000Y-53932560D01*
X175390683Y-53976838D01*
X175174559Y-54115910D01*
X175029569Y-54328110D01*
X174978560Y-54580000D01*
X174978560Y-55280000D01*
X175022838Y-55515317D01*
X175161910Y-55731441D01*
X175374110Y-55876431D01*
X175387197Y-55879081D01*
X175174559Y-56015910D01*
X175029569Y-56228110D01*
X174978560Y-56480000D01*
X174978560Y-57180000D01*
X175022838Y-57415317D01*
X175098421Y-57532777D01*
X173972000Y-58659198D01*
X173972000Y-57922000D01*
X173914148Y-57631161D01*
X173872680Y-57569099D01*
X173966431Y-57431890D01*
X174017440Y-57180000D01*
X174017440Y-56480000D01*
X173973162Y-56244683D01*
X173834090Y-56028559D01*
X173621890Y-55883569D01*
X173608803Y-55880919D01*
X173821441Y-55744090D01*
X173966431Y-55531890D01*
X174017440Y-55280000D01*
X174017440Y-54580000D01*
X173973162Y-54344683D01*
X173834090Y-54128559D01*
X173621890Y-53983569D01*
X173480000Y-53954836D01*
X173480000Y-53421250D01*
X173609000Y-53292250D01*
X173609000Y-52691000D01*
X173863000Y-52691000D01*
X173863000Y-53292250D01*
X174021750Y-53451000D01*
X174312310Y-53451000D01*
X174545699Y-53354327D01*
X174724327Y-53175698D01*
X174752000Y-53108890D01*
X174779673Y-53175698D01*
X174958301Y-53354327D01*
X175191690Y-53451000D01*
X175482250Y-53451000D01*
X175641000Y-53292250D01*
X175641000Y-52691000D01*
X174841750Y-52691000D01*
X174752000Y-52780750D01*
X174662250Y-52691000D01*
X173863000Y-52691000D01*
X173609000Y-52691000D01*
X173589000Y-52691000D01*
X173589000Y-52441000D01*
X173609000Y-52441000D01*
X173609000Y-52419000D01*
X173863000Y-52419000D01*
X173863000Y-52441000D01*
X174662250Y-52441000D01*
X174752000Y-52351250D01*
X174841750Y-52441000D01*
G36*
X198247000Y-52705000D02*
X198267000Y-52705000D01*
X198267000Y-52959000D01*
X198247000Y-52959000D01*
X198247000Y-55808250D01*
X198405750Y-55967000D01*
X199385198Y-55967000D01*
X199216198Y-56136000D01*
X195670038Y-56136000D01*
X195651162Y-56035683D01*
X195512090Y-55819559D01*
X195447002Y-55775086D01*
X195447002Y-55733252D01*
X195605750Y-55892000D01*
X196112624Y-55892000D01*
X196293690Y-55967000D01*
X197834250Y-55967000D01*
X197993000Y-55808250D01*
X197993000Y-52959000D01*
X197973000Y-52959000D01*
X197973000Y-52705000D01*
X197993000Y-52705000D01*
X197993000Y-52685000D01*
X198247000Y-52685000D01*
X198247000Y-52705000D01*
X198247000Y-52705000D01*
G37*
X198247000Y-52705000D02*
X198267000Y-52705000D01*
X198267000Y-52959000D01*
X198247000Y-52959000D01*
X198247000Y-55808250D01*
X198405750Y-55967000D01*
X199385198Y-55967000D01*
X199216198Y-56136000D01*
X195670038Y-56136000D01*
X195651162Y-56035683D01*
X195512090Y-55819559D01*
X195447002Y-55775086D01*
X195447002Y-55733252D01*
X195605750Y-55892000D01*
X196112624Y-55892000D01*
X196293690Y-55967000D01*
X197834250Y-55967000D01*
X197993000Y-55808250D01*
X197993000Y-52959000D01*
X197973000Y-52959000D01*
X197973000Y-52705000D01*
X197993000Y-52705000D01*
X197993000Y-52685000D01*
X198247000Y-52685000D01*
X198247000Y-52705000D01*
G36*
X214536559Y-42143910D02*
X214391569Y-42356110D01*
X214340560Y-42608000D01*
X214340560Y-44003861D01*
X212210210Y-46134210D01*
X212018367Y-46421325D01*
X212018367Y-46421326D01*
X211982899Y-46599630D01*
X211884559Y-46662910D01*
X211838031Y-46731006D01*
X211695698Y-46588673D01*
X211462309Y-46492000D01*
X211121750Y-46492000D01*
X210963000Y-46650750D01*
X210963000Y-47625000D01*
X210983000Y-47625000D01*
X210983000Y-47879000D01*
X210963000Y-47879000D01*
X210963000Y-48853250D01*
X211121750Y-49012000D01*
X211462309Y-49012000D01*
X211695698Y-48915327D01*
X211836936Y-48774090D01*
X211871910Y-48828441D01*
X211951000Y-48882481D01*
X211951000Y-49160156D01*
X211884559Y-49202910D01*
X211838031Y-49271006D01*
X211695698Y-49128673D01*
X211462309Y-49032000D01*
X211121750Y-49032000D01*
X210963000Y-49190750D01*
X210963000Y-50165000D01*
X210983000Y-50165000D01*
X210983000Y-50419000D01*
X210963000Y-50419000D01*
X210963000Y-50439000D01*
X210709000Y-50439000D01*
X210709000Y-50419000D01*
X209859750Y-50419000D01*
X209701000Y-50577750D01*
X209701000Y-51043310D01*
X209797673Y-51276699D01*
X209976302Y-51455327D01*
X210209691Y-51552000D01*
X210449421Y-51552000D01*
X208429420Y-53572000D01*
X206958623Y-53572000D01*
X206961431Y-53567890D01*
X207012440Y-53316000D01*
X207012440Y-52316000D01*
X206968162Y-52080683D01*
X206829090Y-51864559D01*
X206759289Y-51816866D01*
X206816441Y-51780090D01*
X206961431Y-51567890D01*
X207012440Y-51316000D01*
X207012440Y-50316000D01*
X206968162Y-50080683D01*
X206829090Y-49864559D01*
X206616890Y-49719569D01*
X206365000Y-49668560D01*
X205115000Y-49668560D01*
X204879683Y-49712838D01*
X204722793Y-49813794D01*
X204584890Y-49719569D01*
X204333000Y-49668560D01*
X203083000Y-49668560D01*
X202847683Y-49712838D01*
X202821493Y-49729691D01*
X202632492Y-49540690D01*
X209701000Y-49540690D01*
X209701000Y-50006250D01*
X209859750Y-50165000D01*
X210709000Y-50165000D01*
X210709000Y-49190750D01*
X210550250Y-49032000D01*
X210209691Y-49032000D01*
X209976302Y-49128673D01*
X209797673Y-49307301D01*
X209701000Y-49540690D01*
X202632492Y-49540690D01*
X202289460Y-49197658D01*
X202290392Y-49196727D01*
X202433038Y-48853199D01*
X202433362Y-48481233D01*
X202294051Y-48144073D01*
X202366697Y-48037750D01*
X209701000Y-48037750D01*
X209701000Y-48503310D01*
X209797673Y-48736699D01*
X209976302Y-48915327D01*
X210209691Y-49012000D01*
X210550250Y-49012000D01*
X210709000Y-48853250D01*
X210709000Y-47879000D01*
X209859750Y-47879000D01*
X209701000Y-48037750D01*
X202366697Y-48037750D01*
X202414431Y-47967890D01*
X202465440Y-47716000D01*
X202465440Y-47016000D01*
X202462560Y-47000690D01*
X209701000Y-47000690D01*
X209701000Y-47466250D01*
X209859750Y-47625000D01*
X210709000Y-47625000D01*
X210709000Y-46650750D01*
X210550250Y-46492000D01*
X210209691Y-46492000D01*
X209976302Y-46588673D01*
X209797673Y-46767301D01*
X209701000Y-47000690D01*
X202462560Y-47000690D01*
X202421162Y-46780683D01*
X202282090Y-46564559D01*
X202069890Y-46419569D01*
X202056803Y-46416919D01*
X202269441Y-46280090D01*
X202414431Y-46067890D01*
X202465440Y-45816000D01*
X202465440Y-45116000D01*
X202421162Y-44880683D01*
X202282090Y-44664559D01*
X202069890Y-44519569D01*
X201818000Y-44468560D01*
X200518000Y-44468560D01*
X200282683Y-44512838D01*
X200159883Y-44591857D01*
X200145699Y-44577673D01*
X199912310Y-44481000D01*
X199421750Y-44481000D01*
X199263000Y-44639750D01*
X199263000Y-45339000D01*
X199283000Y-45339000D01*
X199283000Y-45531001D01*
X194100004Y-45531001D01*
X194099999Y-45531000D01*
X193817515Y-45587191D01*
X193761324Y-45598368D01*
X193474209Y-45790211D01*
X193474207Y-45790214D01*
X191398210Y-47866210D01*
X191206367Y-48153325D01*
X191203965Y-48165401D01*
X191160330Y-48384765D01*
X191138683Y-48388838D01*
X191032756Y-48457000D01*
X190874005Y-48457000D01*
X190874000Y-48456999D01*
X190571994Y-48517073D01*
X190535325Y-48524367D01*
X190248210Y-48716210D01*
X190248208Y-48716213D01*
X187383420Y-51581000D01*
X182445200Y-51581000D01*
X182106525Y-51648367D01*
X181819410Y-51840210D01*
X181819408Y-51840213D01*
X180880437Y-52779183D01*
X180676690Y-52639969D01*
X180424800Y-52588960D01*
X178424800Y-52588960D01*
X178189483Y-52633238D01*
X178052000Y-52721706D01*
X178052000Y-51616463D01*
X178084192Y-51584327D01*
X178226838Y-51240799D01*
X178227162Y-50868833D01*
X178209232Y-50825440D01*
X180202000Y-50825440D01*
X180437317Y-50781162D01*
X180653441Y-50642090D01*
X180798431Y-50429890D01*
X180849440Y-50178000D01*
X180849440Y-47678000D01*
X180805162Y-47442683D01*
X180666090Y-47226559D01*
X180453890Y-47081569D01*
X180202000Y-47030560D01*
X179962000Y-47030560D01*
X179962000Y-45325440D01*
X180202000Y-45325440D01*
X180437317Y-45281162D01*
X180653441Y-45142090D01*
X180757570Y-44989691D01*
X193787000Y-44989691D01*
X193787000Y-45180250D01*
X193945750Y-45339000D01*
X194945000Y-45339000D01*
X194945000Y-44639750D01*
X195199000Y-44639750D01*
X195199000Y-45339000D01*
X196977000Y-45339000D01*
X196977000Y-44489750D01*
X197231000Y-44489750D01*
X197231000Y-45339000D01*
X199009000Y-45339000D01*
X199009000Y-44639750D01*
X198850250Y-44481000D01*
X198359690Y-44481000D01*
X198205778Y-44544753D01*
X198088699Y-44427673D01*
X197855310Y-44331000D01*
X197389750Y-44331000D01*
X197231000Y-44489750D01*
X196977000Y-44489750D01*
X196818250Y-44331000D01*
X196352690Y-44331000D01*
X196119301Y-44427673D01*
X196002222Y-44544753D01*
X195848310Y-44481000D01*
X195357750Y-44481000D01*
X195199000Y-44639750D01*
X194945000Y-44639750D01*
X194786250Y-44481000D01*
X194295690Y-44481000D01*
X194062301Y-44577673D01*
X193883673Y-44756302D01*
X193787000Y-44989691D01*
X180757570Y-44989691D01*
X180798431Y-44929890D01*
X180849440Y-44678000D01*
X180849440Y-42178000D01*
X180822909Y-42037000D01*
X214702702Y-42037000D01*
X214536559Y-42143910D01*
X214536559Y-42143910D01*
G37*
X214536559Y-42143910D02*
X214391569Y-42356110D01*
X214340560Y-42608000D01*
X214340560Y-44003861D01*
X212210210Y-46134210D01*
X212018367Y-46421325D01*
X212018367Y-46421326D01*
X211982899Y-46599630D01*
X211884559Y-46662910D01*
X211838031Y-46731006D01*
X211695698Y-46588673D01*
X211462309Y-46492000D01*
X211121750Y-46492000D01*
X210963000Y-46650750D01*
X210963000Y-47625000D01*
X210983000Y-47625000D01*
X210983000Y-47879000D01*
X210963000Y-47879000D01*
X210963000Y-48853250D01*
X211121750Y-49012000D01*
X211462309Y-49012000D01*
X211695698Y-48915327D01*
X211836936Y-48774090D01*
X211871910Y-48828441D01*
X211951000Y-48882481D01*
X211951000Y-49160156D01*
X211884559Y-49202910D01*
X211838031Y-49271006D01*
X211695698Y-49128673D01*
X211462309Y-49032000D01*
X211121750Y-49032000D01*
X210963000Y-49190750D01*
X210963000Y-50165000D01*
X210983000Y-50165000D01*
X210983000Y-50419000D01*
X210963000Y-50419000D01*
X210963000Y-50439000D01*
X210709000Y-50439000D01*
X210709000Y-50419000D01*
X209859750Y-50419000D01*
X209701000Y-50577750D01*
X209701000Y-51043310D01*
X209797673Y-51276699D01*
X209976302Y-51455327D01*
X210209691Y-51552000D01*
X210449421Y-51552000D01*
X208429420Y-53572000D01*
X206958623Y-53572000D01*
X206961431Y-53567890D01*
X207012440Y-53316000D01*
X207012440Y-52316000D01*
X206968162Y-52080683D01*
X206829090Y-51864559D01*
X206759289Y-51816866D01*
X206816441Y-51780090D01*
X206961431Y-51567890D01*
X207012440Y-51316000D01*
X207012440Y-50316000D01*
X206968162Y-50080683D01*
X206829090Y-49864559D01*
X206616890Y-49719569D01*
X206365000Y-49668560D01*
X205115000Y-49668560D01*
X204879683Y-49712838D01*
X204722793Y-49813794D01*
X204584890Y-49719569D01*
X204333000Y-49668560D01*
X203083000Y-49668560D01*
X202847683Y-49712838D01*
X202821493Y-49729691D01*
X202632492Y-49540690D01*
X209701000Y-49540690D01*
X209701000Y-50006250D01*
X209859750Y-50165000D01*
X210709000Y-50165000D01*
X210709000Y-49190750D01*
X210550250Y-49032000D01*
X210209691Y-49032000D01*
X209976302Y-49128673D01*
X209797673Y-49307301D01*
X209701000Y-49540690D01*
X202632492Y-49540690D01*
X202289460Y-49197658D01*
X202290392Y-49196727D01*
X202433038Y-48853199D01*
X202433362Y-48481233D01*
X202294051Y-48144073D01*
X202366697Y-48037750D01*
X209701000Y-48037750D01*
X209701000Y-48503310D01*
X209797673Y-48736699D01*
X209976302Y-48915327D01*
X210209691Y-49012000D01*
X210550250Y-49012000D01*
X210709000Y-48853250D01*
X210709000Y-47879000D01*
X209859750Y-47879000D01*
X209701000Y-48037750D01*
X202366697Y-48037750D01*
X202414431Y-47967890D01*
X202465440Y-47716000D01*
X202465440Y-47016000D01*
X202462560Y-47000690D01*
X209701000Y-47000690D01*
X209701000Y-47466250D01*
X209859750Y-47625000D01*
X210709000Y-47625000D01*
X210709000Y-46650750D01*
X210550250Y-46492000D01*
X210209691Y-46492000D01*
X209976302Y-46588673D01*
X209797673Y-46767301D01*
X209701000Y-47000690D01*
X202462560Y-47000690D01*
X202421162Y-46780683D01*
X202282090Y-46564559D01*
X202069890Y-46419569D01*
X202056803Y-46416919D01*
X202269441Y-46280090D01*
X202414431Y-46067890D01*
X202465440Y-45816000D01*
X202465440Y-45116000D01*
X202421162Y-44880683D01*
X202282090Y-44664559D01*
X202069890Y-44519569D01*
X201818000Y-44468560D01*
X200518000Y-44468560D01*
X200282683Y-44512838D01*
X200159883Y-44591857D01*
X200145699Y-44577673D01*
X199912310Y-44481000D01*
X199421750Y-44481000D01*
X199263000Y-44639750D01*
X199263000Y-45339000D01*
X199283000Y-45339000D01*
X199283000Y-45531001D01*
X194100004Y-45531001D01*
X194099999Y-45531000D01*
X193817515Y-45587191D01*
X193761324Y-45598368D01*
X193474209Y-45790211D01*
X193474207Y-45790214D01*
X191398210Y-47866210D01*
X191206367Y-48153325D01*
X191203965Y-48165401D01*
X191160330Y-48384765D01*
X191138683Y-48388838D01*
X191032756Y-48457000D01*
X190874005Y-48457000D01*
X190874000Y-48456999D01*
X190571994Y-48517073D01*
X190535325Y-48524367D01*
X190248210Y-48716210D01*
X190248208Y-48716213D01*
X187383420Y-51581000D01*
X182445200Y-51581000D01*
X182106525Y-51648367D01*
X181819410Y-51840210D01*
X181819408Y-51840213D01*
X180880437Y-52779183D01*
X180676690Y-52639969D01*
X180424800Y-52588960D01*
X178424800Y-52588960D01*
X178189483Y-52633238D01*
X178052000Y-52721706D01*
X178052000Y-51616463D01*
X178084192Y-51584327D01*
X178226838Y-51240799D01*
X178227162Y-50868833D01*
X178209232Y-50825440D01*
X180202000Y-50825440D01*
X180437317Y-50781162D01*
X180653441Y-50642090D01*
X180798431Y-50429890D01*
X180849440Y-50178000D01*
X180849440Y-47678000D01*
X180805162Y-47442683D01*
X180666090Y-47226559D01*
X180453890Y-47081569D01*
X180202000Y-47030560D01*
X179962000Y-47030560D01*
X179962000Y-45325440D01*
X180202000Y-45325440D01*
X180437317Y-45281162D01*
X180653441Y-45142090D01*
X180757570Y-44989691D01*
X193787000Y-44989691D01*
X193787000Y-45180250D01*
X193945750Y-45339000D01*
X194945000Y-45339000D01*
X194945000Y-44639750D01*
X195199000Y-44639750D01*
X195199000Y-45339000D01*
X196977000Y-45339000D01*
X196977000Y-44489750D01*
X197231000Y-44489750D01*
X197231000Y-45339000D01*
X199009000Y-45339000D01*
X199009000Y-44639750D01*
X198850250Y-44481000D01*
X198359690Y-44481000D01*
X198205778Y-44544753D01*
X198088699Y-44427673D01*
X197855310Y-44331000D01*
X197389750Y-44331000D01*
X197231000Y-44489750D01*
X196977000Y-44489750D01*
X196818250Y-44331000D01*
X196352690Y-44331000D01*
X196119301Y-44427673D01*
X196002222Y-44544753D01*
X195848310Y-44481000D01*
X195357750Y-44481000D01*
X195199000Y-44639750D01*
X194945000Y-44639750D01*
X194786250Y-44481000D01*
X194295690Y-44481000D01*
X194062301Y-44577673D01*
X193883673Y-44756302D01*
X193787000Y-44989691D01*
X180757570Y-44989691D01*
X180798431Y-44929890D01*
X180849440Y-44678000D01*
X180849440Y-42178000D01*
X180822909Y-42037000D01*
X214702702Y-42037000D01*
X214536559Y-42143910D01*
G36*
X198486000Y-48363440D02*
X199295382Y-48363440D01*
X199333852Y-48556839D01*
X199498599Y-48803401D01*
X200454758Y-49759560D01*
X200120000Y-49759560D01*
X200104420Y-49762492D01*
X199946310Y-49697000D01*
X198405750Y-49697000D01*
X198247002Y-49855748D01*
X198247002Y-49785354D01*
X198454992Y-49577727D01*
X198597638Y-49234199D01*
X198597962Y-48862233D01*
X198455917Y-48518457D01*
X198256533Y-48318725D01*
X198257586Y-48317185D01*
X198486000Y-48363440D01*
X198486000Y-48363440D01*
G37*
X198486000Y-48363440D02*
X199295382Y-48363440D01*
X199333852Y-48556839D01*
X199498599Y-48803401D01*
X200454758Y-49759560D01*
X200120000Y-49759560D01*
X200104420Y-49762492D01*
X199946310Y-49697000D01*
X198405750Y-49697000D01*
X198247002Y-49855748D01*
X198247002Y-49785354D01*
X198454992Y-49577727D01*
X198597638Y-49234199D01*
X198597962Y-48862233D01*
X198455917Y-48518457D01*
X198256533Y-48318725D01*
X198257586Y-48317185D01*
X198486000Y-48363440D01*
M02*
